<?xml version="1.0" encoding="UTF-8" standalone="no"?>
<svg xmlns:dc="http://purl.org/dc/elements/1.1/" xmlns:cc="http://creativecommons.org/ns#" xmlns:rdf="http://www.w3.org/1999/02/22-rdf-syntax-ns#" xmlns:svg="http://www.w3.org/2000/svg" xmlns="http://www.w3.org/2000/svg" viewBox="0 0 48 48" id="svg2" version="1.1">
 <defs id="defs4">
  <linearGradient id="0" y1="1010.36" y2="1015.36" x2="0" gradientUnits="userSpaceOnUse">
   <stop stop-color="#eabd70" id="stop7"/>
   <stop offset="1" stop-color="#f2d8aa" id="stop9"/>
  </linearGradient>
  <linearGradient id="1" y1="1027.36" y2="1032.36" x2="0" gradientUnits="userSpaceOnUse" gradientTransform="matrix(1.75 0 0 1 -18 -0.004)">
   <stop id="stop12"/>
   <stop offset="1" stop-opacity="0" id="stop14"/>
  </linearGradient>
  <linearGradient id="2" y1="1019.36" y2="1043.36" x2="0" gradientUnits="userSpaceOnUse">
   <stop stop-color="#fff" stop-opacity="0.238" id="stop17"/>
   <stop offset="1" stop-color="#ed4c70" stop-opacity="0" id="stop19"/>
  </linearGradient>
  <radialGradient cx="23" cy="1049.17" r="19" id="3" gradientUnits="userSpaceOnUse" gradientTransform="matrix(1.36842 -1.21053 1.06232 1.20088 -1123.03 -185.73)">
   <stop stop-color="#e4ae4e" id="stop22"/>
   <stop offset="1" stop-color="#e8b964" id="stop24"/>
  </radialGradient>
 </defs>
 <g transform="translate(0,-1004.36)" id="g26">
  <path d="m 10,1011.3622 -5,5 0,32 38,0 0,-32 -5,-5 -28,0 z" id="path28" opacity="0.2"/>
  <path d="m 5,1015.36 38,0 0,32 -38,0 z" id="path30" fill="url(#3)"/>
  <path d="m 10,1010.3622 28,0 5,5 -38,0 z" id="path32" fill="url(#0)"/>
  <path d="m 9,1019.36 30,0 0,24 -30,0 z" id="path34" fill="url(#2)"/>
  <path d="m 17,1027.36 14,0 0,5 -14,0 z" id="path36" fill="url(#1)"/>
  <path d="m 17,1025.36 14,0 0,5 -14,0 z" id="path38" fill="#e4ae4e"/>
  <path d="m 10.21875,6.53125 -4.6875,4.6875 0,31.25 36.9375,0 0,-31.25 -4.6875,-4.6875 -27.5625,0 z" transform="translate(0,1004.36)" id="path40" opacity="0.4" fill="none" stroke="#000"/>
  <path d="m 6,1015.36 36,0 0,1 -36,0 z" id="path42" opacity="0.242"/>
  <g id="g44" fill="#fff">
   <path d="m 6,1016.36 36,0 0,1 -36,0 z" id="path46" opacity="0.242"/>
   <path d="m 9,1043.36 30,0 0,1 -30,0 z" id="path48" opacity="0.4"/>
  </g>
  <path d="m 9.40625,1019.7812 0,23.1876 29.1875,0 0,-23.1876 -29.1875,0 z" id="path50" opacity="0.2" fill="none" stroke="#000"/>
  <path d="m 10,1020.36 28,0 0,1 -28,0 z" id="path52" opacity="0.1" fill="#fff"/>
  <path d="m 17.53125,1025.9062 0,3.9376 12.9375,0 0,-3.9376 -12.9375,0 z" id="path54" opacity="0.4" fill="none" stroke="#000"/>
  <path d="m 18,1026.36 12,0 0,1 -12,0 z" id="path56" opacity="0.5" fill="#fff"/>
 </g>
 <metadata id="metadata9999">
  <rdf:RDF>
   <cc:Work>
    <dc:format>image/svg+xml</dc:format>
    <dc:type rdf:resource="http://purl.org/dc/dcmitype/StillImage"/>
    <dc:title>Ivy icon theme</dc:title>
    <cc:license rdf:resource="http://creativecommons.org/licenses/by-sa/4.0/"/>
    <dc:creator>
     <cc:Agent>
      <dc:title>Sixsixfive (sixsixfive.deviantart.com)</dc:title>
     </cc:Agent>
    </dc:creator>
    <dc:publisher>
     <cc:Agent>
      <dc:title>Sixsixfive (sixsixfive.deviantart.com)</dc:title>
     </cc:Agent>
    </dc:publisher>
    <dc:source>https://github.com/sixsixfive</dc:source>
    <dc:subject>
     <rdf:Bag>
      <rdf:li>ivy</rdf:li>
     </rdf:Bag>
    </dc:subject>
    <dc:contributor>
     <cc:Agent>
      <dc:title>ssf</dc:title>
     </cc:Agent>
    </dc:contributor>
    <dc:rights>
     <cc:Agent>
      <dc:title>Sixsixfive (sixisixfive.deviantart.com)</dc:title>
     </cc:Agent>
    </dc:rights>
    <dc:description>A simple icon theme published under CC-BY-SA_V4(http://creativecommons.org/licenses/by-sa/4.0)</dc:description>
    <dc:identifier>SSF</dc:identifier>
   </cc:Work>
  </rdf:RDF>
 </metadata>
 <!--Part of the Ivy icon them published under the CC-BY-SA_V4: http://creativecommons.org/licenses/by-sa/4.0 -->
</svg>
