<svg xmlns="http://www.w3.org/2000/svg" xmlns:svg="http://www.w3.org/2000/svg" id="svg2" version="1.1" viewBox="0 0 48 48"><defs id="defs4"><linearGradient id="0" x2="0" y1="1010.36" y2="1015.36" gradientUnits="userSpaceOnUse"><stop id="stop7" stop-color="#eabd70"/><stop id="stop9" offset="1" stop-color="#f2d8aa"/></linearGradient><linearGradient id="1" x2="0" y1="1027.36" y2="1032.36" gradientTransform="matrix(1.75 0 0 1 -18 -0.004)" gradientUnits="userSpaceOnUse"><stop id="stop12"/><stop id="stop14" offset="1" stop-opacity="0"/></linearGradient><linearGradient id="2" x2="0" y1="1019.36" y2="1043.36" gradientUnits="userSpaceOnUse"><stop id="stop17" stop-color="#fff" stop-opacity=".238"/><stop id="stop19" offset="1" stop-color="#ed4c70" stop-opacity="0"/></linearGradient><radialGradient id="3" cx="23" cy="1049.17" r="19" gradientTransform="matrix(1.36842 -1.21053 1.06232 1.20088 -1123.03 -185.73)" gradientUnits="userSpaceOnUse"><stop id="stop22" stop-color="#e4ae4e"/><stop id="stop24" offset="1" stop-color="#e8b964"/></radialGradient></defs><g id="g26" transform="translate(0,-1004.36)"><path id="path28" d="m 10,1011.3622 -5,5 0,32 38,0 0,-32 -5,-5 -28,0 z" opacity=".2"/><path id="path30" fill="url(#3)" d="m 5,1015.36 38,0 0,32 -38,0 z"/><path id="path32" fill="url(#0)" d="m 10,1010.3622 28,0 5,5 -38,0 z"/><path id="path34" fill="url(#2)" d="m 9,1019.36 30,0 0,24 -30,0 z"/><path id="path36" fill="url(#1)" d="m 17,1027.36 14,0 0,5 -14,0 z"/><path id="path38" fill="#e4ae4e" d="m 17,1025.36 14,0 0,5 -14,0 z"/><path id="path40" fill="none" stroke="#000" d="m 10.21875,6.53125 -4.6875,4.6875 0,31.25 36.9375,0 0,-31.25 -4.6875,-4.6875 -27.5625,0 z" opacity=".4" transform="translate(0,1004.36)"/><path id="path42" d="m 6,1015.36 36,0 0,1 -36,0 z" opacity=".242"/><g id="g44" fill="#fff"><path id="path46" d="m 6,1016.36 36,0 0,1 -36,0 z" opacity=".242"/><path id="path48" d="m 9,1043.36 30,0 0,1 -30,0 z" opacity=".4"/></g><path id="path50" fill="none" stroke="#000" d="m 9.40625,1019.7812 0,23.1876 29.1875,0 0,-23.1876 -29.1875,0 z" opacity=".2"/><path id="path52" fill="#fff" d="m 10,1020.36 28,0 0,1 -28,0 z" opacity=".1"/><path id="path54" fill="none" stroke="#000" d="m 17.53125,1025.9062 0,3.9376 12.9375,0 0,-3.9376 -12.9375,0 z" opacity=".4"/><path id="path56" fill="#fff" d="m 18,1026.36 12,0 0,1 -12,0 z" opacity=".5"/></g><metadata id="metadata9999"/></svg>