<?xml version="1.0" encoding="UTF-8" standalone="no"?>
<svg
   xmlns:dc="http://purl.org/dc/elements/1.1/"
   xmlns:cc="http://creativecommons.org/ns#"
   xmlns:rdf="http://www.w3.org/1999/02/22-rdf-syntax-ns#"
   xmlns:svg="http://www.w3.org/2000/svg"
   xmlns="http://www.w3.org/2000/svg"
   version="1.1"
   viewBox="0 0 48 48"
   id="svg2">
  <defs
     id="defs4">
    <linearGradient
       gradientUnits="userSpaceOnUse"
       x2="0"
       y2="44"
       y1="3"
       id="0">
      <stop
         id="stop7"
         stop-color="#dedede" />
      <stop
         id="stop9"
         stop-color="#f4f4f4"
         offset="1" />
    </linearGradient>
    <linearGradient
       gradientUnits="userSpaceOnUse"
       x2="39.906"
       y2="42.969"
       x1="40"
       y1="3"
       id="1">
      <stop
         id="stop12"
         stop-color="#fff" />
      <stop
         id="stop14"
         stop-opacity="0"
         stop-color="#fff"
         offset="1" />
    </linearGradient>
    <linearGradient
       y1="10.765"
       x2="0"
       y2="40.485"
       id="2"
       gradientUnits="userSpaceOnUse"
       gradientTransform="matrix(-1.18474,0,0,1.27706,57,-8.727)">
      <stop
         id="M"
         stop-color="#fff" />
      <stop
         id="N"
         offset="1"
         stop-color="#fff"
         stop-opacity="0" />
    </linearGradient>
    <mask
       id="3">
      <path
         d="m 3.9828,24 a 20,20 0 0 0 40,0 20,20 0 1 0 -40,0 z"
         id="O"
         fill="#fff" />
    </mask>
    <mask
       id="4">
      <path
         d="m 3.9828,24 a 20,20 0 0 0 40,0 20,20 0 1 0 -40,0 z"
         id="P"
         fill="#fff" />
    </mask>
    <mask
       id="5">
      <path
         d="m 3.9828,24 a 20,20 0 0 0 40,0 20,20 0 1 0 -40,0 z"
         id="Q"
         fill="#fff" />
    </mask>
    <mask
       id="6">
      <path
         d="m 3.9828,24 a 20,20 0 0 0 40,0 20,20 0 1 0 -40,0 z"
         id="R"
         fill="#fff" />
    </mask>
    <mask
       id="7">
      <path
         d="m 3.9828,24 a 20,20 0 0 0 40,0 20,20 0 1 0 -40,0 z"
         id="S"
         fill="#fff" />
    </mask>
    <mask
       id="8">
      <path
         d="m 3.9828,24 a 20,20 0 0 0 40,0 20,20 0 1 0 -40,0 z"
         id="T"
         fill="#fff" />
    </mask>
    <mask
       id="9">
      <path
         d="m 3.9828,24 a 20,20 0 0 0 40,0 20,20 0 1 0 -40,0 z"
         id="U"
         fill="#fff" />
    </mask>
    <mask
       id="A">
      <path
         d="m 3.9828,24 a 20,20 0 0 0 40,0 20,20 0 1 0 -40,0 z"
         id="V"
         fill="#fff" />
    </mask>
    <filter
       x="-0.515"
       y="-0.515"
       width="2.031"
       height="2.031"
       color-interpolation-filters="sRGB"
       id="B">
      <feGaussianBlur
         id="W"
         stdDeviation="5.15337" />
    </filter>
    <clipPath
       id="clipPath3381"
       clipPathUnits="userSpaceOnUse">
      <rect
         style="fill:#ffffff"
         ry="1.209"
         id="rect3383"
         height="42"
         rx="1.209"
         y="-6.9371538"
         x="-0.71386504"
         width="34.951" />
    </clipPath>
  </defs>
  <rect
     id="rect16"
     height="42"
     rx="1.209"
     y="3"
     opacity="0.1"
     x="6"
     width="34.951"
     ry="1.209" />
  <rect
     id="rect18"
     height="42"
     rx="1.209"
     fill="url(#0)"
     y="2"
     x="5.986"
     width="34.951"
     ry="1.209" />
  <g
     clip-path="url(#clipPath3381)"
     mask="none"
     transform="translate(6.6998651,8.9371537)"
     id="1-4">
    <path
       opacity="0.1"
       d="m 3.9828,25 a 20,20 0 0 0 40,0 20,20 0 1 0 -40,0 z"
       id="C" />
    <path
       filter="url(#B)"
       fill="#ffd506"
       d="M 24,0 48,0 C 24,24 48,0 24,24 Z"
       mask="url(#5)"
       id="D" />
    <path
       filter="url(#B)"
       fill="#66b03e"
       d="M 24,0 0,0 c 24,24 0,0 24,24 z"
       mask="url(#4)"
       id="E" />
    <path
       filter="url(#B)"
       fill="#ee445f"
       d="m 24,48 24,0 C 24,24 48,48 24,24 Z"
       mask="url(#8)"
       id="F" />
    <path
       filter="url(#B)"
       fill="#c268d4"
       d="M 24,48 0,48 C 24,24 0,48 24,24 Z"
       mask="url(#9)"
       id="G" />
    <path
       filter="url(#B)"
       fill="#52a3d1"
       d="M 0,24 0,48 C 24,24 0,48 24,24 Z"
       mask="url(#A)"
       id="H" />
    <path
       filter="url(#B)"
       fill="#3eb084"
       d="M 0,24 0,0 c 24,24 0,0 24,24 z"
       mask="url(#3)"
       id="I" />
    <path
       filter="url(#B)"
       fill="#d02604"
       d="m 48,24 0,24 C 24,24 48,48 24,24 Z"
       mask="url(#7)"
       id="J" />
    <path
       filter="url(#B)"
       fill="#ff8b36"
       d="M 48,24 48,0 C 24,24 48,0 24,24 Z"
       mask="url(#6)"
       id="K" />
    <g
       fill="none"
       id="L">
      <path
         stroke="#000"
         opacity="0.4"
         d="m 23.9762,4.5222 c 10.7992,0 19.5482,8.7394 19.5482,19.4751 0,10.7357 -8.74902,19.4751 -19.5482,19.4751 -10.7992,0 -19.5112,-8.73812 -19.5112,-19.4751 0,-10.737 8.712,-19.4751 19.5112,-19.4751 z"
         id="X" />
      <path
         stroke="url(#2)"
         opacity="0.6"
         d="m 23.9762,5.5199 c 10.3443,0 18.6226,8.31366 18.6226,18.4774 0,10.1637 -8.27831,18.4774 -18.6226,18.4774 -10.3443,0 -18.5856,-8.31002 -18.5856,-18.4774 0,-10.1674 8.24128,-18.4774 18.5856,-18.4774 z"
         id="Y" />
    </g>
  </g>
  <g
     fill="none"
     id="g20">
    <path
       stroke="#000"
       opacity="0.4"
       id="path22"
       d="M 7.1875,2.5 C 6.783721,2.5 6.5,2.799839 6.5,3.21875 l 0,39.5625 C 6.5,43.20016 6.783721,43.5 7.1875,43.5 l 32.53125,0 c 0.40378,0 0.71875,-0.31497 0.71875,-0.71875 l 0,-39.5625 C 40.4375,2.814971 40.12253,2.5 39.71875,2.5 L 7.1875,2.5 Z" />
    <path
       stroke="url(#1)"
       opacity="0.78"
       id="path24"
       d="m 7.5312,3.5312 0,38.9375 31.875,0 0,-38.9375 -31.875,0 z" />
  </g>
  <metadata
     id="metadata9999">
    <rdf:RDF>
      <cc:Work>
        <dc:format>image/svg+xml</dc:format>
        <dc:type
           rdf:resource="http://purl.org/dc/dcmitype/StillImage" />
        <dc:title></dc:title>
        <cc:license
           rdf:resource="http://creativecommons.org/licenses/by-sa/4.0/" />
        <dc:creator>
          <cc:Agent>
            <dc:title>Sixsixfive (sixsixfive.deviantart.com)</dc:title>
          </cc:Agent>
        </dc:creator>
        <dc:publisher>
          <cc:Agent>
            <dc:title>Sixsixfive (sixsixfive.deviantart.com)</dc:title>
          </cc:Agent>
        </dc:publisher>
        <dc:source>https://github.com/sixsixfive</dc:source>
        <dc:subject>
          <rdf:Bag>
            <rdf:li>ivy</rdf:li>
          </rdf:Bag>
        </dc:subject>
        <dc:contributor>
          <cc:Agent>
            <dc:title>ssf</dc:title>
          </cc:Agent>
        </dc:contributor>
        <dc:rights>
          <cc:Agent>
            <dc:title>Sixsixfive (sixisixfive.deviantart.com)</dc:title>
          </cc:Agent>
        </dc:rights>
        <dc:description>A simple icon theme published under CC-BY-SA_V4(http://creativecommons.org/licenses/by-sa/4.0)</dc:description>
        <dc:identifier>SSF</dc:identifier>
      </cc:Work>
    </rdf:RDF>
  </metadata>
  <!--Part of the Ivy icon them published under the CC-BY-SA_V4: http://creativecommons.org/licenses/by-sa/4.0 -->
</svg>
