<svg xmlns="http://www.w3.org/2000/svg" xmlns:svg="http://www.w3.org/2000/svg" xmlns:xlink="http://www.w3.org/1999/xlink" id="svg2" version="1.1" viewBox="0 0 48 48"><defs id="0"><linearGradient id="linearGradient4334"><stop id="stop4336" stop-color="#eee"/><stop id="stop4338" offset="1" stop-color="#fff"/></linearGradient><linearGradient id="2" x2="0" y1="10.765" y2="40.485" gradientTransform="matrix(1.18474 0 0 1.27706 -9.01 995.63)" gradientUnits="userSpaceOnUse"><stop id="A" stop-color="#fff"/><stop id="B" offset="1" stop-color="#fff" stop-opacity="0"/></linearGradient><linearGradient id="linearGradient4340" x1="44.098" x2="43.918" y1="4.191" y2="42.237" gradientUnits="userSpaceOnUse" xlink:href="#linearGradient4334"/></defs><g id="1" transform="translate(0,-1004.36)"><path id="5" d="m 44.006,1029.3622 a 20,20 0 1 1 -40,0 20,20 0 1 1 40,0 z" opacity=".1"/><path id="6" fill="#5288d1" d="m 44.006,1028.3622 a 20,20 0 1 1 -40,0 20,20 0 1 1 40,0 z"/><path id="path4346" d="M 24.589844,4.0097656 A 20,20 0 0 0 4.0097656,23.923828 c 1.6855975,0.01507 3.1576855,0.08464 3.6875,1.814453 2.6893004,1.1993 -0.2205388,6.485085 3.0000004,8.708985 1.408249,1.130111 0.864592,3.114191 0.574218,4.947265 a 20,20 0 0 0 6.90625,3.714844 c 1.778998,-1.569297 3.277181,-4.383717 4.376954,-5.794922 3.058786,-2.0469 3.951299,-6.253503 3.875,-9.658203 -2.957082,-0.4333 -4.921421,-1.833769 -6.779297,-3.792969 -2.254049,-1.3305 -4.557595,-3.31645 -7.44336,-1.96875 0.06299,-1.9232 0.282766,-3.739737 1.519531,-5.648437 0.07292,-3.1897 4.140938,-1.075597 4.916016,-4.029297 1.327647,-1.0891 0.739204,-4.111872 2.644531,-3.951172 1.939014,-0.6599634 3.018043,-2.4791316 4.306641,-4.1757812 a 20,20 0 0 0 -1.003906,-0.080078 z m 5.970703,1.1015625 c 0.138531,0.4753409 0.269246,0.9702377 0.347656,1.4863281 1.018229,2.8558001 -0.343965,3.2532594 -0.857422,6.1933598 1.427006,3.196 -2.888226,4.827815 -2.121093,8.291015 0.211898,2.579 1.940592,7.616794 5.183593,6.996094 4.528558,-1.7951 3.075052,3.512153 3.513672,6.189453 0.560254,1.16924 1.23562,2.489438 1.966797,3.38086 A 20,20 0 0 0 44.005859,24.001953 20,20 0 0 0 30.560547,5.1113281 Z" opacity=".1" transform="translate(0,1004.36)"/><path id="path4324" fill="url(#linearGradient4340)" d="m 22.794922,4.0488281 c -1.399636,0.081524 -2.78682,0.3099939 -4.138672,0.6816407 l 0.304688,0.3769531 c 0.140616,0.1618 0.451922,0.5067312 0.693359,0.7695312 l 0.439453,0.4785157 0.685547,-0.052734 c 0.382665,-0.025 0.680075,-0.082066 0.671875,-0.1347656 -0.0076,-0.047 -0.03828,-0.2220188 -0.06836,-0.3867188 -0.05238,-0.2855 -0.02421,-0.3296814 0.638672,-0.9882812 z M 16.015625,5.6933594 C 9.4046019,8.5738143 4.8561389,14.790172 4.1113281,21.962891 c 0.3383547,0.03724 1.2694193,0.04751 1.8945313,0.01563 l 1.2109375,-0.0625 0.4648437,0.378906 c 0.2548723,0.2064 0.741951,0.466825 0.919205,0.578125 0.3108926,0.19 0.3217847,0.214794 0.3222656,0.683594 l 0.00195,0.488281 0.7116545,0.408203 c 0.6063743,0.2911 0.4514723,0.410156 0.7219263,0.410156 0.616221,0 0.677737,0.101194 0.677734,1.058594 5e-6,0.4568 -0.03469,0.828125 -0.07617,0.828125 -0.04149,0 -0.254176,0.219928 -0.472657,0.486328 l -0.429996,0.381885 0,0.976562 0,0.982422 0.909242,0.850537 c 0.205415,0.414 0.505139,1.129002 0.666015,1.595704 l 0.292969,0.845703 0.78711,0.613281 c 0.433075,0.3403 1.218775,0.654078 1.294415,0.705078 0.124817,0.078 0.110942,0.90442 -0.152344,3.73932 -0.126286,1.358816 -0.672699,2.193393 -0.761212,2.805602 0.906043,0.595929 1.859055,1.117179 2.849609,1.558594 l 0.658203,-0.726563 c 0.327992,-0.3618 1.352268,-1.469037 2.275391,-2.460937 l 1.677735,-1.804688 0.0039,-0.533203 0.0039,-0.533203 1.148438,-0.783203 c 1.27597,-0.8709 1.23611,-0.815847 1.445312,-2.060547 0.09644,-0.5744 0.172548,-0.737794 0.691406,-1.496094 l 1.218763,-0.887028 0,-0.960937 0,-0.960937 -1.603528,-0.275082 c -0.531725,-0.1687 -1.392205,-0.43013 -1.91211,-0.582032 -0.51993,-0.149899 -0.998743,-0.295078 -1.064453,-0.330078 -0.06577,-0.033 -0.3464,-0.462931 -0.623047,-0.957031 -0.276641,-0.4938 -0.536052,-0.950344 -0.576172,-1.027344 -0.04012,-0.072 -0.478728,-0.246671 -0.974609,-0.388671 L 17.412095,25.263677 16.65233,24.449224 c -0.417264,-0.3092 -0.508221,-0.944707 -0.759766,-1.419626 l -0.868016,0.01038 C 13.588273,23 13.558074,23.467522 12.642578,23.888672 L 11.794922,24.277344 11,24.029297 l -0.994042,-0.315071 0,-0.847656 0,-0.845703 -0.4356455,-0.0404 c -0.350242,-0.065 -0.6711006,-0.09245 -0.7128906,-0.06445 -0.1003839,0.063 -0.3261719,-0.130491 -0.3261719,-0.275391 0,-0.065 0.3038308,-0.4364 0.4295886,-0.7021 C 9,20 8.9900273,20.002154 8.2246094,20.002154 c -0.511507,0 -0.5232987,0.402174 -0.6640625,0.700974 -0.2139045,0.4409 -0.5860559,0.413244 -1.2578125,-0.09766 l -0.5117188,-0.388672 -0.027344,-1.125 c -0.014421,-0.616 -0.00603,-1.147594 0.017578,-1.183594 0.023632,-0.032 0.1724157,-0.147765 0.3300781,-0.259765 0.2694829,-0.194601 0.3235643,-0.202282 0.9023438,-0.113282 0.5849577,0.081 0.6284718,0.07596 0.8925781,-0.11914 0.2520404,-0.1831 0.3483693,-0.207594 1.0292969,-0.183594 0.6529632,0.02 0.7631537,0.04807 0.8398437,0.197266 0.2865738,0.5633 0.2447068,1.73027 0.3212268,1.73027 0.04926,0 0.77866,-0.06099 0.884469,-0.15039 l 0.126336,-0.54863 -0.167969,-0.982422 -0.169922,-0.982422 0.810547,-0.873047 0.808594,-0.875 0.02734,-0.548828 c 0.02495,-0.5298 0.03624,-0.558682 0.304687,-0.675781 C 12.995322,13.405337 13,13.394931 13,12.832031 c 0,-0.6819 0.07387,-0.777956 0.822266,-1.035156 l 0.509765,-0.175781 0.257813,0.304687 c 0.253224,0.3046 0.269214,0.304688 0.90625,0.304688 0.637515,0 0.654005,-1.9e-5 0.966797,-0.324219 0.175027,-0.1797 0.318359,-0.365875 0.318359,-0.421875 0,-0.048 -0.166756,-0.228139 -0.371094,-0.398437 -0.320951,-0.256501 -0.455459,-0.304329 -0.988281,-0.361329 -0.435548,-0.043 -0.61719,-0.08899 -0.617187,-0.179687 0,-0.087 0.157402,-0.119141 0.65039,-0.119141 l 0.648438,0 0.447265,-0.416015 c 0.370345,-0.3452008 0.534307,-0.4254379 0.970703,-0.5234379 0.766117,-0.1599 0.764546,-0.157225 0.476563,-0.765625 -0.325693,-0.6874 -0.371535,-0.7387906 -0.996094,-1.0878906 -0.494719,-0.2777 -0.540551,-0.3301844 -0.726562,-0.8339844 -0.205678,-0.56 -0.321984,-0.8713845 -0.253907,-1.0214843 -0.0011,-0.01 -0.0059,-0.1601251 -0.0059,-0.015625 -0.0024,-0.022703 -5.5e-4,-0.045466 0,-0.068359 z m 16.826172,0.390625 0.296875,1.1171875 0.34375,1.0292969 -0.171875,0.6679687 c -0.09414,0.3683 -0.08505,0.079765 -0.06188,0.1057653 0.07601,0.072 2.151028,0.047891 2.199218,-0.037109 0.02593,-0.042 0.02218,0.223866 0.0736,-0.148734 0.04413,-0.318952 0.16976,-0.8032882 0.222657,-1.0078125 C 34.8271,7.1542311 33.856192,6.5766518 32.841797,6.0839844 Z m 4.060547,2.6582031 -0.75586,0.7109375 -0.673828,0.619141 -0.927734,-0.01172 c -0.510228,-0.01 -0.946953,0.01016 -0.970703,0.03516 -0.02361,0.022 0.211966,0.243841 0.523437,0.494141 l 0.566406,0.449218 -0.02539,0.527344 -0.02539,0.527344 -1.193359,0.06836 c -0.656977,0.03 -1.215835,0.08208 -1.240234,0.109375 -0.02443,0.023 -0.09114,0.380516 -0.148438,0.791016 l -0.103516,0.753906 0.56836,0.53711 c 0.484699,0.451 0.616505,0.538262 0.884765,0.539062 0.173375,0 0.376009,0.02469 0.449219,0.05469 0.09825,0.037 0.288124,-0.188922 0.716797,-0.857422 l 0.548519,-1.071858 0.429688,-0.0293 0.429687,-0.02734 0.07648,-0.262126 0.04297,-0.729345 0.921875,0.0293 0.921875,0.03125 1.183593,0.950048 c 1.506367,0.8284 2.146598,1.283759 2.388672,1.693359 0.01969,-0.0045 0.08054,-0.04241 0.138672,-0.07813 -1.191035,-2.232609 -2.794929,-4.218919 -4.726563,-5.8535205 z m -1.278988,5.2739445 -0.736637,0.913556 c -0.691127,0.539199 -0.716209,0.548296 -1.476563,0.654296 -0.577213,0.081 -0.84975,0.164572 -1.074218,0.326172 -0.451938,0.3273 -0.515625,0.442641 -0.515626,0.931641 l 0,0.447265 -0.451171,0.257813 c -0.380181,0.2157 -0.528906,0.378734 -0.945313,1.052734 l -0.460628,0.765317 0,1.68164 0.002,1.681641 0.521175,0.64484 c 0.414459,0.4585 0.68505,0.878828 1.076172,1.673828 l 0.523438,1.0625 0.957031,-0.0293 L 34,26.046875 34.599609,25.626953 c 0.553039,-0.3834 0.637944,-0.419922 1.103516,-0.419922 0.402223,0 0.515927,0.02994 0.560547,0.148438 0.03076,0.082 0.185561,0.34609 0.34375,0.58789 l 0.289062,0.4375 0.46875,-0.04297 c 0.682693,-0.058 0.739392,0.01501 0.720704,0.941406 -0.01441,0.7089 1.78e-4,0.776475 0.253906,1.171875 l 0.269531,0.417969 0,1.677734 c 0,1.4273 -0.02455,1.746344 -0.164063,2.152344 -0.0893,0.262 -0.132936,0.508734 -0.0957,0.552734 0.0373,0.04 0.380364,0.649969 0.763672,1.355469 l 0.697266,1.283203 0.123047,0.167969 c 0.171205,-0.216577 0.337907,-0.436677 0.5,-0.660156 0.03851,-0.05411 0.07747,-0.107784 0.115234,-0.16211 1.427225,-2.108178 2.438824,-4.469461 2.980469,-6.957031 0.07073,-0.334784 0.129957,-0.666826 0.183594,-0.998047 0.03296,-0.198755 0.06291,-0.397996 0.08984,-0.597656 0.05096,-0.381512 0.09448,-0.761347 0.125,-1.134766 0.04595,-0.513774 0.07202,-1.029133 0.07813,-1.544922 l 0,-0.002 c -0.0017,-0.324364 -0.01589,-0.648429 -0.03125,-0.972656 -0.02732,-0.618805 -0.08337,-1.236006 -0.167968,-1.849609 -0.319952,-2.193797 -1.002435,-4.319131 -2.019532,-6.289063 -0.298722,0.214085 -0.393281,0.583544 -0.517578,0.835937 -0.11287,0.3606 -0.252547,0.66936 -0.310547,0.69336 -0.163911,0.064 -2.789813,-0.760825 -2.839843,-0.890625 -0.04087,-0.1081 0.103652,-1.04054 0.230777,-1.37254 0.04826,-0.1232 -0.08669,-0.138672 -1.335937,-0.138672 l -1.390625,0 z" transform="translate(0,1004.36)"/><g id="9" fill="none"><path id="F" stroke="#000" d="m 24.0126,1008.8843 c -2.551627,-0.021 -4.988795,0.4552 -7.223141,1.3372 -4.65e-4,10e-5 -9.29e-4,3e-4 -0.0014,5e-4 -7.221298,2.8509 -12.323666,9.9365 -12.323666,18.1374 0,10.7358 8.74902,19.4752 19.5482,19.4752 10.7992,0 19.5112,-8.7382 19.5112,-19.4752 0,-10.7369 -8.712375,-19.3851 -19.5112,-19.4751 z" opacity=".4"/><path id="E" stroke="url(#2)" d="m 24.0126,1009.882 c -10.3443,0 -18.6226,8.3137 -18.6226,18.4774 0,10.1638 8.27831,18.4775 18.6226,18.4775 10.3443,0 18.5856,-8.3101 18.5856,-18.4775 0,-10.1673 -8.24128,-18.4774 -18.5856,-18.4774 z" opacity=".5"/></g></g><metadata id="metadata9999"/></svg>