<svg xmlns="http://www.w3.org/2000/svg" xmlns:svg="http://www.w3.org/2000/svg" xmlns:xlink="http://www.w3.org/1999/xlink" id="svg2" version="1.1" viewBox="0 0 32 32"><defs id="defs4"><linearGradient id="linearGradient4188"><stop id="stop4190" stop-color="#fff"/><stop id="stop4192" offset="1" stop-color="#fff" stop-opacity="0"/></linearGradient><linearGradient id="linearGradient4194" x1="29" x2="28.977" y1="5" y2="26.977" gradientUnits="userSpaceOnUse" xlink:href="#linearGradient4188"/></defs><rect id="rect4198" width="28" height="24" x="2" y="5" opacity=".05" rx="1.333" ry="1.333"/><rect id="rect13" width="28" height="24" x="2" y="4" fill="#ddd" rx="1.333" ry="1.333"/><path id="path15" fill="#5288d1" d="M 5,7 5,23 27,23 27,7 5,7 Z"/><path id="path27" fill="#ffd506" d="M 23,6.9999997 23,23 l 2,0 0,-16.0000003 -2,0 z"/><path id="path29" fill="#ffd506" d="M 19,6.9999997 19,23 l 2,0 0,-16.0000003 -2,0 z"/><path id="path33" d="m 7,9 0,2 0,2 2,0 0,-2 2,0 0,-2 -2,0 -2,0 z" opacity=".6"/><path id="path35" d="m 25,21 0,-2 0,-2 -2,0 0,2 -2,0 0,2 2,0 2,0 z" opacity=".6"/><path id="path37" d="m 7,21 2,0 2,0 0,-2 -2,0 0,-2 -2,0 0,2 0,2 z" opacity=".6"/><path id="path39" d="m 25,9 -2,0 -2,0 0,2 2,0 0,2 2,0 0,-2 0,-2 z" opacity=".7"/><path id="path41" d="m 19,15 a 3,3 0 0 1 -6,0 3,3 0 1 1 6,0 z" opacity=".6"/><path id="path3380" fill="none" stroke="#000" d="m 5.5078125,7.5078125 0,14.9843755 20.9843755,0 0,-14.9843755 -20.9843755,0 z" opacity=".5"/><path id="path3384" fill="none" stroke="#000" d="m 3.3339844,4.5078125 c -0.4655682,0 -0.8261719,0.3606037 -0.8261719,0.8261719 l 0,21.3320316 c 0,0.465567 0.3606038,0.826171 0.8261719,0.826172 l 25.3320316,0 c 0.465567,0 0.826172,-0.360605 0.826172,-0.826172 l 0,-21.3320316 c 0,-0.4655681 -0.360605,-0.8261719 -0.826172,-0.8261719 l -25.3320316,0 z" opacity=".4"/><path id="path3386" fill="none" stroke="url(#linearGradient4194)" d="m 3.5234375,5.5234375 0,20.9531245 24.9531245,0 0,-20.9531245 -24.9531245,0 z" opacity=".76"/><rect id="rect4196" width="22" height="1" x="5" y="23" fill="#fff" stroke-linecap="round" stroke-linejoin="round" opacity=".8"/><metadata id="metadata9999"/></svg>