<?xml version="1.0" encoding="UTF-8" standalone="no"?>
<svg xmlns:dc="http://purl.org/dc/elements/1.1/" xmlns:cc="http://creativecommons.org/ns#" xmlns:rdf="http://www.w3.org/1999/02/22-rdf-syntax-ns#" xmlns:svg="http://www.w3.org/2000/svg" xmlns="http://www.w3.org/2000/svg" xmlns:xlink="http://www.w3.org/1999/xlink" version="1.1" id="svg2" viewBox="0 0 48 48">
 <defs id="0">
  <linearGradient id="2">
   <stop id="E" stop-color="#a3c0e7"/>
   <stop id="F" stop-color="#fff" offset="1"/>
  </linearGradient>
  <linearGradient id="3">
   <stop id="G"/>
   <stop stop-opacity="0" id="H" offset="1"/>
  </linearGradient>
  <linearGradient id="4">
   <stop id="I" stop-color="#fff"/>
   <stop stop-opacity="0" id="J" stop-color="#fff" offset="1"/>
  </linearGradient>
  <linearGradient gradientUnits="userSpaceOnUse" x2="0" y2="39" y1="12" xlink:href="#4" id="5"/>
  <radialGradient gradientTransform="matrix(1 0 0 0.65 0 8.225)" gradientUnits="userSpaceOnUse" xlink:href="#3" id="6" r="10" cy="23.5" cx="14"/>
  <linearGradient gradientUnits="userSpaceOnUse" x2="0" y2="38" y1="11" xlink:href="#2" id="7"/>
  <mask id="8">
   <path d="m 24,11 c -3.406245,0 -6.164865,2.32542 -7.078125,5.4375 C 15.88203,15.891755 14.75511,15.5 13.5,15.5 9.36,15.5 5.999985,18.859985 6,23 6,23.868395 6.24378,24.66155 6.515625,25.4375 4.45542,26.59361 3,28.721 3,31.25 c 0,3.726 3.024,6.750015 6.75,6.75 0.265695,0 28.234305,0 28.5,0 C 41.975985,38 45,34.976 45,31.25 45,28.721 43.54458,26.59361 41.484375,25.4375 41.756235,24.661565 42,23.86838 42,23 c 0,-4.14 -3.36,-7.499985 -7.5,-7.5 -1.25511,0 -2.38203,0.391755 -3.421875,0.9375 C 30.164865,13.32542 27.406245,11 24,11 z" id="K" fill="#fff"/>
  </mask>
 </defs>
 <g id="1">
  <path d="m 24,12 c -3.406245,0 -6.164865,2.32542 -7.078125,5.4375 C 15.88203,16.891755 14.75511,16.5 13.5,16.5 9.36,16.5 5.999985,19.859985 6,24 6,24.868395 6.24378,25.66155 6.515625,26.4375 4.45542,27.59361 3,29.721 3,32.25 c 0,3.726 3.024,6.750015 6.75,6.75 0.265695,0 28.234305,0 28.5,0 C 41.975985,39 45,35.976 45,32.25 45,29.721 43.54458,27.59361 41.484375,26.4375 41.756235,25.661565 42,24.86838 42,24 c 0,-4.14 -3.36,-7.499985 -7.5,-7.5 -1.25511,0 -2.38203,0.391755 -3.421875,0.9375 C 30.164865,14.32542 27.406245,12 24,12 Z" id="9" opacity="0.1"/>
  <path d="m 24,11 c -3.406245,0 -6.164865,2.32542 -7.078125,5.4375 C 15.88203,15.891755 14.75511,15.5 13.5,15.5 9.36,15.5 5.999985,18.859985 6,23 6,23.868395 6.24378,24.66155 6.515625,25.4375 4.45542,26.59361 3,28.721 3,31.25 c 0,3.726 3.024,6.750015 6.75,6.75 0.265695,0 28.234305,0 28.5,0 C 41.975985,38 45,34.976 45,31.25 45,28.721 43.54458,26.59361 41.484375,25.4375 41.756235,24.661565 42,23.86838 42,23 c 0,-4.14 -3.36,-7.499985 -7.5,-7.5 -1.25511,0 -2.38203,0.391755 -3.421875,0.9375 C 30.164865,13.32542 27.406245,11 24,11 Z" id="A" fill="url(#7)"/>
  <path d="m 24,11.5 c -3.181639,0 -5.736966,2.142872 -6.59375,5.0625 a 0.49355006,0.49355006 0 0 1 -0.6875,0.3125 C 15.724568,16.353221 14.65242,16 13.5,16 c -3.8729863,0 -7.000014,3.127001 -7,7 0,0.781956 0.2031129,1.52302 0.46875,2.28125 A 0.49355006,0.49355006 0 0 1 6.75,25.875 C 4.8295386,26.952691 3.5,28.908305 3.5,31.25 c 0,3.458985 2.7910173,6.250014 6.25,6.25 l 28.5,0 c 3.458969,0 6.25,-2.791016 6.25,-6.25 0,-2.341695 -1.329539,-4.297309 -3.25,-5.375 A 0.49355006,0.49355006 0 0 1 41.03125,25.28125 C 41.296896,24.523051 41.5,23.781945 41.5,23 c 0,-3.872985 -3.127013,-6.999986 -7,-7 -1.15242,0 -2.224568,0.353221 -3.21875,0.875 a 0.49355006,0.49355006 0 0 1 -0.6875,-0.3125 C 29.736966,13.642872 27.181639,11.5 24,11.5 Z" id="B" opacity="0.4" fill="none" stroke="#000"/>
  <path d="m 24,12.4375 c -2.752219,0 -4.938692,1.854565 -5.6875,4.40625 a 1.4371564,1.4371564 0 0 1 -2.03125,0.875 C 15.374371,17.24279 14.456089,16.9375 13.5,16.9375 c -3.362489,0 -6.0625122,2.700003 -6.0625,6.0625 0,0.616696 0.1524816,1.244397 0.40625,1.96875 a 1.4371564,1.4371564 0 0 1 -0.625,1.71875 C 5.565461,27.615264 4.4375,29.266408 4.4375,31.25 c 0,2.948486 2.3640211,5.312512 5.3125,5.3125 l 28.5,0 c 2.948468,0 5.3125,-2.364018 5.3125,-5.3125 0,-1.983592 -1.127961,-3.634736 -2.78125,-4.5625 a 1.4371564,1.4371564 0 0 1 -0.625,-1.71875 C 40.410015,24.24446 40.5625,23.616693 40.5625,23 c 0,-3.362486 -2.700008,-6.062488 -6.0625,-6.0625 -0.956089,0 -1.874371,0.30529 -2.78125,0.78125 a 1.4371564,1.4371564 0 0 1 -2.03125,-0.875 C 28.938692,14.292065 26.752219,12.4375 24,12.4375 Z" id="C" opacity="0.4" fill="none" stroke="url(#5)"/>
  <g mask="url(#8)" id="D">
   <path transform="matrix(1,0,0,1.3846154,11,-13.538462)" d="m 24,23.5 a 10,6.5 0 1 1 -20,0 10,6.5 0 1 1 20,0 z" id="L" opacity="0.094" fill="url(#6)" fill-rule="evenodd"/>
   <path transform="matrix(1,0,0,1.3846154,22,-9.538462)" d="m 24,23.5 a 10,6.5 0 1 1 -20,0 10,6.5 0 1 1 20,0 z" id="M" opacity="0.09" fill="url(#6)" fill-rule="evenodd"/>
  </g>
 </g>
 <metadata id="metadata9999">
  <rdf:RDF>
   <cc:Work>
    <dc:format>image/svg+xml</dc:format>
    <dc:type rdf:resource="http://purl.org/dc/dcmitype/StillImage"/>
    <dc:title>Ivy icon theme</dc:title>
    <cc:license rdf:resource="http://creativecommons.org/licenses/by-sa/4.0/"/>
    <dc:creator>
     <cc:Agent>
      <dc:title>Sixsixfive (sixsixfive.deviantart.com)</dc:title>
     </cc:Agent>
    </dc:creator>
    <dc:publisher>
     <cc:Agent>
      <dc:title>Sixsixfive (sixsixfive.deviantart.com)</dc:title>
     </cc:Agent>
    </dc:publisher>
    <dc:source>https://github.com/sixsixfive</dc:source>
    <dc:subject>
     <rdf:Bag>
      <rdf:li>ivy</rdf:li>
     </rdf:Bag>
    </dc:subject>
    <dc:contributor>
     <cc:Agent>
      <dc:title>ssf</dc:title>
     </cc:Agent>
    </dc:contributor>
    <dc:rights>
     <cc:Agent>
      <dc:title>Sixsixfive (sixisixfive.deviantart.com)</dc:title>
     </cc:Agent>
    </dc:rights>
    <dc:description>A simple icon theme published under CC-BY-SA_V4(http://creativecommons.org/licenses/by-sa/4.0)</dc:description>
    <dc:identifier>SSF</dc:identifier>
   </cc:Work>
  </rdf:RDF>
 </metadata>
 <!--Part of the Ivy icon them published under the CC-BY-SA_V4: http://creativecommons.org/licenses/by-sa/4.0 -->
</svg>
