<svg xmlns="http://www.w3.org/2000/svg" xmlns:svg="http://www.w3.org/2000/svg" xmlns:xlink="http://www.w3.org/1999/xlink" id="svg2" version="1.1" viewBox="0 0 48 48"><defs id="defs4"><linearGradient id="0" x2="0" y1="20" y2="32.08" gradientUnits="userSpaceOnUse"><stop id="stop7" stop-color="#66b03e"/><stop id="stop9" offset="1" stop-color="#a2d586"/></linearGradient><linearGradient id="1" x2="0" y1="31.92" y2="44" gradientUnits="userSpaceOnUse"><stop id="stop12" stop-color="#a868d4"/><stop id="stop14" offset="1" stop-color="#dabfed"/></linearGradient><linearGradient id="2" x1="9" x2="43" gradientUnits="userSpaceOnUse" xlink:href="#7"/><linearGradient id="3" x2="0" y1="32" y2="44.08" gradientUnits="userSpaceOnUse"><stop id="stop18" stop-color="#ed4c70"/><stop id="stop20" offset="1" stop-color="#f59fb2"/></linearGradient><linearGradient id="4" x2="0" y1="32" y2="44" gradientUnits="userSpaceOnUse"><stop id="stop23" stop-color="#e4ae4e"/><stop id="stop25" offset="1" stop-color="#eabf74"/></linearGradient><linearGradient id="5" x2="0" y1="20" y2="32.08" gradientUnits="userSpaceOnUse"><stop id="stop28" stop-color="#5288d1"/><stop id="stop30" offset="1" stop-color="#8cb0e1"/></linearGradient><linearGradient id="6" x2="0" y1="20" y2="32" gradientUnits="userSpaceOnUse"><stop id="stop33" stop-color="#eed45a"/><stop id="stop35" offset="1" stop-color="#f3e28e"/></linearGradient><linearGradient id="7"><stop id="stop38" stop-color="#fff"/><stop id="stop40" offset="1" stop-color="#fff" stop-opacity="0"/></linearGradient><linearGradient id="8" x2="0" y1="8" y2="20" gradientUnits="userSpaceOnUse"><stop id="stop43" stop-color="#d02604"/><stop id="stop45" offset="1" stop-color="#fc775d"/></linearGradient><linearGradient id="9" x2="0" y1="8" y2="20" gradientUnits="userSpaceOnUse"><stop id="stop48" stop-color="#ffd506"/><stop id="stop50" offset="1" stop-color="#ffe773"/></linearGradient><linearGradient id="A" x2="0" y1="7.919" y2="20" gradientUnits="userSpaceOnUse"><stop id="stop53" stop-color="#ff8b36"/><stop id="stop55" offset="1" stop-color="#ffb178"/></linearGradient><linearGradient id="B" x2="0" y1="4.906" y2="39" gradientUnits="userSpaceOnUse" xlink:href="#7"/></defs><path id="path58" d="M 6,32.92 H42 V45 H6 z" opacity=".144"/><path id="path60" fill="url(#8)" d="M 6,7.919 H18 V19.999 H6 z"/><path id="path62" fill="url(#6)" d="M 6,19.92 H18 V32 H6 z"/><path id="path64" fill="url(#1)" d="M 6,31.92 H18 V44 H6 z"/><path id="path66" fill="url(#3)" d="M 18,32 H30 V44.08 H18 z"/><path id="path68" fill="url(#4)" d="M 30,32 H42 V44.08 H30 z"/><path id="path70" fill="url(#5)" d="M 30,20 H42 V32.08 H30 z"/><path id="path72" fill="url(#0)" d="M 18,20 H30 V32.08 H18 z"/><path id="path74" fill="url(#A)" d="M 18,8 H30 V20.08 H18 z"/><path id="path76" fill="url(#9)" d="M 30,7.919 H42 V19.999 H30 z"/><g id="g78" fill="none" transform="translate(2,4)"><path id="path80" stroke="#000" d="m 4.5312,4.4375 0,35.0312 34.9375,0 0,-35.0312 -34.9375,0 z" opacity=".5"/><path id="path82" stroke="url(#B)" d="m 5.5,5.4062 0,33.0938 33,0 0,-33.0938 -33,0 z" opacity=".7"/></g><path id="path84" d="M 7,19 H41 V20 H7 z" opacity=".4"/><path id="path86" d="M 7,31 H41 V32 H7 z" opacity=".4"/><g id="g88" fill="#fff"><path id="path90" d="m 7,32 34,0 0,1 -34,0 z" opacity=".4"/><path id="path92" d="m 7,20 34,0 0,1 -34,0 z" opacity=".4"/></g><g id="g94" transform="matrix(0,1,-1,0,0,0)"><path id="path96" d="m 8,-19 35,0 0,1 -35,0 z" opacity=".12"/><path id="path98" fill="url(#2)" d="m 9,-18 34,0 0,1 -34,0 z" opacity=".4"/><path id="path100" d="m 8,-31 35,0 0,1 -35,0 z" opacity=".12"/><path id="path102" fill="url(#2)" d="m 9,-30 34,0 0,1 -34,0 z" opacity=".4"/></g><metadata id="metadata9999"/></svg>