<?xml version="1.0" encoding="UTF-8" standalone="no"?>
<svg xmlns:dc="http://purl.org/dc/elements/1.1/" xmlns:cc="http://creativecommons.org/ns#" xmlns:rdf="http://www.w3.org/1999/02/22-rdf-syntax-ns#" xmlns:svg="http://www.w3.org/2000/svg" xmlns="http://www.w3.org/2000/svg" xmlns:xlink="http://www.w3.org/1999/xlink" viewBox="0 0 48 48" id="svg2" version="1.1">
 <defs id="defs4">
  <linearGradient id="0" y1="20" y2="32.08" x2="0" gradientUnits="userSpaceOnUse">
   <stop stop-color="#66b03e" id="stop7"/>
   <stop offset="1" stop-color="#a2d586" id="stop9"/>
  </linearGradient>
  <linearGradient id="1" y1="31.92" y2="44" x2="0" gradientUnits="userSpaceOnUse">
   <stop stop-color="#a868d4" id="stop12"/>
   <stop offset="1" stop-color="#dabfed" id="stop14"/>
  </linearGradient>
  <linearGradient id="2" xlink:href="#7" x1="9" x2="43" gradientUnits="userSpaceOnUse"/>
  <linearGradient id="3" y1="32" y2="44.08" x2="0" gradientUnits="userSpaceOnUse">
   <stop stop-color="#ed4c70" id="stop18"/>
   <stop offset="1" stop-color="#f59fb2" id="stop20"/>
  </linearGradient>
  <linearGradient id="4" y1="32" y2="44" x2="0" gradientUnits="userSpaceOnUse">
   <stop stop-color="#e4ae4e" id="stop23"/>
   <stop offset="1" stop-color="#eabf74" id="stop25"/>
  </linearGradient>
  <linearGradient id="5" y1="20" y2="32.08" x2="0" gradientUnits="userSpaceOnUse">
   <stop stop-color="#5288d1" id="stop28"/>
   <stop offset="1" stop-color="#8cb0e1" id="stop30"/>
  </linearGradient>
  <linearGradient id="6" y1="20" y2="32" x2="0" gradientUnits="userSpaceOnUse">
   <stop stop-color="#eed45a" id="stop33"/>
   <stop offset="1" stop-color="#f3e28e" id="stop35"/>
  </linearGradient>
  <linearGradient id="7">
   <stop stop-color="#fff" id="stop38"/>
   <stop offset="1" stop-color="#fff" stop-opacity="0" id="stop40"/>
  </linearGradient>
  <linearGradient id="8" y1="8" y2="20" x2="0" gradientUnits="userSpaceOnUse">
   <stop stop-color="#d02604" id="stop43"/>
   <stop offset="1" stop-color="#fc775d" id="stop45"/>
  </linearGradient>
  <linearGradient id="9" y1="8" y2="20" x2="0" gradientUnits="userSpaceOnUse">
   <stop stop-color="#ffd506" id="stop48"/>
   <stop offset="1" stop-color="#ffe773" id="stop50"/>
  </linearGradient>
  <linearGradient id="A" y1="7.919" y2="20" x2="0" gradientUnits="userSpaceOnUse">
   <stop stop-color="#ff8b36" id="stop53"/>
   <stop offset="1" stop-color="#ffb178" id="stop55"/>
  </linearGradient>
  <linearGradient id="B" xlink:href="#7" y1="4.906" y2="39" x2="0" gradientUnits="userSpaceOnUse"/>
 </defs>
 <path opacity="0.144" d="M 6,32.92 H42 V45 H6 z" id="path58"/>
 <path fill="url(#8)" d="M 6,7.919 H18 V19.999 H6 z" id="path60"/>
 <path fill="url(#6)" d="M 6,19.92 H18 V32 H6 z" id="path62"/>
 <path fill="url(#1)" d="M 6,31.92 H18 V44 H6 z" id="path64"/>
 <path fill="url(#3)" d="M 18,32 H30 V44.08 H18 z" id="path66"/>
 <path fill="url(#4)" d="M 30,32 H42 V44.08 H30 z" id="path68"/>
 <path fill="url(#5)" d="M 30,20 H42 V32.08 H30 z" id="path70"/>
 <path fill="url(#0)" d="M 18,20 H30 V32.08 H18 z" id="path72"/>
 <path fill="url(#A)" d="M 18,8 H30 V20.08 H18 z" id="path74"/>
 <path fill="url(#9)" d="M 30,7.919 H42 V19.999 H30 z" id="path76"/>
 <g transform="translate(2,4)" id="g78" fill="none">
  <path d="m 4.5312,4.4375 0,35.0312 34.9375,0 0,-35.0312 -34.9375,0 z" id="path80" opacity="0.5" stroke="#000"/>
  <path d="m 5.5,5.4062 0,33.0938 33,0 0,-33.0938 -33,0 z" id="path82" opacity="0.7" stroke="url(#B)"/>
 </g>
 <path opacity="0.4" d="M 7,19 H41 V20 H7 z" id="path84"/>
 <path opacity="0.4" d="M 7,31 H41 V32 H7 z" id="path86"/>
 <g id="g88" fill="#fff">
  <path d="m 7,32 34,0 0,1 -34,0 z" id="path90" opacity="0.4"/>
  <path d="m 7,20 34,0 0,1 -34,0 z" id="path92" opacity="0.4"/>
 </g>
 <g transform="matrix(0,1,-1,0,0,0)" id="g94">
  <path d="m 8,-19 35,0 0,1 -35,0 z" id="path96" opacity="0.12"/>
  <path d="m 9,-18 34,0 0,1 -34,0 z" id="path98" opacity="0.4" fill="url(#2)"/>
  <path d="m 8,-31 35,0 0,1 -35,0 z" id="path100" opacity="0.12"/>
  <path d="m 9,-30 34,0 0,1 -34,0 z" id="path102" opacity="0.4" fill="url(#2)"/>
 </g>
 <metadata id="metadata9999">
  <rdf:RDF>
   <cc:Work>
    <dc:format>image/svg+xml</dc:format>
    <dc:type rdf:resource="http://purl.org/dc/dcmitype/StillImage"/>
    <dc:title>Ivy icon theme</dc:title>
    <cc:license rdf:resource="http://creativecommons.org/licenses/by-sa/4.0/"/>
    <dc:creator>
     <cc:Agent>
      <dc:title>Sixsixfive (sixsixfive.deviantart.com)</dc:title>
     </cc:Agent>
    </dc:creator>
    <dc:publisher>
     <cc:Agent>
      <dc:title>Sixsixfive (sixsixfive.deviantart.com)</dc:title>
     </cc:Agent>
    </dc:publisher>
    <dc:source>https://github.com/sixsixfive</dc:source>
    <dc:subject>
     <rdf:Bag>
      <rdf:li>ivy</rdf:li>
     </rdf:Bag>
    </dc:subject>
    <dc:contributor>
     <cc:Agent>
      <dc:title>ssf</dc:title>
     </cc:Agent>
    </dc:contributor>
    <dc:rights>
     <cc:Agent>
      <dc:title>Sixsixfive (sixisixfive.deviantart.com)</dc:title>
     </cc:Agent>
    </dc:rights>
    <dc:description>A simple icon theme published under CC-BY-SA_V4(http://creativecommons.org/licenses/by-sa/4.0)</dc:description>
    <dc:identifier>SSF</dc:identifier>
   </cc:Work>
  </rdf:RDF>
 </metadata>
 <!--Part of the Ivy icon them published under the CC-BY-SA_V4: http://creativecommons.org/licenses/by-sa/4.0 -->
</svg>
