<svg xmlns="http://www.w3.org/2000/svg" xmlns:svg="http://www.w3.org/2000/svg" xmlns:xlink="http://www.w3.org/1999/xlink" id="svg2" version="1.1" viewBox="0 0 48 48"><defs id="0"><linearGradient id="F"><stop id="T" stop-color="#ffef9f"/><stop id="U" offset="1" stop-color="#ffd506"/></linearGradient><linearGradient id="H"><stop id="Z" stop-color="#fff" stop-opacity=".4"/><stop id="a" offset="1" stop-color="#fff" stop-opacity="0"/></linearGradient><linearGradient id="I"><stop id="b"/><stop id="c" offset="1" stop-opacity="0"/></linearGradient><linearGradient id="J"><stop id="d" stop-color="#bec2c2"/><stop id="e" offset=".5" stop-color="#ddd"/><stop id="f" offset="1" stop-color="#bec2c2"/></linearGradient><linearGradient id="K"><stop id="g" stop-color="#fff"/><stop id="h" offset="1" stop-color="#fff" stop-opacity="0"/></linearGradient><filter id="L" color-interpolation-filters="sRGB"><feGaussianBlur id="i" stdDeviation=".253"/></filter><filter id="M" color-interpolation-filters="sRGB"><feGaussianBlur id="j" stdDeviation=".338"/></filter><linearGradient id="N" x2="0" y1="1007.63" y2="1047.38" gradientTransform="matrix(1 0 0 1 1.71875 -1003.4872)" gradientUnits="userSpaceOnUse" xlink:href="#K"/><radialGradient id="O" cx="22.281" cy="45.813" r="7" gradientTransform="matrix(1 0.00000004 -0.00000006 1.4910714 1.718753 -23.40346)" gradientUnits="userSpaceOnUse" xlink:href="#I"/><linearGradient id="P" x1="15.281" x2="29.28" gradientTransform="matrix(1 0 0 1 1.71875 0.875)" gradientUnits="userSpaceOnUse" xlink:href="#J"/><linearGradient id="Q" x2="0" y1="1019.27" y2="1043.02" gradientTransform="matrix(1 0 0 1 1.71875 -1003.4872)" gradientUnits="userSpaceOnUse" xlink:href="#H"/><radialGradient id="S" cx="16.376" cy="6.127" r="15.5" gradientTransform="matrix(0.00000002 1.0932153 -0.82595647 0.00000004 29.06059 -5.28213)" gradientUnits="userSpaceOnUse" xlink:href="#F"/></defs><path id="1" d="m 24,4.0935 c -8.560414,0 -15.5,7.2634 -15.5,16.2187 0,6.3122 3.467045,11.7586 8.5,14.4375 l 0,3.6875 c 0,1.5372 0.815461,2.8783 2.03125,3.625 0.175867,2.1449 1.964463,3.8438 4.15625,3.8438 l 1.65625,0 c 2.191787,0 3.949133,-1.6989 4.125,-3.8438 C 30.184539,41.3155 31,39.9744 31,38.4372 l 0,-3.6875 C 36.042526,32.0742 39.5,26.6318 39.5,20.3122 39.5,11.3569 32.560414,4.0935 24,4.0935 z" opacity=".1"/><path id="2" fill="none" stroke="#000" d="m 22.28125,1006.581 c -8.560414,0 -15.5,7.2634 -15.5,16.2187 0,6.3122 3.467045,11.7586 8.5,14.4375 l 0,3.6875 c 0,1.5372 0.815461,2.8783 2.03125,3.625 0.175867,2.1449 1.964463,3.8438 4.15625,3.8438 l 1.65625,0 c 2.191787,0 3.949133,-1.6989 4.125,-3.8438 1.215789,-0.7467 2.03125,-2.0878 2.03125,-3.625 l 0,-3.6875 c 5.042526,-2.6755 8.5,-8.1179 8.5,-14.4375 0,-8.9553 -6.939586,-16.2187 -15.5,-16.2187 z"/><path id="3" fill="url(#S)" d="m 24,3.0938 c -8.560414,0 -15.5,7.2634 -15.5,16.2187 0,6.3122 3.467045,11.7586 8.5,14.4375 l 0,3.6875 c 0,1.5372 0.815461,2.8783 2.03125,3.625 0.175867,2.1449 1.964463,3.8438 4.15625,3.8438 l 1.65625,0 c 2.191787,0 3.949133,-1.6989 4.125,-3.8438 C 30.184539,40.3158 31,38.9747 31,37.4375 L 31,33.75 C 36.042526,31.0745 39.5,25.6321 39.5,19.3125 39.5,10.3572 32.560414,3.0938 24,3.0938 z"/><path id="4" fill="none" stroke="#000" d="m 24,15.584 c -2.761424,0 -5,2.2386 -5,5 0,2.4707 1.801097,4.5328 4.15625,4.9375 l 0,2.4688 0,7.0312 0,4.3125 2,0 0,-4.3125 0,-7.0312 0,-2.5625 C 27.351918,24.9001 29,22.9416 29,20.584 29,18.2864 27.450205,16.3507 25.338944,15.7653 24.912795,15.6471 24.463771,15.584 24,15.584 z m 0,2.0313 c 1.640355,0 2.96875,1.3283 2.96875,2.9687 0,1.6404 -1.328395,2.9688 -2.96875,2.9688 -1.640355,0 -2.96875,-1.3284 -2.96875,-2.9688 0,-1.6404 1.328395,-2.9687 2.96875,-2.9687 z" filter="url(#M)" opacity=".06"/><path id="5" fill="url(#Q)" d="m 24,15.787 c -2.761424,0 -5,2.2386 -5,5 0,2.4707 1.801097,4.5328 4.15625,4.9375 l 0,2.4688 0,7.0312 0,4.3125 2,0 0,-4.3125 0,-7.0312 0,-2.5625 C 27.351918,25.1031 29,23.1446 29,20.787 c 0,-2.7614 -2.238576,-5 -5,-5 z m 0,2.0313 c 1.640355,0 2.96875,1.3283 2.96875,2.9687 0,1.6404 -1.328395,2.9688 -2.96875,2.9688 -1.640355,0 -2.96875,-1.3284 -2.96875,-2.9688 0,-1.6404 1.328395,-2.9687 2.96875,-2.9687 z" filter="url(#L)"/><path id="6" fill="url(#P)" d="m 17,34.4688 0,2.9687 c 0,1.5372 0.815461,2.8783 2.03125,3.625 0.175867,2.1449 1.964463,3.8438 4.15625,3.8438 l 1.65625,0 c 2.191787,0 3.949133,-1.6989 4.125,-3.8438 C 30.184539,40.3158 31,38.9747 31,37.4375 l 0,-2.9687 -0.375,0 c -1.476079,1.3709 -3.893207,2.25 -6.625,2.25 -2.731793,0 -5.148921,-0.8791 -6.625,-2.25 l -0.375,0 z"/><path id="7" fill="url(#O)" d="m 17,34.4688 0,2.9687 c 0,1.5372 0.815461,2.8783 2.03125,3.625 0.175867,2.1449 1.964463,3.8438 4.15625,3.8438 l 1.65625,0 c 2.191787,0 3.949133,-1.6989 4.125,-3.8438 C 30.184539,40.3158 31,38.9747 31,37.4375 l 0,-2.9687 -0.375,0 c -1.476079,1.3709 -3.893207,2.25 -6.625,2.25 -2.731793,0 -5.148921,-0.8791 -6.625,-2.25 l -0.375,0 z" opacity=".6"/><path id="8" fill="none" stroke="url(#N)" d="m 24,4.6378 c -7.701565,0 -13.96875,6.5166 -13.96875,14.6875 0,5.7562 3.152708,10.68 7.6875,13.0937 a 1.51847,1.51847 0 0 1 0.8125,1.3438 l 0,3.6875 c 0,1.0002 0.498308,1.8629 1.28125,2.3437 a 1.51847,1.51847 0 0 1 0.71875,1.1563 c 0.112687,1.3743 1.249004,2.4375 2.65625,2.4375 l 1.65625,0 c 1.407246,0 2.511116,-1.0486 2.625,-2.4375 A 1.51847,1.51847 0 0 1 28.1875,39.794 c 0.782942,-0.4808 1.28125,-1.3435 1.28125,-2.3437 l 0,-3.6875 a 1.51847,1.51847 0 0 1 0.8125,-1.3438 c 4.543309,-2.4106 7.6875,-7.3279 7.6875,-13.0937 C 37.96875,11.1544 31.701565,4.6378 24,4.6378 z" opacity=".4"/><path id="9" fill="none" stroke="#000" d="m 17.78575,34.375 c 3.848938,2.4768 8.567001,2.4334 12.433,0" opacity=".4"/><path id="A" fill="none" stroke="#000" d="m 17.78575,36.8747 c 3.848938,2.4767 8.567001,2.4333 12.433,0" opacity=".4"/><path id="B" fill="none" stroke="#000" d="m 19.193225,40.6863 c 4.24479,1.1132 5.092297,1.1138 9.398132,0.088" opacity=".4"/><path id="C" fill="none" stroke="#fff" d="m 17.78575,35.4747 c 3.848938,2.4767 8.567001,2.4333 12.433,0" opacity=".2"/><path id="D" fill="none" stroke="#fff" d="m 17.78575,37.9747 c 3.848938,2.4767 8.567001,2.4333 12.433,0" opacity=".2"/><path id="E" fill="none" stroke="#000" d="m 24,3.6378 c -8.259626,0 -14.96875,7.0069 -14.96875,15.6875 0,6.1175 3.360263,11.3827 8.21875,13.9687 a 0.53180141,0.53180141 0 0 1 0.28125,0.4688 l 0,3.6875 c 0,1.3491 0.717054,2.5339 1.78125,3.1875 a 0.53180141,0.53180141 0 0 1 0.25,0.4062 c 0.15374,1.8751 1.707976,3.3438 3.625,3.3438 l 1.65625,0 c 1.917024,0 3.439591,-1.4636 3.59375,-3.3438 a 0.53180141,0.53180141 0 0 1 0.25,-0.4062 c 1.064196,-0.6536 1.78125,-1.8384 1.78125,-3.1875 l 0,-3.6875 A 0.53180141,0.53180141 0 0 1 30.75,33.294 C 35.617689,30.7113 38.96875,25.451 38.96875,19.3253 38.96875,10.6447 32.259626,3.6378 24,3.6378 z" opacity=".2"/><metadata id="metadata9999"/></svg>