<svg xmlns="http://www.w3.org/2000/svg" xmlns:svg="http://www.w3.org/2000/svg" id="svg2" version="1.1" viewBox="0 0 48 48"><defs id="defs4"><linearGradient id="0" x2="0" y1="3" y2="44" gradientUnits="userSpaceOnUse"><stop id="stop7" stop-color="#dedede"/><stop id="stop9" offset="1" stop-color="#f4f4f4"/></linearGradient><linearGradient id="1" x1="40" x2="39.906" y1="3" y2="42.969" gradientUnits="userSpaceOnUse"><stop id="stop12" stop-color="#fff"/><stop id="stop14" offset="1" stop-color="#fff" stop-opacity="0"/></linearGradient><linearGradient id="2" x2="0" y1="10.765" y2="40.485" gradientTransform="matrix(-1.18474,0,0,1.27706,57,-8.727)" gradientUnits="userSpaceOnUse"><stop id="M" stop-color="#fff"/><stop id="N" offset="1" stop-color="#fff" stop-opacity="0"/></linearGradient><mask id="3"><path id="O" fill="#fff" d="m 3.9828,24 a 20,20 0 0 0 40,0 20,20 0 1 0 -40,0 z"/></mask><mask id="4"><path id="P" fill="#fff" d="m 3.9828,24 a 20,20 0 0 0 40,0 20,20 0 1 0 -40,0 z"/></mask><mask id="5"><path id="Q" fill="#fff" d="m 3.9828,24 a 20,20 0 0 0 40,0 20,20 0 1 0 -40,0 z"/></mask><mask id="6"><path id="R" fill="#fff" d="m 3.9828,24 a 20,20 0 0 0 40,0 20,20 0 1 0 -40,0 z"/></mask><mask id="7"><path id="S" fill="#fff" d="m 3.9828,24 a 20,20 0 0 0 40,0 20,20 0 1 0 -40,0 z"/></mask><mask id="8"><path id="T" fill="#fff" d="m 3.9828,24 a 20,20 0 0 0 40,0 20,20 0 1 0 -40,0 z"/></mask><mask id="9"><path id="U" fill="#fff" d="m 3.9828,24 a 20,20 0 0 0 40,0 20,20 0 1 0 -40,0 z"/></mask><mask id="A"><path id="V" fill="#fff" d="m 3.9828,24 a 20,20 0 0 0 40,0 20,20 0 1 0 -40,0 z"/></mask><filter id="B" width="2.031" height="2.031" x="-.515" y="-.515" color-interpolation-filters="sRGB"><feGaussianBlur id="W" stdDeviation="5.153"/></filter><clipPath id="clipPath3381" clipPathUnits="userSpaceOnUse"><rect style="fill:#fff" id="rect3383" width="34.951" height="42" x="-.714" y="-6.937" rx="1.209" ry="1.209"/></clipPath></defs><rect id="rect16" width="34.951" height="42" x="6" y="3" opacity=".1" rx="1.209" ry="1.209"/><rect id="rect18" width="34.951" height="42" x="5.986" y="2" fill="url(#0)" rx="1.209" ry="1.209"/><g id="1-4" clip-path="url(#clipPath3381)" mask="none" transform="translate(6.6998651,8.9371537)"><path id="C" d="m 3.9828,25 a 20,20 0 0 0 40,0 20,20 0 1 0 -40,0 z" opacity=".1"/><path id="D" fill="#ffd506" d="M 24,0 48,0 C 24,24 48,0 24,24 Z" filter="url(#B)" mask="url(#5)"/><path id="E" fill="#66b03e" d="M 24,0 0,0 c 24,24 0,0 24,24 z" filter="url(#B)" mask="url(#4)"/><path id="F" fill="#ee445f" d="m 24,48 24,0 C 24,24 48,48 24,24 Z" filter="url(#B)" mask="url(#8)"/><path id="G" fill="#c268d4" d="M 24,48 0,48 C 24,24 0,48 24,24 Z" filter="url(#B)" mask="url(#9)"/><path id="H" fill="#52a3d1" d="M 0,24 0,48 C 24,24 0,48 24,24 Z" filter="url(#B)" mask="url(#A)"/><path id="I" fill="#3eb084" d="M 0,24 0,0 c 24,24 0,0 24,24 z" filter="url(#B)" mask="url(#3)"/><path id="J" fill="#d02604" d="m 48,24 0,24 C 24,24 48,48 24,24 Z" filter="url(#B)" mask="url(#7)"/><path id="K" fill="#ff8b36" d="M 48,24 48,0 C 24,24 48,0 24,24 Z" filter="url(#B)" mask="url(#6)"/><g id="L" fill="none"><path id="X" stroke="#000" d="m 23.9762,4.5222 c 10.7992,0 19.5482,8.7394 19.5482,19.4751 0,10.7357 -8.74902,19.4751 -19.5482,19.4751 -10.7992,0 -19.5112,-8.73812 -19.5112,-19.4751 0,-10.737 8.712,-19.4751 19.5112,-19.4751 z" opacity=".4"/><path id="Y" stroke="url(#2)" d="m 23.9762,5.5199 c 10.3443,0 18.6226,8.31366 18.6226,18.4774 0,10.1637 -8.27831,18.4774 -18.6226,18.4774 -10.3443,0 -18.5856,-8.31002 -18.5856,-18.4774 0,-10.1674 8.24128,-18.4774 18.5856,-18.4774 z" opacity=".6"/></g></g><g id="g20" fill="none"><path id="path22" stroke="#000" d="M 7.1875,2.5 C 6.783721,2.5 6.5,2.799839 6.5,3.21875 l 0,39.5625 C 6.5,43.20016 6.783721,43.5 7.1875,43.5 l 32.53125,0 c 0.40378,0 0.71875,-0.31497 0.71875,-0.71875 l 0,-39.5625 C 40.4375,2.814971 40.12253,2.5 39.71875,2.5 L 7.1875,2.5 Z" opacity=".4"/><path id="path24" stroke="url(#1)" d="m 7.5312,3.5312 0,38.9375 31.875,0 0,-38.9375 -31.875,0 z" opacity=".78"/></g><metadata id="metadata9999"/></svg>