<svg xmlns="http://www.w3.org/2000/svg" xmlns:svg="http://www.w3.org/2000/svg" id="svg2" version="1.1" viewBox="0 0 48 48"><defs id="defs4"><linearGradient id="0" x1="7.298" x2="5.671" y1="21.404" y2="56.21" gradientUnits="userSpaceOnUse"><stop id="stop7" stop-color="#5288d1"/><stop id="stop9" offset="1" stop-color="#2b66b5"/></linearGradient><linearGradient id="1" x1="43.917" x2="43.928" y1="7.06" y2="41.3" gradientUnits="userSpaceOnUse"><stop id="stop12" stop-color="#fff"/><stop id="stop14" offset="1" stop-color="#fff" stop-opacity="0"/></linearGradient><linearGradient id="2" x2="0" y1="10" y2="38" gradientUnits="userSpaceOnUse"><stop id="stop17" stop-color="#262626"/><stop id="stop19" offset="1" stop-color="#5c5c5c"/></linearGradient><mask id="3"><path id="path22" fill="#fff" d="M 7 10 V 38 H 41 V 10 H 7 z"/></mask><mask id="4"><path id="path25" fill="#fff" d="M 7 10 V 38 H 41 V 10 H 7 z"/></mask></defs><rect id="rect27" width="42" height="36" x="3" y="7" opacity=".1" rx="2" ry="2"/><rect id="rect29" width="42" height="36" x="3" y="6" fill="#ddd" rx="2" ry="2"/><path id="path31" fill="url(#2)" d="M 7 10 V 38 H 41 V 10 H 7 z"/><path id="path33" stroke="#000" d="M 9.1875,20.125 C 8.727918,20.1933 8.380849,20.53819 8.34375,21 c 0.00101,-0.01262 0.0017,3.59e-4 0,0.03125 -1.638e-4,0.0066 0,0.02469 0,0.03125 v 0.03125 a 0.163047,0.163047 0 0 1 0,0.03125 l -2.125,13.75 v 0.03125 c -3.692e-4,0.0098 0,0.02139 0,0.03125 3.692e-4,0.0098 -7.378e-4,0.02142 0,0.03125 v 1.65625 1.6875 c 1.697e-4,0.0064 -3.273e-4,0.02482 0,0.03125 6.418e-4,0.0064 -7.986e-4,0.02486 0,0.03125 9.548e-4,0.0064 -0.00111,0.0249 0,0.03125 0.00111,0.0063 0.029985,-0.0063 0.03125,0 0.00142,0.0063 -0.00157,0.025 0,0.03125 0.00188,0.0062 -0.00203,0.02514 0,0.03125 0.00232,0.006 -0.00247,0.0253 0,0.03125 0.00262,0.0059 0.028491,-0.0058 0.03125,0 0.00276,0.0058 -0.0029,0.0255 0,0.03125 0.00318,0.0056 -0.00331,0.02573 0,0.03125 0.00331,0.0055 0.027801,-0.0054 0.03125,0 0.00358,0.0054 -0.00371,0.02598 0,0.03125 0.00396,0.0051 0.027163,-0.005 0.03125,0 0.00409,0.005 -0.00421,0.02637 0,0.03125 0.00444,0.0047 0.026695,-0.0046 0.03125,0 0.00455,0.0046 -0.00466,0.02681 0,0.03125 0.00488,0.0042 0.026272,-0.0041 0.03125,0 0.00498,0.0041 -0.00508,0.02729 0,0.03125 0.00526,0.0037 0.025896,-0.0036 0.03125,0 0.00544,0.0034 -0.00552,0.02793 0,0.03125 0.00552,0.0033 0.025648,-0.0032 0.03125,0 0.00575,0.0029 0.025429,-0.0028 0.03125,0 0.00582,0.0028 -0.00589,0.02864 0,0.03125 0.00595,0.0025 0.025243,-0.0023 0.03125,0 0.00611,0.002 0.025088,-0.0019 0.03125,0 0.00625,0.0016 0.024967,-0.0014 0.03125,0 0.00632,0.0013 -0.00634,0.03014 0,0.03125 0.00634,0.0011 0.02488,-9.55e-4 0.03125,0 0.00639,7.99e-4 0.024841,-6.42e-4 0.03125,0 0.00643,3.27e-4 0.024811,-1.7e-4 0.03125,0 h 34.625 c 0.0064,-1.7e-4 0.02482,3.27e-4 0.03125,0 0.0064,-6.42e-4 0.02486,7.99e-4 0.03125,0 0.0064,-9.55e-4 0.0249,0.0011 0.03125,0 0.0063,-0.0011 -0.0063,-0.02999 0,-0.03125 0.0063,-0.0014 0.025,0.0016 0.03125,0 0.0062,-0.0019 0.02514,0.002 0.03125,0 0.006,-0.0023 0.0253,0.0025 0.03125,0 0.0059,-0.0026 -0.0058,-0.02849 0,-0.03125 0.0058,-0.0028 0.0255,0.0029 0.03125,0 0.0056,-0.0032 0.02573,0.0033 0.03125,0 0.0055,-0.0033 -0.0054,-0.0278 0,-0.03125 0.0054,-0.0036 0.02598,0.0037 0.03125,0 0.0051,-0.004 -0.005,-0.02716 0,-0.03125 0.005,-0.0041 0.02637,0.0042 0.03125,0 0.0047,-0.0044 -0.0046,-0.02669 0,-0.03125 0.0046,-0.0046 0.02681,0.0047 0.03125,0 0.0042,-0.0049 -0.0041,-0.02627 0,-0.03125 0.0041,-0.005 0.02729,0.0051 0.03125,0 0.0037,-0.0053 -0.0036,-0.0259 0,-0.03125 0.0034,-0.0054 0.02793,0.0055 0.03125,0 0.0033,-0.0055 -0.0032,-0.02565 0,-0.03125 0.0029,-0.0058 -0.0028,-0.02543 0,-0.03125 0.0028,-0.0058 0.02864,0.0059 0.03125,0 0.0025,-0.0059 -0.0023,-0.02524 0,-0.03125 0.002,-0.0061 -0.0019,-0.02509 0,-0.03125 0.0016,-0.0062 -0.0014,-0.02497 0,-0.03125 0.0013,-0.0063 0.03014,0.0063 0.03125,0 0.0011,-0.0063 -9.55e-4,-0.02488 0,-0.03125 7.99e-4,-0.0064 -6.42e-4,-0.02484 0,-0.03125 3.27e-4,-0.0064 -1.7e-4,-0.02481 0,-0.03125 v -1.75 c -1.7e-4,-0.0064 3.27e-4,-0.02482 0,-0.03125 -6.42e-4,-0.0064 7.99e-4,-0.02486 0,-0.03125 -9.55e-4,-0.0064 0.0011,-0.0249 0,-0.03125 -0.0011,-0.0063 -0.02999,0.0063 -0.03125,0 -0.0014,-0.0063 0.0016,-0.025 0,-0.03125 -0.0019,-0.0062 0.002,-0.02514 0,-0.03125 -0.0023,-0.006 0.0025,-0.0253 0,-0.03125 -0.0026,-0.0059 -0.02849,0.0058 -0.03125,0 -0.0028,-0.0058 0.0029,-0.0255 0,-0.03125 -0.0032,-0.0056 0.0033,-0.02573 0,-0.03125 -0.0033,-0.0055 -0.0278,0.0054 -0.03125,0 -0.0036,-0.0054 0.0037,-0.02598 0,-0.03125 -0.004,-0.0051 -0.02716,0.005 -0.03125,0 -0.0041,-0.005 0.0042,-0.02637 0,-0.03125 -0.0044,-0.0047 -0.02669,0.0046 -0.03125,0 -0.0046,-0.0046 0.0047,-0.02681 0,-0.03125 -0.0049,-0.0042 -0.02627,0.0041 -0.03125,0 -0.005,-0.0041 0.0051,-0.02729 0,-0.03125 -0.0053,-0.0037 -0.0259,0.0036 -0.03125,0 -0.0054,-0.0034 0.0055,-0.02793 0,-0.03125 -0.0055,-0.0033 -0.02565,0.0032 -0.03125,0 -0.0058,-0.0029 -0.02543,0.0028 -0.03125,0 -0.0058,-0.0028 0.0059,-0.02864 0,-0.03125 -0.0059,-0.0025 -0.02524,0.0023 -0.03125,0 -0.0061,-0.002 -0.02509,0.0019 -0.03125,0 -0.0062,-0.0016 -0.02497,0.0014 -0.03125,0 -0.0063,-0.0013 0.0063,-0.03014 0,-0.03125 -0.0063,-0.0011 -0.02488,9.55e-4 -0.03125,0 -0.0064,-7.99e-4 -0.02484,6.42e-4 -0.03125,0 -0.0064,-3.27e-4 -0.02481,1.7e-4 -0.03125,0 H 40.625 a 0.163047,0.163047 0 0 1 -0.03125,0 0.163047,0.163047 0 0 1 -0.03125,0 A 0.163047,0.163047 0 0 1 40.53125,36.0625 0.163047,0.163047 0 0 1 40.5,36.03125 0.163047,0.163047 0 0 1 40.46875,36 a 0.163047,0.163047 0 0 1 0,-0.03125 l -1.25,-4.375 c -0.004,-0.01991 -3.38e-4,-0.02097 0,-0.03125 -0.120338,-0.529156 -0.587333,-0.850812 -1.125,-0.75 -0.517313,0.097 -0.803254,0.540695 -0.75,1.0625 a 0.163047,0.163047 0 0 1 0,0.0625 0.163047,0.163047 0 0 1 0,0.03125 0.163047,0.163047 0 0 1 -0.03125,0 0.163047,0.163047 0 0 1 0,0.03125 v 0.03125 0.03125 a 0.163047,0.163047 0 0 1 0,0.03125 0.163047,0.163047 0 0 1 0,0.03125 0.163047,0.163047 0 0 1 -0.03125,0.03125 0.163047,0.163047 0 0 1 -0.03125,0.03125 0.163047,0.163047 0 0 1 -0.03125,0.03125 0.163047,0.163047 0 0 1 -0.03125,0 0.163047,0.163047 0 0 1 -0.03125,0 0.163047,0.163047 0 0 1 -0.03125,0 0.163047,0.163047 0 0 1 -0.03125,0 A 0.163047,0.163047 0 0 1 37.0625,32.1875 0.163047,0.163047 0 0 1 37.03125,32.15625 0.163047,0.163047 0 0 1 37,32.125 v -0.03125 c -0.0082,-0.01201 -0.02272,-0.01969 -0.03125,-0.03125 -0.298513,-0.404534 -0.809721,-0.525551 -1.25,-0.28125 l -5.3438,2.9375 a 0.163047,0.163047 0 0 1 -0.03125,0 0.163047,0.163047 0 0 1 -0.03125,0 0.163047,0.163047 0 0 1 -0.0625,0 0.163047,0.163047 0 0 1 -0.03125,0 0.163047,0.163047 0 0 1 -0.03125,-0.03125 0.163047,0.163047 0 0 1 -0.03125,-0.03125 0.163047,0.163047 0 0 1 -0.03125,-0.03125 0.163047,0.163047 0 0 1 0,-0.03125 l -1.25,-6.9062 a 0.163047,0.163047 0 0 1 0,-0.03125 c 3.28e-4,-0.0066 -1.64e-4,-0.02469 0,-0.03125 -1.64e-4,-0.0066 3.28e-4,-0.02469 0,-0.03125 1.64e-4,-0.0066 0,-0.02469 0,-0.03125 -0.100986,-0.54873 -0.57801,-0.84657 -1.09375,-0.78125 0.01483,-0.01717 7.97e-4,-0.005 -0.03125,0 -0.01912,0.02329 -0.02407,0.07188 -0.09375,0.09375 a 0.163047,0.163047 0 0 1 -0.03125,0 0.163047,0.163047 0 0 1 -0.03125,0 0.163047,0.163047 0 0 1 -0.0625,0 A 0.163047,0.163047 0 0 1 27.49995,26.8438 0.163047,0.163047 0 0 1 27.4687,26.81255 0.163047,0.163047 0 0 1 27.43745,26.7813 l -0.0312,-0.0938 a 0.163047,0.163047 0 0 1 0,-0.03125 c -0.08829,-0.438919 -0.498612,-0.672731 -0.84375,-0.71875 -0.344587,-0.04594 -0.768485,0.06817 -0.96875,0.46875 0,0 -0.96919,1.94503 -1.9375,3.9375 -0.481952,0.991701 -0.97444,2.01771 -1.34375,2.8125 -0.158187,0.340432 -0.267677,0.597323 -0.375,0.84375 a 0.163047,0.163047 0 0 1 -0.03125,0.03125 0.163047,0.163047 0 0 1 -0.03125,0.03125 0.163047,0.163047 0 0 1 -0.03125,0.03125 0.163047,0.163047 0 0 1 -0.03125,0 0.163047,0.163047 0 0 1 -0.03125,0 0.163047,0.163047 0 0 1 -0.03125,0 C 20.32718,33.854284 18.97202,33.658316 17.84375,33.5 c -2.53801,-0.356123 -4.25622,-0.760108 -5.1875,-1.46875 -0.01963,-0.01494 -0.07486,0.01523 -0.09375,0 a 0.163047,0.163047 0 0 1 0,-0.03125 0.163047,0.163047 0 0 1 -0.03125,0 C 12.50075,31.9767 12.45894,31.97951 12.375,31.9375 A 0.163047,0.163047 0 0 1 12.34375,31.90625 0.163047,0.163047 0 0 1 12.3125,31.875 a 0.163047,0.163047 0 0 1 -0.03125,-0.03125 0.163047,0.163047 0 0 1 0,-0.03125 0.163047,0.163047 0 0 1 0,-0.03125 0.163047,0.163047 0 0 1 0,-0.03125 l 0.0938,-0.9062 c 0.04196,-0.425952 -0.205227,-0.716276 -0.5,-0.875 0.0158,0.0085 -0.0065,0.0022 -0.03125,0 -0.02472,-0.0022 -0.06838,-0.0095 -0.125,-0.03125 A 0.163047,0.163047 0 0 1 11.68755,29.9063 0.163047,0.163047 0 0 1 11.6563,29.87505 0.163047,0.163047 0 0 1 11.62505,29.8438 a 0.163047,0.163047 0 0 1 0,-0.03125 0.163047,0.163047 0 0 1 0,-0.03125 0.163047,0.163047 0 0 1 0,-0.03125 l 0.0938,-0.9062 c 3.28e-4,-0.0066 -1.64e-4,-0.02469 0,-0.03125 -1.64e-4,-0.0066 3.28e-4,-0.02469 0,-0.03125 V 28.7501 28.71885 c 0.008,-0.513582 -0.350486,-0.815213 -0.78125,-0.90625 a 0.163047,0.163047 0 0 1 -0.03125,0 0.163047,0.163047 0 0 1 -0.03125,-0.03125 0.163047,0.163047 0 0 1 -0.03125,-0.03125 0.163047,0.163047 0 0 1 -0.03125,-0.03125 0.163047,0.163047 0 0 1 0,-0.03125 0.163047,0.163047 0 0 1 0,-0.03125 l 0.1875,-3.625 a 0.163047,0.163047 0 0 1 0,-0.03125 c 0.02756,-0.411625 -0.212688,-0.720293 -0.5,-0.875 -0.01879,-0.01011 -0.105985,-0.03405 -0.1875,-0.0625 a 0.163047,0.163047 0 0 1 -0.03125,-0.03125 0.163047,0.163047 0 0 1 -0.03125,-0.03125 0.163047,0.163047 0 0 1 -0.03125,-0.03125 0.163047,0.163047 0 0 1 0,-0.03125 0.163047,0.163047 0 0 1 0,-0.03125 l 0.0625,-1.6875 c 1.64e-4,-0.0066 0,-0.02469 0,-0.03125 V 21.15635 21.1251 c 0.02729,-0.610754 -0.450751,-1.06224 -1.0625,-1 -0.044714,0.0045 -0.055616,0.0031 -0.03125,0 z" mask="url(#4)"/><path id="path35" fill="url(#0)" d="m 9.25,20.5938 c -0.230236,0.02867 -0.424756,0.237086 -0.4375,0.46875 v 0.03125 l -2.125,13.875 v 1.65625 1.6875 h 34.625 v -1.75 h -0.84375 -0.0625 l -0.25,-0.0312 -1.375,-4.8438 c -0.04909,-0.261799 -0.331951,-0.455337 -0.59375,-0.40625 -0.261799,0.04909 -0.455337,0.331951 -0.40625,0.59375 l 0.1562,2.5312 -1.3438,-2.0625 C 36.454964,32.139603 36.153204,32.067755 35.9374,32.1875 l -6.125,3.375 -1.4062,-7.8438 v -0.0625 c -0.04091,-0.261799 -0.331951,-0.447156 -0.59375,-0.40625 -0.261799,0.04091 -0.447156,0.300701 -0.40625,0.5625 v 0.03125 0.03125 l 0.125,1.5625 -0.5938,-2.6875 c -0.0815,-0.405175 -0.752688,-0.494667 -0.9375,-0.125 0,0 -0.970504,1.94774 -1.9375,3.9375 -0.483498,0.994882 -0.979264,1.99684 -1.34375,2.78125 -0.182243,0.392204 -0.328063,0.712564 -0.4375,0.96875 -0.05033,0.117808 -0.09268,0.226365 -0.125,0.3125 -1.62627,-0.289595 -3.09624,-0.476818 -4.375,-0.65625 -2.61115,-0.366387 -4.46981,-0.728258 -5.53125,-1.59375 -0.13988,-0.106867 -0.338119,-0.131646 -0.5,-0.0625 l 0.1562,-1.5 c 0.0384,-0.389836 -0.508181,-0.68415 -0.8125,-0.4375 l 0.1562,-1.5938 V 28.7499 28.71865 c 0.0069,-0.441958 -0.72346,-0.636733 -0.9375,-0.25 l 0.2188,-4.5 c 0.0384,-0.389836 -0.508181,-0.68415 -0.8125,-0.4375 l 0.0938,-2.3438 V 21.1561 21.12485 C 9.8332009,20.830702 9.542381,20.556038 9.2499,20.5936 z" mask="url(#3)"/><g id="g37" fill="none"><path id="path39" stroke="#000" d="M 5,6.5 C 4.161723,6.5 3.5,7.161723 3.5,8 l 0,32 c 0,0.838277 0.661723,1.5 1.5,1.5 l 38,0 c 0.838277,0 1.5,-0.661723 1.5,-1.5 l 0,-32 C 44.5,7.161723 43.838277,6.5 43,6.5 l -38,0 z" opacity=".4"/><path id="path41" stroke="url(#1)" d="M 5,7.5 C 4.699797,7.5 4.5,7.699797 4.5,8 l 0,32 c 0,0.300203 0.199797,0.5 0.5,0.5 l 38,0 c 0.300203,0 0.5,-0.199797 0.5,-0.5 l 0,-32 C 43.5,7.699797 43.3002,7.5 43,7.5 l -38,0 z"/><path id="path43" stroke="#000" d="m 7.5,10.5 0,27 33,0 0,-27 -33,0 z" opacity=".4"/></g><path id="path45" fill="#fff" d="M 7,38 H41 V39 H7 z" opacity=".8"/><metadata id="metadata9999"/></svg>