<svg xmlns="http://www.w3.org/2000/svg" xmlns:svg="http://www.w3.org/2000/svg" xmlns:xlink="http://www.w3.org/1999/xlink" id="svg2" version="1.1" viewBox="0 0 48 48"><defs id="defs4"><linearGradient id="1" x1="9.103" x2="44.06" y1="-45.12" y2="-45.07" gradientUnits="userSpaceOnUse"><stop id="stop7" stop-color="#171717"/><stop id="stop9" offset="1" stop-color="#646464"/></linearGradient><linearGradient id="2" x1="43.804" x2="43.977" y1="10.03" y2="43.17" gradientUnits="userSpaceOnUse"><stop id="stop12" stop-color="#fff"/><stop id="stop14" offset="1" stop-color="#fff" stop-opacity="0"/></linearGradient></defs><g id="g16" transform="matrix(0,1,-1,0,0,0)"><path id="rect18" d="m 11.259,-45 32.533,0 c 0.669786,0 1.209,0.539214 1.209,1.209 l 0,39.582 C 45.001,-3.539214 44.461786,-3 43.792,-3 L 11.259,-3 C 10.589214,-3 10.05,-3.539214 10.05,-4.209 l 0,-39.582 c 0,-0.669786 0.539214,-1.209 1.209,-1.209 z" opacity=".1"/><path id="rect20" fill="url(#1)" d="m 10.259,-45 32.533,0 c 0.669786,0 1.209,0.539214 1.209,1.209 l 0,39.582 C 44.001,-3.539214 43.461786,-3 42.792,-3 L 10.259,-3 C 9.5892142,-3 9.0500002,-3.539214 9.0500002,-4.209 l 0,-39.582 c 0,-0.669786 0.539214,-1.209 1.2089998,-1.209 z"/></g><g id="g22" fill="none"><path id="path24" stroke="#000" d="m 44.5069,10.2431 c 0,-0.403779 -0.299839,-0.6875 -0.71875,-0.6875 l -39.5625,0 c -0.418911,0 -0.71875,0.283721 -0.71875,0.6875 l 0,32.5312 c 0,0.40378 0.31497,0.71875 0.71875,0.71875 l 39.5625,0 c 0.403779,0 0.71875,-0.31497 0.71875,-0.71875 l 0,-32.5312 z"/><path id="path26" stroke="url(#2)" d="m 43.4756,10.5869 -38.9375,0 0,31.875 38.9375,0 0,-31.875 z" opacity=".3"/></g><g id="g28" color="#000"><path id="path30" d="m 7,35 34,0 0,6 -34,0 z" opacity=".3"/><path id="path32" fill="#ebebeb" d="m 8,36 32,0 0,4 -32,0 z" opacity=".6"/><path id="path34" fill="#d02604" d="m 8,36 14,0 0,4 -14,0 z" opacity=".7"/></g><path id="0" d="M 28.1844,23.8816 12.0272,32.5963 12.3465,14.5991 z" transform="matrix(0.68739 -0.01183 0.0122 0.66656 10.335 10.415)"/><g id="g37" fill="#ebebeb"><use id="use39" width="48" height="48" x="0" y="0" transform="translate(0,1)" xlink:href="#0"/></g><path id="path41" fill="#fff" d="M 7,41 H41 V42 H7 z" color="#000" opacity=".2"/><metadata id="metadata9999"/></svg>