<?xml version="1.0" encoding="UTF-8" standalone="no"?>
<svg xmlns:dc="http://purl.org/dc/elements/1.1/" xmlns:cc="http://creativecommons.org/ns#" xmlns:rdf="http://www.w3.org/1999/02/22-rdf-syntax-ns#" xmlns:svg="http://www.w3.org/2000/svg" xmlns="http://www.w3.org/2000/svg" viewBox="0 0 48 48" id="svg2" version="1.1">
 <defs id="defs4">
  <linearGradient id="0" y1="4.972" y2="44.03" x2="0" gradientUnits="userSpaceOnUse">
   <stop stop-color="#fff" id="stop7"/>
   <stop offset="1" stop-color="#fff" stop-opacity="0" id="stop9"/>
  </linearGradient>
  <linearGradient id="1" y1="4.101" x1="44.15" y2="45.04" x2="44.21" gradientUnits="userSpaceOnUse">
   <stop stop-color="#5288d1" id="stop12"/>
   <stop offset="1" stop-color="#a4c1e7" id="stop14"/>
  </linearGradient>
  <radialGradient cx="41.09" cy="-2.1" r="14" id="2" gradientUnits="userSpaceOnUse" gradientTransform="matrix(-1.42377 0.86859 -0.91413 -1.49843 80.59 -24.535)">
   <stop stop-color="#dadada" id="stop17"/>
   <stop offset="1" stop-color="#fff" id="stop19"/>
  </radialGradient>
 </defs>
 <path opacity="0.2" d="m 44.0691 25.4996 a 20.5 20.4985 0 1 1 -41 0 20.5 20.4985 0 1 1 41 0 z" id="path21"/>
 <path fill="url(#1)" d="m 44.0691 24.4998 a 20.5 20.4985 0 1 1 -41 0 20.5 20.4985 0 1 1 41 0 z" id="path23"/>
 <path fill="url(#2)" d="m 39 24.505 a 15.5 15.5 0 0 1 -31 0 15.5 15.5 0 1 1 31 0 z" id="path25"/>
 <g id="g27" fill="none">
  <path d="m 24.1628,4.4998 a 20,19.9986 0 0 0 -20.5937,20 20,19.9986 0 0 0 40,0 20,19.9986 0 0 0 -19.4062,-20 z" id="path29" opacity="0.4" stroke="#000"/>
  <path d="m 24.1338,5.4803 a 19.0244,19.023 0 0 0 -19.5892,19.0244 19.0244,19.023 0 0 0 38.0488,0 A 19.0244,19.023 0 0 0 24.1338,5.4803 Z" id="path31" opacity="0.4" stroke="url(#0)"/>
 </g>
 <g id="g33" fill="#171717">
  <path d="m 15.5024,24 a 0.966667,0.966667 0 1 1 -1.93333,0 0.966667,0.966667 0 1 1 1.93333,0 z" id="path35" opacity="0.8"/>
  <path d="m 33.5691,24 a 0.966667,0.966667 0 1 1 -1.93333,0 0.966667,0.966667 0 1 1 1.93333,0 z" id="path37" opacity="0.8"/>
  <path d="m 23.5691,16 a 0.966667,0.966667 0 1 1 0,-1.93333 0.966667,0.966667 0 1 1 0,1.93333 z" id="path39" opacity="0.8"/>
  <path d="m 23.5691,34.9333 a 0.966667,0.966667 0 1 1 0,-1.93333 0.966667,0.966667 0 1 1 0,1.93333 z" id="path41" opacity="0.8"/>
 </g>
 <path opacity="0.379" fill="#fff" d="M 23.9375 10 A 15.5 15.5 0 0 0 8 25.5 15.5 15.5 0 0 0 39 25.5 15.5 15.5 0 0 0 23.9375 10 z m -0.03125 1 A 14.5 14.5 0 0 1 38 25.5 14.5 14.5 0 0 1 9 25.5 14.5 14.5 0 0 1 23.90625 11 z" id="path43"/>
 <path opacity="0.8" fill="#171717" d="m 19.6197,17.457 -0.25,1.7188 2.25,4.5625 a 2.41667,2.41667 0 0 0 -0.40625,1.3125 2.41667,2.41667 0 0 0 0.875,1.875 l -1.4375,2.75 0.2188,1.6875 1.5,-0.8125 1.625,-3.125 a 2.41667,2.41667 0 0 0 2.0625,-2.375 2.41667,2.41667 0 0 0 -2.78125,-2.375 l -2.1562,-4.375 -1.5,-0.8438 z" id="path45"/>
 <path opacity="0.6" d="M 23.9375 9 A 15.5 15.5 0 0 0 8 24.5 15.5 15.5 0 0 0 39 24.5 15.5 15.5 0 0 0 23.9375 9 z m -0.03125 1 A 14.5 14.5 0 0 1 38 24.5 14.5 14.5 0 0 1 9 24.5 14.5 14.5 0 0 1 23.90625 10 z" id="path47"/>
 <metadata id="metadata9999">
  <rdf:RDF>
   <cc:Work>
    <dc:format>image/svg+xml</dc:format>
    <dc:type rdf:resource="http://purl.org/dc/dcmitype/StillImage"/>
    <dc:title>Ivy icon theme</dc:title>
    <cc:license rdf:resource="http://creativecommons.org/licenses/by-sa/4.0/"/>
    <dc:creator>
     <cc:Agent>
      <dc:title>Sixsixfive (sixsixfive.deviantart.com)</dc:title>
     </cc:Agent>
    </dc:creator>
    <dc:publisher>
     <cc:Agent>
      <dc:title>Sixsixfive (sixsixfive.deviantart.com)</dc:title>
     </cc:Agent>
    </dc:publisher>
    <dc:source>https://github.com/sixsixfive</dc:source>
    <dc:subject>
     <rdf:Bag>
      <rdf:li>ivy</rdf:li>
     </rdf:Bag>
    </dc:subject>
    <dc:contributor>
     <cc:Agent>
      <dc:title>ssf</dc:title>
     </cc:Agent>
    </dc:contributor>
    <dc:rights>
     <cc:Agent>
      <dc:title>Sixsixfive (sixisixfive.deviantart.com)</dc:title>
     </cc:Agent>
    </dc:rights>
    <dc:description>A simple icon theme published under CC-BY-SA_V4(http://creativecommons.org/licenses/by-sa/4.0)</dc:description>
    <dc:identifier>SSF</dc:identifier>
   </cc:Work>
  </rdf:RDF>
 </metadata>
 <!--Part of the Ivy icon them published under the CC-BY-SA_V4: http://creativecommons.org/licenses/by-sa/4.0 -->
</svg>
