<?xml version="1.0" encoding="UTF-8" standalone="no"?>
<svg xmlns:dc="http://purl.org/dc/elements/1.1/" xmlns:cc="http://creativecommons.org/ns#" xmlns:rdf="http://www.w3.org/1999/02/22-rdf-syntax-ns#" xmlns:svg="http://www.w3.org/2000/svg" xmlns="http://www.w3.org/2000/svg" viewBox="0 0 48 48" id="svg2" version="1.1">
 <defs id="defs4">
  <linearGradient id="0" y1="5.158" y2="41.28" x2="0" gradientUnits="userSpaceOnUse">
   <stop stop-color="#fff" id="stop7"/>
   <stop offset="1" stop-color="#fff" stop-opacity="0" id="stop9"/>
  </linearGradient>
  <linearGradient id="1" y1="42.22" y2="4.22" x2="0" gradientUnits="userSpaceOnUse">
   <stop stop-color="#ddd" id="stop12"/>
   <stop offset="1" stop-color="#fff" id="stop14"/>
  </linearGradient>
  <mask id="2">
   <path fill="#fff" fill-rule="evenodd" color="#000" d="M 4.054,14 H44.014 V42.21 H4.054 z" id="path17"/>
  </mask>
 </defs>
 <path opacity="0.1" fill="#171717" fill-rule="evenodd" color="#000" d="M 4.054,15 H44.014 V43.21 H4.054 z" id="path19"/>
 <path fill="url(#1)" d="M 4,4.22 H44 V42.22 H4 z" id="path21"/>
 <path fill="#5288d1" d="M 4,4.22 H44 V14 H4 z" id="path23"/>
 <g id="g25" fill="none">
  <g id="g27" stroke="#000">
   <path d="m 4.4688,4.6886 0,37.0625 39.0625,0 0,-37.0625 -39.0625,0 z" id="path29" opacity="0.4"/>
   <path d="m 4.9369,13.5286 38.1261,4e-4" id="path31" opacity="0.562"/>
  </g>
  <path d="m 5.4375,5.6573 0,35.125 37.125,0 0,-35.125 -37.125,0 z" id="path33" opacity="0.5" stroke="url(#0)"/>
 </g>
 <path fill="#171717" fill-rule="evenodd" color="#000" d="M 4.054,14 H44.014 V42.21 H4.054 z" id="path35"/>
 <path opacity="0.8" fill="none" stroke="#000" mask="url(#2)" d="m 4.4688 4.6886 v 37.0625 h 39.0625 v -37.0625 h -39.0625 z" id="path37"/>
 <g id="g39" fill="#fff" fill-rule="evenodd" color="#000">
  <path d="m 13,19 1,0 0,1 -1,0 z" id="path41"/>
  <path d="m 9,19 1,0 0,1 -1,0 z" id="path43"/>
  <path d="m 10,19 1,0 0,1 -1,0 z" id="path45"/>
  <path d="m 11,20 1,0 0,1 -1,0 z" id="path47"/>
  <path d="m 13,20 1,0 0,1 -1,0 z" id="path49"/>
  <path d="m 12,21 1,0 0,1 -1,0 z" id="path51"/>
  <path d="m 17,17 3,0 0,1 -3,0 z" id="path53"/>
  <g transform="scale(-1,-1)" id="g55">
   <path d="m -20,-21 3,0 0,1 -3,0 z" id="path57"/>
   <path d="m -20,-24 3,0 0,1 -3,0 z" id="path59"/>
  </g>
  <g transform="matrix(0,-1,1,0,0,0)" id="g61">
   <path d="m -23,20 2,0 0,1 -2,0 z" id="path63"/>
   <path d="m -20,16 2,0 0,1 -2,0 z" id="path65"/>
   <path d="m -25,18 9,0 0,1 -9,0 z" id="path67"/>
  </g>
  <path d="m 8,20 1,0 0,1 -1,0 z" id="path69"/>
  <path d="m 8,21 1,0 0,1 -1,0 z" id="path71"/>
  <path d="m 20,18 1,0 0,1 -1,0 z" id="path73"/>
  <path d="m -23,16 1,0 0,1 -1,0 z" transform="matrix(0,-1,1,0,0,0)" id="path75"/>
  <path d="m 24,24 5,0 0,1 -5,0 z" id="path77"/>
  <path d="M 7,8 8,8 8,9 7,9 Z" id="path79"/>
  <path d="m 8,9 1,0 0,1 -1,0 z" id="path81"/>
  <path d="m 9,10 1,0 0,1 -1,0 z" id="path83"/>
  <path d="m 7,10 1,0 0,1 -1,0 z" id="path85"/>
  <path d="m 9,8 1,0 0,1 -1,0 z" id="path87"/>
  <path d="m 12,8 1,0 0,3 -1,0 z" id="path89"/>
  <path d="m 10,-15 1,0 0,3 -1,0 z" transform="matrix(0,1,-1,0,0,0)" id="path91"/>
  <path d="m -15,-11 1,0 0,3 -1,0 z" transform="scale(-1,-1)" id="path93"/>
  <g transform="matrix(0,-1,1,0,0,0)" id="g95">
   <path d="m -9,12 1,0 0,3 -1,0 z" id="path97"/>
   <path d="m -11,17 1,0 0,3 -1,0 z" id="path99"/>
  </g>
 </g>
 <metadata id="metadata9999">
  <rdf:RDF>
   <cc:Work>
    <dc:format>image/svg+xml</dc:format>
    <dc:type rdf:resource="http://purl.org/dc/dcmitype/StillImage"/>
    <dc:title>Ivy icon theme</dc:title>
    <cc:license rdf:resource="http://creativecommons.org/licenses/by-sa/4.0/"/>
    <dc:creator>
     <cc:Agent>
      <dc:title>Sixsixfive (sixsixfive.deviantart.com)</dc:title>
     </cc:Agent>
    </dc:creator>
    <dc:publisher>
     <cc:Agent>
      <dc:title>Sixsixfive (sixsixfive.deviantart.com)</dc:title>
     </cc:Agent>
    </dc:publisher>
    <dc:source>https://github.com/sixsixfive</dc:source>
    <dc:subject>
     <rdf:Bag>
      <rdf:li>ivy</rdf:li>
     </rdf:Bag>
    </dc:subject>
    <dc:contributor>
     <cc:Agent>
      <dc:title>ssf</dc:title>
     </cc:Agent>
    </dc:contributor>
    <dc:rights>
     <cc:Agent>
      <dc:title>Sixsixfive (sixisixfive.deviantart.com)</dc:title>
     </cc:Agent>
    </dc:rights>
    <dc:description>A simple icon theme published under CC-BY-SA_V4(http://creativecommons.org/licenses/by-sa/4.0)</dc:description>
    <dc:identifier>SSF</dc:identifier>
   </cc:Work>
  </rdf:RDF>
 </metadata>
 <!--Part of the Ivy icon them published under the CC-BY-SA_V4: http://creativecommons.org/licenses/by-sa/4.0 -->
</svg>
