<?xml version="1.0" encoding="UTF-8" standalone="no"?>
<svg xmlns:dc="http://purl.org/dc/elements/1.1/" xmlns:cc="http://creativecommons.org/ns#" xmlns:rdf="http://www.w3.org/1999/02/22-rdf-syntax-ns#" xmlns:svg="http://www.w3.org/2000/svg" xmlns="http://www.w3.org/2000/svg" xmlns:xlink="http://www.w3.org/1999/xlink" viewBox="0 0 48 48" id="svg2" version="1.1">
 <defs id="4">
  <linearGradient id="O">
   <stop stop-color="#ffd506" id="c"/>
   <stop offset="1" stop-color="#eed45a" id="d"/>
  </linearGradient>
  <linearGradient id="Q">
   <stop stop-color="#fff" id="g"/>
   <stop offset="1" stop-color="#fff" id="h" stop-opacity="0"/>
  </linearGradient>
  <linearGradient id="R" xlink:href="#Q" y1="8" y2="44" x2="0" gradientUnits="userSpaceOnUse"/>
  <linearGradient id="T" xlink:href="#O" y1="17" y2="8" x2="0" gradientUnits="userSpaceOnUse"/>
 </defs>
 <path opacity="0.1" fill="#6a6a6a" fill-rule="evenodd" id="0" d="m 11.77725,8 a 1.2001198,1.0001 0 0 0 -0.6375,0.28125 l -4.7999994,4 A 1.2001198,1.0001 0 0 0 6.0022514,13 l 0,32 a 1.2001198,1.0001 0 0 0 1.2000001,1 l 33.5999915,0 a 1.2001198,1.0001 0 0 0 1.2,-1 l 0,-36 a 1.2001198,1.0001 0 0 0 -1.2,-1 L 12.00225,8 A 1.2001198,1.0001 0 0 0 11.889751,8 1.2001198,1.0001 0 0 0 11.77725,8 z"/>
 <path fill="#5a5a5a" fill-rule="evenodd" id="1" d="m 11.77725,7 a 1.2001198,1.0001 0 0 0 -0.6375,0.28125 l -4.7999994,4 A 1.2001198,1.0001 0 0 0 6.0022514,12 l 0,32 a 1.2001198,1.0001 0 0 0 1.2000001,1 l 33.5999915,0 a 1.2001198,1.0001 0 0 0 1.2,-1 l 0,-36 a 1.2001198,1.0001 0 0 0 -1.2,-1 L 12.00225,7 A 1.2001198,1.0001 0 0 0 11.889751,7 1.2001198,1.0001 0 0 0 11.77725,7 z"/>
 <g id="2" transform="translate(-3.997758,0)" opacity="0.28">
  <path d="m 39,8 4,0 0,6 -4,0 z" id="8" fill-rule="evenodd"/>
  <path d="m 35,8 3,0 0,6 -3,0 z" id="9" fill-rule="evenodd"/>
  <path d="m 31,8 3,0 0,6 -3,0 z" id="A" fill-rule="evenodd"/>
  <path d="m 27,8 3,0 0,6 -3,0 z" id="B" fill-rule="evenodd"/>
  <path d="m 23,8 3,0 0,6 -3,0 z" id="C" fill-rule="evenodd"/>
  <path d="m 19,8 3,0 0,6 -3,0 z" id="D" fill-rule="evenodd"/>
  <path d="m 15,8 3,0 0,6 -3,0 z" id="E" fill-rule="evenodd"/>
  <path d="m 11,11 3,0 0,6 -3,0 z" id="F" fill-rule="evenodd"/>
 </g>
 <g id="3" transform="translate(-2.997758,-1)" opacity="0.438">
  <path d="m 39,10 4,0 0,6 -4,0 z" id="G" fill-rule="evenodd"/>
  <path d="m 35,10 3,0 0,6 -3,0 z" id="H" fill-rule="evenodd"/>
  <path d="m 31,10 3,0 0,6 -3,0 z" id="I" fill-rule="evenodd"/>
  <path d="m 27,10 3,0 0,6 -3,0 z" id="J" fill-rule="evenodd"/>
  <path d="m 23,10 3,0 0,6 -3,0 z" id="K" fill-rule="evenodd"/>
  <path d="m 19,10 3,0 0,6 -3,0 z" id="L" fill-rule="evenodd"/>
  <path d="m 15,10 3,0 0,6 -3,0 z" id="M" fill-rule="evenodd"/>
  <path d="m 11,13 3,0 0,6 -3,0 z" id="N" fill-rule="evenodd"/>
 </g>
 <g id="5" transform="translate(-2.997758,0)" fill="url(#T)">
  <path d="m 39,8 4,0 0,6 -4,0 z" id="U" fill-rule="evenodd"/>
  <path d="m 35,8 3,0 0,6 -3,0 z" id="V" fill-rule="evenodd"/>
  <path d="m 31,8 3,0 0,6 -3,0 z" id="W" fill-rule="evenodd"/>
  <path d="m 27,8 3,0 0,6 -3,0 z" id="X" fill-rule="evenodd"/>
  <path d="m 23,8 3,0 0,6 -3,0 z" id="Y" fill-rule="evenodd"/>
  <path d="m 19,8 3,0 0,6 -3,0 z" id="Z" fill-rule="evenodd"/>
  <path d="m 15,8 3,0 0,6 -3,0 z" id="a" fill-rule="evenodd"/>
  <path d="m 11,11 3,0 0,6 -3,0 z" id="b" fill-rule="evenodd"/>
 </g>
 <path opacity="0.6" fill="none" stroke="#000" stroke-linejoin="round" id="6" stroke-linecap="round" d="m 14.78125,7.5 c -0.04123,0.00843 -0.02198,0.020106 -0.0625,0.03125 -0.04052,0.011144 0.0084,-0.013837 -0.03125,0 -0.03962,0.013837 -0.02399,0.014748 -0.0625,0.03125 -0.01925,0.00825 -0.01231,-0.00891 -0.03125,0 -0.01894,0.00891 -0.01266,0.021683 -0.03125,0.03125 -0.01822,0.010217 -0.01342,-0.010861 -0.03125,0 -0.01783,0.010861 -0.01384,0.019751 -0.03125,0.03125 -0.01695,0.012129 -0.01478,0.018499 -0.03125,0.03125 -0.01647,0.012751 -0.01528,-0.013363 -0.03125,0 l -4.78125,4 c -0.020178,0.01712 0.019296,0.01317 0,0.03125 -0.019296,0.01808 -0.012895,0.01223 -0.03125,0.03125 -0.018355,0.01902 -0.013898,-0.01994 -0.03125,0 -0.017352,0.01994 0.016287,0.01044 0,0.03125 -0.016287,0.02081 -0.01609,0.0096 -0.03125,0.03125 -0.013972,0.02244 0.012723,0.0081 0,0.03125 -0.012723,0.02318 -0.019835,0.0074 -0.03125,0.03125 -0.010052,0.02449 0.00864,0.0062 0,0.03125 -0.00864,0.02504 -0.024073,-0.02551 -0.03125,0 -0.00718,0.02551 0.00568,0.0054 0,0.03125 -0.00568,0.0259 0.00414,0.0051 0,0.03125 -0.00258,0.0264 0.00101,0.0047 0,0.03125 -0.00101,0.02651 -5.709e-4,0.0047 0,0.03125 l 0,32 c 1.4e-6,0.02606 -0.00152,0.0052 0,0.03125 0.00304,0.02587 -0.00454,0.0056 0,0.03125 0.00601,0.02533 0.023807,0.0063 0.03125,0.03125 0.00744,0.02493 -0.00884,0.0068 0,0.03125 0.010193,0.02391 -0.011496,0.008 0,0.03125 0.011496,0.0233 0.018505,0.0086 0.03125,0.03125 0.013938,0.0219 -0.015074,0.01012 0,0.03125 0.015074,0.02113 0.015098,0.01093 0.03125,0.03125 0.016152,0.02032 0.01408,-0.01946 0.03125,0 0.01717,0.01946 -0.018131,0.01267 0,0.03125 0.018131,0.01858 0.012217,0.01358 0.03125,0.03125 0.019878,0.01674 0.010583,0.01546 0.03125,0.03125 0.020667,0.01579 0.00985,-0.01481 0.03125,0 0.0214,0.01481 0.00917,0.01743 0.03125,0.03125 0.022079,0.01382 0.00854,-0.01282 0.03125,0 0.022705,0.01282 0.00797,0.01944 0.03125,0.03125 0.023279,0.01181 0.00745,-0.01079 0.03125,0 0.023801,0.01079 0.00698,0.0215 0.03125,0.03125 0.024272,0.0098 0.00656,-0.0087 0.03125,0 0.024694,0.0087 0.00618,0.02358 0.03125,0.03125 0.025065,0.0077 0.00586,-0.0066 0.03125,0 0.025388,0.0066 0.00559,-0.0056 0.03125,0 0.02566,0.0056 0.0054,-0.0045 0.03125,0 0.02589,0.0045 0.03643,0.02782 0.0625,0.03125 0.02607,0.0034 0.0051,-0.0024 0.03125,0 0.0262,0.0024 0.005,-0.0013 0.03125,0 0.02628,0.0013 0.0049,-2.31e-4 0.03125,0 l 33.625,0 c 0.02631,-2.31e-4 0.005,0.0013 0.03125,0 0.02628,-0.0013 0.0051,0.0024 0.03125,0 0.0262,-0.0024 0.0052,0.0034 0.03125,0 0.02607,-0.0034 0.03661,-0.02675 0.0625,-0.03125 0.02589,-0.0045 0.0056,0.0056 0.03125,0 0.02566,-0.0056 0.0059,0.0066 0.03125,0 0.02539,-0.0066 0.0062,0.0077 0.03125,0 0.02506,-0.0077 0.0066,-0.02254 0.03125,-0.03125 0.02469,-0.0087 0.007,0.0098 0.03125,0 0.02427,-0.0098 0.0074,-0.02046 0.03125,-0.03125 0.0238,-0.01079 0.008,0.01181 0.03125,0 0.02328,-0.01181 0.0085,-0.01843 0.03125,-0.03125 0.02271,-0.01282 0.0092,0.01382 0.03125,0 0.02208,-0.01382 0.0099,-0.01644 0.03125,-0.03125 0.0214,-0.01481 0.01058,0.01579 0.03125,0 0.02067,-0.01579 0.01137,-0.01451 0.03125,-0.03125 0.01903,-0.01767 0.01312,-0.01267 0.03125,-0.03125 0.01813,-0.01858 -0.01717,-0.01179 0,-0.03125 0.01717,-0.01946 0.0151,0.02032 0.03125,0 0.01615,-0.02032 0.01618,-0.01012 0.03125,-0.03125 0.01507,-0.02113 -0.01394,-0.0093 0,-0.03125 0.01275,-0.02263 0.01975,-0.008 0.03125,-0.03125 0.0115,-0.0233 -0.01019,-0.0073 0,-0.03125 0.0088,-0.02446 -0.0074,-0.0063 0,-0.03125 0.0074,-0.02493 0.02524,-0.0059 0.03125,-0.03125 0.0045,-0.02564 -0.003,-0.0054 0,-0.03125 0.0015,-0.02601 -10e-7,-0.0052 0,-0.03125 l 0,-36 c -10e-7,-0.026058 0.0015,-0.00524 0,-0.03125 -0.003,-0.025873 0.0045,-0.00561 0,-0.03125 -0.006,-0.02533 -0.02381,-0.00632 -0.03125,-0.03125 -0.0074,-0.024932 0.0088,-0.00679 0,-0.03125 -0.01019,-0.023911 0.0115,-0.00795 0,-0.03125 -0.0115,-0.023299 -0.0185,-0.00862 -0.03125,-0.03125 -0.01394,-0.021902 0.01507,-0.01012 0,-0.03125 -0.01507,-0.02113 -0.0151,-0.010934 -0.03125,-0.03125 -0.01615,-0.020316 -0.01408,0.019465 -0.03125,0 -0.01717,-0.019465 0.01813,-0.012667 0,-0.03125 -0.01813,-0.018583 -0.01222,-0.013577 -0.03125,-0.03125 -0.01988,-0.016739 -0.01058,-0.015465 -0.03125,-0.03125 -0.02067,-0.015785 -0.0099,0.014812 -0.03125,0 -0.0214,-0.014812 -0.0092,-0.017426 -0.03125,-0.03125 -0.02208,-0.013824 -0.0085,0.012823 -0.03125,0 -0.02271,-0.012823 -0.008,-0.01944 -0.03125,-0.03125 -0.02328,-0.01181 -0.0074,0.010786 -0.03125,0 -0.0238,-0.010786 -0.007,-0.021496 -0.03125,-0.03125 -0.02427,-0.00975 -0.0066,0.00871 -0.03125,0 -0.02469,-0.00871 -0.0062,-0.023582 -0.03125,-0.03125 -0.02506,-0.00767 -0.0059,0.00662 -0.03125,0 -0.02539,-0.00662 -0.0056,0.00556 -0.03125,0 -0.02566,-0.00556 -0.0054,0.0045 -0.03125,0 -0.02589,-0.0045 -0.03643,-0.027816 -0.0625,-0.03125 -0.02607,-0.00343 -0.0051,0.00237 -0.03125,0 -0.0262,-0.00237 -0.005,0.0013 -0.03125,0 -0.02628,-0.0013 -0.0049,2.306e-4 -0.03125,0 L 15,7.5 a 0.5027137,0.5027137 0 0 1 -0.03125,0 c -0.02809,-0.00122 -0.0031,0 -0.03125,0 -0.02812,0 -0.0032,-0.00122 -0.03125,0 a 0.5027137,0.5027137 0 0 1 -0.0625,0 c -0.02087,0.00285 -0.02683,-7.52e-4 -0.03125,0 -0.0044,7.52e-4 -0.01064,-0.00422 -0.03125,0 z" transform="matrix(1 0 0 1 -2.997758 0)"/>
 <path opacity="0.5" fill="none" stroke="url(#R)" id="7" d="m 14.9375,8.4375 -4.5,3.78125 0,31.34375 33.125,0 0,-35.125 -28.5625,0 a 1.4340515,1.4340515 0 0 1 -0.03125,0 l -0.03125,0 z" transform="matrix(1 0 0 1 -2.997758 0)"/>
 <metadata id="metadata9999">
  <rdf:RDF>
   <cc:Work>
    <dc:format>image/svg+xml</dc:format>
    <dc:type rdf:resource="http://purl.org/dc/dcmitype/StillImage"/>
    <dc:title>Ivy icon theme</dc:title>
    <cc:license rdf:resource="http://creativecommons.org/licenses/by-sa/4.0/"/>
    <dc:creator>
     <cc:Agent>
      <dc:title>Sixsixfive (sixsixfive.deviantart.com)</dc:title>
     </cc:Agent>
    </dc:creator>
    <dc:publisher>
     <cc:Agent>
      <dc:title>Sixsixfive (sixsixfive.deviantart.com)</dc:title>
     </cc:Agent>
    </dc:publisher>
    <dc:source>https://github.com/sixsixfive</dc:source>
    <dc:subject>
     <rdf:Bag>
      <rdf:li>ivy</rdf:li>
     </rdf:Bag>
    </dc:subject>
    <dc:contributor>
     <cc:Agent>
      <dc:title>ssf</dc:title>
     </cc:Agent>
    </dc:contributor>
    <dc:rights>
     <cc:Agent>
      <dc:title>Sixsixfive (sixisixfive.deviantart.com)</dc:title>
     </cc:Agent>
    </dc:rights>
    <dc:description>A simple icon theme published under CC-BY-SA_V4(http://creativecommons.org/licenses/by-sa/4.0)</dc:description>
    <dc:identifier>SSF</dc:identifier>
   </cc:Work>
  </rdf:RDF>
 </metadata>
 <!--Part of the Ivy icon them published under the CC-BY-SA_V4: http://creativecommons.org/licenses/by-sa/4.0 -->
</svg>
