<svg xmlns="http://www.w3.org/2000/svg" xmlns:svg="http://www.w3.org/2000/svg" id="svg2" version="1.1" viewBox="0 0 32 32"><defs id="defs4"><linearGradient id="0" x1="40.941" x2="5.985" gradientTransform="matrix(0.65798 0 0 0.66676 -33.938 0.666)" gradientUnits="userSpaceOnUse"><stop id="stop7" stop-color="#5288d1"/><stop id="stop9" offset="1" stop-color="#b0c9ea"/></linearGradient><linearGradient id="1" x1="28.04" x2="7.03" gradientTransform="matrix(0 -0.99956 1.01258 0 1.375 36.03)" gradientUnits="userSpaceOnUse"><stop id="stop12" stop-color="#fff"/><stop id="stop14" offset="1" stop-color="#fff" stop-opacity="0"/></linearGradient></defs><g id="g16" transform="matrix(0,-1,1,0,0,0)"><path id="rect18" d="m -30.193001,2 21.3850002,0 c 0.446524,0 0.806,0.359476 0.806,0.806 l 0,26.388 c 0,0.446524 -0.359476,0.806 -0.806,0.806 l -21.3850002,0 c -0.446524,0 -0.806,-0.359476 -0.806,-0.806 l 0,-26.388 c 0,-0.446524 0.359476,-0.806 0.806,-0.806 z" opacity=".1"/><path id="rect20" fill="url(#0)" d="m -29.193001,2 21.3850002,0 c 0.446524,0 0.806,0.359476 0.806,0.806 l 0,26.388 c 0,0.446524 -0.359476,0.806 -0.806,0.806 l -21.3850002,0 c -0.446524,0 -0.806,-0.359476 -0.806,-0.806 l 0,-26.388 c 0,-0.446524 0.359476,-0.806 0.806,-0.806 z"/></g><path id="path22" d="M 11.7812 19.0938 C 9.06445 19.08048 5.87782 19.63744 1.99995 21.1563 v 1 c 3.87787 -1.51886 7.0645 -2.07582 9.78125 -2.0625 7.71932 0.03786 11.7937 4.58174 18.2188 4.03125 v -1 C 23.57494 23.675543 19.5006 19.13166 11.7812 19.0938 z" opacity=".1"/><g id="g24" fill="#fff"><path id="path26" d="M 11.78125,20.09375 C 9.0645,20.08043 5.877868,20.63739 2,22.15625 L 2,29.1875 C 2,29.633999 2.366001,30 2.8125,30 l 26.375,0 C 29.633999,30 30,29.633999 30,29.1875 L 30,24.125 C 23.574937,24.675493 19.500572,20.13161 11.78125,20.09375 Z" opacity=".5"/><path id="path28" d="m 26.0994,13.9944 a 3,2.99827 0 1 1 -6,0 3,2.99827 0 1 1 6,0 z" opacity=".5"/></g><g id="g30" fill="none"><g id="g32" stroke="#000"><path id="path34" d="m 22.8438,10.5938 c -2.13417,0.100819 -3.69781,2.3903 -3,4.40625 0.603187,2.17033 3.42984,3.15042 5.21875,1.78125 l 0.0312,-0.0312 c 1.78981,-1.24432 1.88418,-4.10283 0.125,-5.40625 -0.654962,-0.526546 -1.5011,-0.806132 -2.34375,-0.75 l -0.03125,0 z" opacity=".15"/><path id="path36" d="m 2.5462,29.2501 c 0,0.142803 0.114013,0.24989 0.284789,0.24989 l 26.4221,0 c 0.170776,0 0.253146,-0.08981 0.253146,-0.24989 l 0,-21.4592 c 0,-0.15456 -0.09657,-0.249889 -0.253146,-0.249889 l -26.4221,0 C 2.674417,7.541011 2.5462,7.653618 2.5462,7.7909 l 0,21.4592 z" opacity=".4"/></g><path id="path38" stroke="url(#1)" d="m 3.5587,28.5004 24.9349,0 0,-19.9599 -24.9349,0 0,19.9599 z" opacity=".4"/></g><metadata id="metadata9999"/></svg>