<svg xmlns="http://www.w3.org/2000/svg" xmlns:svg="http://www.w3.org/2000/svg" id="svg2" version="1.1" viewBox="0 0 48 48"><defs id="defs4"><linearGradient id="0" x2="0" y1="5.158" y2="41.28" gradientUnits="userSpaceOnUse"><stop id="stop7" stop-color="#fff"/><stop id="stop9" offset="1" stop-color="#fff" stop-opacity="0"/></linearGradient><linearGradient id="1" x2="0" y1="42.22" y2="4.22" gradientUnits="userSpaceOnUse"><stop id="stop12" stop-color="#ddd"/><stop id="stop14" offset="1" stop-color="#fff"/></linearGradient><mask id="2"><path id="path17" fill="#fff" fill-rule="evenodd" d="M 4.054,14 H44.014 V42.21 H4.054 z" color="#000"/></mask></defs><path id="path19" fill="#171717" fill-rule="evenodd" d="M 4.054,15 H44.014 V43.21 H4.054 z" color="#000" opacity=".1"/><path id="path21" fill="url(#1)" d="M 4,4.22 H44 V42.22 H4 z"/><path id="path23" fill="#5288d1" d="M 4,4.22 H44 V14 H4 z"/><g id="g25" fill="none"><g id="g27" stroke="#000"><path id="path29" d="m 4.4688,4.6886 0,37.0625 39.0625,0 0,-37.0625 -39.0625,0 z" opacity=".4"/><path id="path31" d="m 4.9369,13.5286 38.1261,4e-4" opacity=".562"/></g><path id="path33" stroke="url(#0)" d="m 5.4375,5.6573 0,35.125 37.125,0 0,-35.125 -37.125,0 z" opacity=".5"/></g><path id="path35" fill="#171717" fill-rule="evenodd" d="M 4.054,14 H44.014 V42.21 H4.054 z" color="#000"/><path id="path37" fill="none" stroke="#000" d="m 4.4688 4.6886 v 37.0625 h 39.0625 v -37.0625 h -39.0625 z" mask="url(#2)" opacity=".8"/><g id="g39" fill="#fff" fill-rule="evenodd" color="#000"><path id="path41" d="m 13,19 1,0 0,1 -1,0 z"/><path id="path43" d="m 9,19 1,0 0,1 -1,0 z"/><path id="path45" d="m 10,19 1,0 0,1 -1,0 z"/><path id="path47" d="m 11,20 1,0 0,1 -1,0 z"/><path id="path49" d="m 13,20 1,0 0,1 -1,0 z"/><path id="path51" d="m 12,21 1,0 0,1 -1,0 z"/><path id="path53" d="m 17,17 3,0 0,1 -3,0 z"/><g id="g55" transform="scale(-1,-1)"><path id="path57" d="m -20,-21 3,0 0,1 -3,0 z"/><path id="path59" d="m -20,-24 3,0 0,1 -3,0 z"/></g><g id="g61" transform="matrix(0,-1,1,0,0,0)"><path id="path63" d="m -23,20 2,0 0,1 -2,0 z"/><path id="path65" d="m -20,16 2,0 0,1 -2,0 z"/><path id="path67" d="m -25,18 9,0 0,1 -9,0 z"/></g><path id="path69" d="m 8,20 1,0 0,1 -1,0 z"/><path id="path71" d="m 8,21 1,0 0,1 -1,0 z"/><path id="path73" d="m 20,18 1,0 0,1 -1,0 z"/><path id="path75" d="m -23,16 1,0 0,1 -1,0 z" transform="matrix(0,-1,1,0,0,0)"/><path id="path77" d="m 24,24 5,0 0,1 -5,0 z"/><path id="path79" d="M 7,8 8,8 8,9 7,9 Z"/><path id="path81" d="m 8,9 1,0 0,1 -1,0 z"/><path id="path83" d="m 9,10 1,0 0,1 -1,0 z"/><path id="path85" d="m 7,10 1,0 0,1 -1,0 z"/><path id="path87" d="m 9,8 1,0 0,1 -1,0 z"/><path id="path89" d="m 12,8 1,0 0,3 -1,0 z"/><path id="path91" d="m 10,-15 1,0 0,3 -1,0 z" transform="matrix(0,1,-1,0,0,0)"/><path id="path93" d="m -15,-11 1,0 0,3 -1,0 z" transform="scale(-1,-1)"/><g id="g95" transform="matrix(0,-1,1,0,0,0)"><path id="path97" d="m -9,12 1,0 0,3 -1,0 z"/><path id="path99" d="m -11,17 1,0 0,3 -1,0 z"/></g></g><metadata id="metadata9999"/></svg>