<?xml version="1.0" encoding="UTF-8" standalone="no"?>
<svg xmlns:dc="http://purl.org/dc/elements/1.1/" xmlns:cc="http://creativecommons.org/ns#" xmlns:rdf="http://www.w3.org/1999/02/22-rdf-syntax-ns#" xmlns:svg="http://www.w3.org/2000/svg" xmlns="http://www.w3.org/2000/svg" xmlns:xlink="http://www.w3.org/1999/xlink" version="1.1" id="svg2" viewBox="0 0 48 48">
 <defs id="defs4">
  <linearGradient x2="0" gradientUnits="userSpaceOnUse" y2="40.485" y1="10.765" id="0">
   <stop id="stop7" stop-color="#fff"/>
   <stop stop-opacity="0" id="stop9" stop-color="#fff" offset="1"/>
  </linearGradient>
  <linearGradient x2="0" gradientUnits="userSpaceOnUse" y2="41.29" y1="9.966" id="1">
   <stop id="stop12" stop-color="#bababa"/>
   <stop id="stop14" stop-color="#ebebeb" offset="1"/>
  </linearGradient>
 </defs>
 <path d="m 44.002139,25.000198 a 20.00007,20.000037 0 1 1 -40.0000211,0 20.00007,20.000037 0 1 1 40.0000211,0 z" id="path3368" opacity="0.1"/>
 <path transform="matrix(1.18474 0 0 1.27706 -9.01 -8.727)" d="m 44.7458 25.6271 a 16.8814 15.661 0 1 1 -33.7627 0 16.8814 15.661 0 1 1 33.7627 0 z" id="path23" fill="url(#1)"/>
 <g id="g25" fill="none" stroke-width="0.813">
  <path transform="matrix(1.18474,0,0,1.27706,-9.01,-8.727)" d="m 27.875,11.1562 c -8.7313,0 -15.7188,6.51002 -15.7188,14.4688 0,7.95873 6.98745,14.4688 15.7188,14.4688 8.7313,0 15.6875,-6.50717 15.6875,-14.4688 0,-7.96158 -6.9562,-14.4688 -15.6875,-14.4688 z" id="path27" opacity="0.7" stroke="url(#0)"/>
  <path transform="matrix(1.18474,0,0,1.27706,-9.01,-8.727)" d="m 27.875,10.375 c -9.11523,0 -16.5,6.84339 -16.5,15.25 0,8.40661 7.38477,15.25 16.5,15.25 9.11523,0 16.4688,-6.84239 16.4688,-15.25 0,-8.40761 -7.35352,-15.25 -16.4688,-15.25 z" id="path29" opacity="0.4" stroke="#000"/>
 </g>
 <g id="g31" fill="#fff">
  <path transform="matrix(0.99984,-0.01774,0.01774,0.99984,5.396,2.622)" d="M 28.1844,23.8816 12.0272,32.5963 12.3465,14.5991 Z" id="3"/>
 </g>
 <g id="g34" fill="#6a6a6a">
  <use height="48" width="48" y="0" x="0" transform="translate(0,-1)" xlink:href="#3" id="use36"/>
 </g>
 <metadata id="metadata9999">
  <rdf:RDF>
   <cc:Work>
    <dc:format>image/svg+xml</dc:format>
    <dc:type rdf:resource="http://purl.org/dc/dcmitype/StillImage"/>
    <dc:title>Ivy icon theme</dc:title>
    <cc:license rdf:resource="http://creativecommons.org/licenses/by-sa/4.0/"/>
    <dc:creator>
     <cc:Agent>
      <dc:title>Sixsixfive (sixsixfive.deviantart.com)</dc:title>
     </cc:Agent>
    </dc:creator>
    <dc:publisher>
     <cc:Agent>
      <dc:title>Sixsixfive (sixsixfive.deviantart.com)</dc:title>
     </cc:Agent>
    </dc:publisher>
    <dc:source>https://github.com/sixsixfive</dc:source>
    <dc:subject>
     <rdf:Bag>
      <rdf:li>ivy</rdf:li>
     </rdf:Bag>
    </dc:subject>
    <dc:contributor>
     <cc:Agent>
      <dc:title>ssf</dc:title>
     </cc:Agent>
    </dc:contributor>
    <dc:rights>
     <cc:Agent>
      <dc:title>Sixsixfive (sixisixfive.deviantart.com)</dc:title>
     </cc:Agent>
    </dc:rights>
    <dc:description>A simple icon theme published under CC-BY-SA_V4(http://creativecommons.org/licenses/by-sa/4.0)</dc:description>
    <dc:identifier>SSF</dc:identifier>
   </cc:Work>
  </rdf:RDF>
 </metadata>
 <!--Part of the Ivy icon them published under the CC-BY-SA_V4: http://creativecommons.org/licenses/by-sa/4.0 -->
</svg>
