<svg xmlns="http://www.w3.org/2000/svg" xmlns:svg="http://www.w3.org/2000/svg" xmlns:xlink="http://www.w3.org/1999/xlink" id="svg2" version="1.1" viewBox="0 0 48 48"><defs id="defs4"><linearGradient id="1" x2="0" y1="3" y2="44" gradientUnits="userSpaceOnUse"><stop id="stop7" stop-color="#dedede"/><stop id="stop9" offset="1" stop-color="#f4f4f4"/></linearGradient><linearGradient id="2" x1="40" x2="7" y1="3" y2="31" gradientUnits="userSpaceOnUse"><stop id="stop12" stop-color="#fff"/><stop id="stop14" offset="1" stop-color="#fff" stop-opacity="0"/></linearGradient><linearGradient id="3" x2="0" y1="44" y2="2" gradientUnits="userSpaceOnUse"><stop id="stop17" stop-color="#9ebce5"/><stop id="stop19" offset="1" stop-color="#5288d1"/></linearGradient></defs><rect id="rect21" width="34.951" height="42" x="6" y="3" opacity=".1" rx="1.209" ry="1.209"/><rect id="rect23" width="34.951" height="42" x="5.986" y="2" fill="url(#1)" rx="1.209" ry="1.209"/><path id="path25" fill="#fff" d="M 15 7 H 26.407407 V 9 H 15 z" opacity=".3"/><rect id="rect27" width="7.01" height="42" x="6" y="2" fill="url(#3)" rx="1.209" ry="1.209"/><path id="path29" fill="none" stroke="#000" d="M 7.1875 2.5 C 6.783721 2.5 6.5 2.799839 6.5 3.21875 V 42.78125 C 6.5 43.20016 6.783721 43.5 7.1875 43.5 H 39.71875 C 40.12253 43.5 40.4375 43.18503 40.4375 42.78125 V 3.21875 C 40.4375 2.814971 40.12253 2.5 39.71875 2.5 H 7.1875 z" opacity=".4"/><path id="path31" d="M 12,3 H13 V43 H12 z" opacity=".4"/><path id="path33" fill="none" stroke="url(#2)" d="M 7.5312 3.5312 V 42.4687 H 39.4062 V 3.5312 H 7.5312 z" opacity=".78"/><path id="path35" fill="#fff" d="M 15 15 H 25.592593 V 17 H 15 z" opacity=".3"/><path id="path37" d="M 15 6 H 26.407407 V 8 H 15 z" opacity=".3"/><path id="path39" fill="#fff" d="M 15 19 H 37 V 21 H 15 z" opacity=".3"/><path id="path41" d="M 15 10 H 24.777778 V 12 H 15 z" opacity=".3"/><path id="path43" fill="#fff" d="M 15 23 H 28.851852 V 25 H 15 z" opacity=".3"/><path id="path45" d="M 15 14 H 25.592593 V 16 H 15 z" opacity=".3"/><path id="path47" fill="#fff" d="M 15 27 H 32.925926 V 29 H 15 z" opacity=".3"/><path id="path49" d="M 15 18 H 37 V 20 H 15 z" opacity=".3"/><path id="path51" fill="#fff" d="M 15 31 H 30.481481 V 33 H 15 z" opacity=".3"/><path id="path53" d="M 15 22 H 28.851852 V 24 H 15 z" opacity=".3"/><path id="path55" fill="#fff" d="M 15 35 H 32.925926 V 37 H 15 z" opacity=".3"/><path id="path57" d="M 15 26 H 32.925926 V 28 H 15 z" opacity=".3"/><path id="path59" fill="#fff" d="M 15 39 H 36.18518 V 41 H 15 z" opacity=".3"/><path id="path61" d="M 15 30 H 30.481481 V 32 H 15 z" opacity=".3"/><path id="path63" d="M 15 34 H 32.925926 V 36 H 15 z" opacity=".3"/><path id="path65" d="M 15 38 H 36.18518 V 40 H 15 z" opacity=".3"/><path id="0" fill="#fff" d="M 11 15.5 A 1.5 1.5 0 1 1 8 15.5 1.5 1.5 0 1 1 11 15.5 z"/><use id="use68" transform="matrix(1 0 0 1 0 15)" xlink:href="#0"/><metadata id="metadata9999"/></svg>