<svg xmlns="http://www.w3.org/2000/svg" xmlns:svg="http://www.w3.org/2000/svg" xmlns:xlink="http://www.w3.org/1999/xlink" id="svg2" width="32" height="32" fill-rule="evenodd" version="1.1" viewBox="0 0 0.334 0.334"><defs id="defs4"><linearGradient id="linearGradient4188"><stop id="stop4190" stop-color="#fff"/><stop id="stop4192" offset="1" stop-color="#fff" stop-opacity="0"/></linearGradient><linearGradient id="1" x1="7.208" x2="7.204" y1="-.09" y2="4.339" gradientUnits="userSpaceOnUse"><stop id="stop12" stop-color="#5288d1"/><stop id="stop14" offset="1" stop-color="#93b4e1"/></linearGradient><linearGradient id="linearGradient4194" x1="6.992" x2="6.968" y1=".067" y2="4.171" gradientUnits="userSpaceOnUse" xlink:href="#linearGradient4188"/></defs><g id="g22" color="#000" transform="matrix(0.0556902,0,0,0.05865624,-0.085331,0.047641)"><path id="path4196" fill-rule="nonzero" stroke-width=".45" d="m 3.59375,0.08421081 c -0.419263,-0.016736 -0.817247,0.194195 -1.09375,0.5 C 2.404458,0.76618981 2.22735,0.92520781 2.125,1.1154609 1.993271,1.283736 1.818459,1.512415 1.959206,1.727224 2.0877,1.91791 2.435106,1.853563 2.53125,1.664222 2.663024,1.41121 2.887163,1.1322422 3.154952,1.0179831 3.333852,0.94397902 3.530287,0.97407102 3.71875,0.96825202 3.452109,1.9061062 3.03278,2.858661 2.620347,3.740461 2.4694282,3.9927341 2.464837,4.167251 2.610015,4.351722 2.77281,4.595971 3.183823,4.55911 3.391453,4.395859 3.638284,4.166875 3.65132,3.805029 3.761263,3.507034 3.970888,2.818177 4.140074,2.117617 4.330444,1.423172 L 4.4375,0.96825202 l 0.59375,0 C 4.834003,1.7892542 4.614725,2.674325 4.655053,3.526476 4.67349,3.842998 4.730799,4.204491 4.977458,4.428203 5.296571,4.67734 5.838776,4.399928 5.8125,3.990461 5.826158,3.785568 5.698434,3.605505 5.666195,3.403855 5.471642,2.623901 5.512585,1.7529732 5.65625,0.96825202 c 0.327587,-0.004685 0.656048,0.010193 0.982993,-0.00907 0.331823,-0.007617 0.632683,-0.33172421 0.471228,-0.64664921 -0.092531,-0.20937 -0.338885,-0.254186 -0.544199,-0.228322 z" opacity=".1"/><path id="path24" fill="url(#1)" fill-rule="nonzero" stroke-width=".45" d="M 3.59375,-0.09375 C 3.174487,-0.110486 2.776503,0.100445 2.5,0.40625 2.404458,0.588229 2.22735,0.747247 2.125,0.9375 1.993271,1.105775 1.818459,1.334454 1.959206,1.549263 2.0877,1.739949 2.435106,1.675602 2.53125,1.486261 2.663024,1.233249 2.887163,0.95428121 3.154952,0.84002221 3.333852,0.76601821 3.530287,0.79611021 3.71875,0.79029121 3.452109,1.7281452 3.03278,2.6807 2.620347,3.5625 2.4694282,3.8147731 2.464837,3.98929 2.610015,4.173761 2.77281,4.41801 3.183823,4.381149 3.391453,4.217898 3.638284,3.988914 3.65132,3.627068 3.761263,3.329073 3.970888,2.640216 4.140074,1.939656 4.330444,1.245211 L 4.4375,0.79029121 l 0.59375,0 C 4.834003,1.6112932 4.614725,2.496364 4.655053,3.348515 4.67349,3.665037 4.730799,4.02653 4.977458,4.250242 5.296571,4.499379 5.838776,4.221967 5.8125,3.8125 5.826158,3.607607 5.698434,3.427544 5.666195,3.225894 5.471642,2.44594 5.512585,1.5750122 5.65625,0.79029121 c 0.327587,-0.004685 0.656048,0.010193 0.982993,-0.00907 C 6.971066,0.77360421 7.271926,0.449497 7.110471,0.134572 7.01794,-0.074798 6.771586,-0.119614 6.566272,-0.09375 Z"/><path id="path4184" fill="none" fill-rule="nonzero" stroke="#000" stroke-width=".183" d="m 6.5761719,-0.01171875 a 0.08311888,0.08311888 0 0 1 -0.00977,0.00195312 l -2.9726562,0 a 0.08311888,0.08311888 0 0 1 -0.00391,0 C 3.200484,-0.02530796 2.8251459,0.17241124 2.5625,0.46289062 2.4557305,0.65576863 2.2869271,0.80989554 2.1972656,0.9765625 a 0.08311888,0.08311888 0 0 1 -0.00586,0.0117188 c -0.065635,0.0838448 -0.1374083,0.1798768 -0.1738275,0.2695312 -0.036067,0.088786 -0.042872,0.1622102 0.00977,0.2441406 0.042435,0.062975 0.1262806,0.088872 0.21875,0.076172 0.092469,-0.0127 0.1794661,-0.066928 0.2109374,-0.1289062 a 0.08311888,0.08311888 0 0 1 0,-0.00195 C 2.595017,1.1823268 2.8237041,0.89056073 3.1210938,0.76367188 a 0.08311888,0.08311888 0 0 1 0.00195,0 c 0.2063978,-0.0853788 0.4161728,-0.0511577 0.59375,-0.0566406 a 0.08311888,0.08311888 0 0 1 0.082031,0.10742187 C 3.5299753,1.7600867 3.1102797,2.7146138 2.6972656,3.5976562 a 0.08311888,0.08311888 0 0 1 -0.00391,0.00781 c -0.071371,0.1193029 -0.103724,0.2115749 -0.1054688,0.2890624 -0.00174,0.077488 0.021572,0.1467289 0.085937,0.2285157 a 0.08311888,0.08311888 0 0 1 0.00391,0.00391 C 2.7401905,4.220659 2.8543199,4.2646599 2.984375,4.265625 3.1119185,4.2665714 3.2483557,4.2231263 3.3339844,4.1582031 l 0.00195,-0.00195 C 3.5485055,3.9570176 3.5672359,3.6184101 3.6816406,3.3046875 l 0.00195,-0.00586 C 3.8912608,2.6155794 4.059927,1.9200706 4.25,1.2265625 l 0,-0.00195 0.1074219,-0.45312502 A 0.08311888,0.08311888 0 0 1 4.4375,0.70703125 l 0.59375,0 A 0.08311888,0.08311888 0 0 1 5.111328,0.81054688 C 4.9139652,1.6320312 4.6987563,2.5085672 4.7382812,3.34375 l -0.00195,0 C 4.7543427,3.6530195 4.8145903,3.9872765 5.03125,4.1855469 5.2914038,4.3832042 5.7518058,4.1508604 5.7304688,3.8183594 a 0.08311888,0.08311888 0 0 1 0,-0.011719 C 5.7415146,3.6409343 5.6236066,3.4707296 5.5859375,3.2460938 l -0.00195,-0.00586 C 5.3869285,2.4450674 5.4294563,1.5661058 5.5742188,0.77539062 a 0.08311888,0.08311888 0 0 1 0.080078,-0.0683594 c 0.3307779,-0.004731 0.6572186,0.0111177 0.9785156,-0.007813 a 0.08311888,0.08311888 0 0 1 0.00391,-0.001953 C 6.7761849,0.69406418 6.9133426,0.62266398 6.9941406,0.52148438 7.0749387,0.42030477 7.1029523,0.30030451 7.0371094,0.171875 A 0.08311888,0.08311888 0 0 1 7.0351594,0.167969 C 6.9990594,0.08628645 6.9363204,0.04031527 6.8535188,0.011719 6.7707178,-0.01687727 6.6687988,-0.02338658 6.5761751,-0.0117185 Z" opacity=".4"/><path id="path4186" fill="none" fill-rule="nonzero" stroke="url(#linearGradient4194)" stroke-linecap="round" stroke-linejoin="round" stroke-width=".183" d="m 6.5996094,0.16210938 a 0.25866708,0.25866708 0 0 1 -0.033203,0.001953 l -2.9726562,0 a 0.25866708,0.25866708 0 0 1 -0.00977,0 C 3.2577806,0.15104121 2.9247857,0.32196664 2.6914062,0.58007812 2.5688697,0.78457095 2.4182672,0.94018356 2.3535156,1.0605469 a 0.25866708,0.25866708 0 0 1 -0.025391,0.037109 c -0.065152,0.083227 -0.125138,0.1672523 -0.1484375,0.2246094 -0.022759,0.056026 -0.022872,0.053152 -0.00391,0.082031 -0.00261,-0.00396 0.00376,0.00592 0.046875,0 0.044913,-0.00617 0.081715,-0.042225 0.078125,-0.035156 a 0.25866708,0.25866708 0 0 1 0.00195,-0.00195 c 0.151105,-0.2901284 0.3900935,-0.61206173 0.75,-0.765625 a 0.25866708,0.25866708 0 0 1 0.00195,0 C 3.3191506,0.49216285 3.5563409,0.5379789 3.7109271,0.5332059 a 0.25866708,0.25866708 0 0 1 0.2558594,0.328125 C 3.6932726,1.8233924 3.2697102,2.7862084 2.8554688,3.671875 A 0.25866708,0.25866708 0 0 1 2.84375,3.6953125 c -0.062737,0.1048703 -0.07932,0.1694649 -0.080078,0.203125 -7.58e-4,0.03366 0.00183,0.055515 0.048828,0.1152344 a 0.25866708,0.25866708 0 0 1 0.011719,0.017578 c 0.022452,0.033685 0.070133,0.057926 0.1601562,0.058594 0.086354,6.407e-4 0.1874119,-0.035466 0.2363281,-0.070313 0.1439953,-0.1421995 0.169868,-0.4317098 0.2988281,-0.78125 l -0.00586,0.013672 C 3.7193895,2.5759358 3.8874443,1.8838447 4.078125,1.1875 L 4.080075,1.17773 4.1855438,0.73241748 A 0.25866708,0.25866708 0 0 1 4.4375,0.53320312 l 0.59375,0 A 0.25866708,0.25866708 0 0 1 5.2832031,0.8515625 c -0.1972969,0.8212097 -0.4080847,1.682183 -0.3710937,2.4804687 3.9e-5,6.709e-4 -3.96e-5,0.00128 0,0.00195 2.94e-5,6.285e-4 -2.98e-5,0.00132 0,0.00195 0.017292,0.2899648 0.081097,0.5653904 0.2324218,0.7109375 0.1368527,0.093306 0.4211612,-0.047257 0.4101563,-0.21875 a 0.25866708,0.25866708 0 0 1 0,-0.033203 C 5.5603129,3.710532 5.463817,3.5510529 5.4160156,3.2890625 5.208449,2.4569373 5.2541488,1.5536047 5.4023438,0.74414062 a 0.25866708,0.25866708 0 0 1 0.25,-0.2109375 c 0.3375171,-0.004827 0.6613346,0.008462 0.9707031,-0.009766 a 0.25866708,0.25866708 0 0 1 0.00977,0 C 6.7164299,0.52151812 6.8105684,0.47078702 6.8574263,0.412109 6.9042843,0.353431 6.9152703,0.3190642 6.8808633,0.25195274 A 0.25866708,0.25866708 0 0 1 6.875,0.24023438 C 6.860371,0.2071333 6.8454644,0.19451524 6.796875,0.17773438 6.7482856,0.16095351 6.6710427,0.15311071 6.5996094,0.16210938 Z" opacity=".4"/></g><metadata id="metadata9999"/></svg>