<svg xmlns="http://www.w3.org/2000/svg" xmlns:svg="http://www.w3.org/2000/svg" id="svg2" version="1.1" viewBox="0 0 48 48"><defs id="defs4"><linearGradient id="0" x2="0" y1="42.24" y2="5.236" gradientUnits="userSpaceOnUse"><stop id="stop7" stop-color="#66b03e"/><stop id="stop9" offset="1" stop-color="#89c967"/></linearGradient><linearGradient id="1" x1="21.87" x2="33.437" y1="48" y2="10.638" gradientUnits="userSpaceOnUse"><stop id="stop12" stop-color="#fff"/><stop id="stop14" offset="1" stop-color="#fff" stop-opacity="0"/></linearGradient></defs><g id="g16" transform="matrix(-1,0,0,-1,45.978,47.24)"><path id="path18" d="m 14.541,16.472 c -3.44996,4.06405 -6.01244,8.20578 -7.40116,11.7124 -0.694363,1.75332 -1.10167,3.36018 -1.13985,4.77119 -0.03818,1.41101 0.318711,2.73004 1.31187,3.57313 l 5.0268,4.2672 a 1.05011,1.05011 0 0 0 1.49761,-0.122395 l 7.1188,-8.3859 a 1.05011,1.05011 0 0 0 -0.122396,-1.49761 l -3.5735,-3.0336 c -0.536541,-0.455468 -0.599461,-1.22535 -0.143992,-1.76189 l 8.6558,-10.1965 c 0.455468,-0.536541 1.22535,-0.599461 1.76189,-0.143993 l 3.5735,3.0336 a 1.05011,1.05011 0 0 0 1.49761,-0.122394 l 7.1188,-8.3859 a 1.05011,1.05011 0 0 0 -0.122394,-1.49761 l -5.0268,-4.2672 c -0.993162,-0.843093 -2.35264,-0.981078 -3.73872,-0.714303 -1.38608,0.266776 -2.90549,0.929582 -4.5228,1.89942 -3.23462,1.93966 -6.90533,5.14062 -10.3553,9.20468 l -1.4157,1.6676 z" opacity=".2"/><path id="path20" fill="url(#0)" d="m 14.541,17.7717 c -3.44996,4.06405 -6.01244,8.20578 -7.40116,11.7124 -0.694363,1.75332 -1.10167,3.36018 -1.13985,4.77119 -0.03818,1.41101 0.318711,2.73004 1.31187,3.57313 l 5.0268,4.2672 a 1.05011,1.05011 0 0 0 1.49761,-0.122395 l 7.1188,-8.3859 a 1.05011,1.05011 0 0 0 -0.122396,-1.49761 l -3.5735,-3.0336 c -0.536541,-0.455468 -0.599461,-1.22535 -0.143992,-1.76189 l 8.6558,-10.1965 c 0.455468,-0.536541 1.22535,-0.599461 1.76189,-0.143993 l 3.5735,3.0336 a 1.05011,1.05011 0 0 0 1.49761,-0.122394 l 7.1188,-8.3859 a 1.05011,1.05011 0 0 0 -0.122394,-1.49761 l -5.0268,-4.2672 c -0.993162,-0.843093 -2.35264,-0.981078 -3.73872,-0.714303 -1.38608,0.266776 -2.90549,0.929582 -4.5228,1.89942 -3.23462,1.93966 -6.90533,5.14062 -10.3553,9.20468 l -1.4157,1.6676 z"/><g id="g22" fill="none" transform="matrix(0.64716,-0.76235,0.76235,0.64716,-20.771,17.842)"><path id="path24" stroke="#000" d="m 22.9062,27.3438 c -5.28955,0 -10.0558,0.717736 -13.5625,1.90625 -1.75356,0.594329 -3.21055,1.28993 -4.25,2.125 -1.03463,0.831206 -1.6875,1.8464 -1.6875,2.96875 l 0,6.59375 c -2.969e-4,0.025 -9.487e-4,0.0063 0,0.03125 9.487e-4,0.02498 -0.00219,0.0063 0,0.03125 0.00219,0.02491 -0.00343,0.0065 0,0.03125 0.00343,0.02477 -0.00466,0.0067 0,0.03125 0.00466,0.02456 -0.00588,0.0069 0,0.03125 0.00588,0.0243 -0.00708,0.0073 0,0.03125 0.00708,0.02398 0.022985,0.0077 0.03125,0.03125 0.00827,0.0236 -0.00943,0.0081 0,0.03125 0.010572,0.02266 0.019563,0.0091 0.03125,0.03125 0.011687,0.0221 -0.012774,0.0098 0,0.03125 0.012774,0.02149 0.017422,0.01042 0.03125,0.03125 0.013828,0.02083 -0.014849,0.01114 0,0.03125 0.014849,0.02011 0.015418,-0.01935 0.03125,0 0.015832,0.01935 -0.016776,0.01271 0,0.03125 0.016776,0.01854 0.013571,0.01357 0.03125,0.03125 0.017679,0.01768 0.012712,0.01447 0.03125,0.03125 0.018538,0.01678 0.0119,-0.01583 0.03125,0 0.01935,0.01583 -0.020115,0.0164 0,0.03125 0.020115,0.01485 0.010421,-0.01383 0.03125,0 0.020829,0.01383 0.00976,0.01848 0.03125,0.03125 0.021492,0.01277 0.00915,-0.01169 0.03125,0 0.022102,0.01169 0.00859,0.02068 0.03125,0.03125 0.023155,0.0094 0.00765,-0.0083 0.03125,0 0.023596,0.0083 0.00727,0.02417 0.03125,0.03125 0.023978,0.0071 0.00695,-0.0059 0.03125,0 0.024301,0.0059 0.00669,-0.0047 0.03125,0 0.024564,0.0047 0.00648,-0.0034 0.03125,0 0.024765,0.0034 0.00634,-0.0022 0.03125,0 0.024906,0.0022 0.00627,-9.49e-4 0.03125,0 0.024984,9.49e-4 0.00625,2.97e-4 0.03125,0 l 11,0 c 0.025,2.97e-4 0.0063,9.49e-4 0.03125,0 0.02498,-9.49e-4 0.0063,0.0022 0.03125,0 0.02491,-0.0022 0.0065,0.0034 0.03125,0 0.02477,-0.0034 0.0067,0.0047 0.03125,0 0.02456,-0.0047 0.0069,0.0059 0.03125,0 0.0243,-0.0059 0.0073,0.0071 0.03125,0 0.02398,-0.0071 0.0077,-0.02298 0.03125,-0.03125 0.0236,-0.0083 0.0081,0.0094 0.03125,0 0.02266,-0.01057 0.0091,-0.01956 0.03125,-0.03125 0.0221,-0.01169 0.0098,0.01277 0.03125,0 0.02149,-0.01277 0.01042,-0.01742 0.03125,-0.03125 0.02083,-0.01383 0.01113,0.01485 0.03125,0 0.02012,-0.01485 -0.01935,-0.01542 0,-0.03125 0.01935,-0.01583 0.01271,0.01678 0.03125,0 0.01854,-0.01678 0.01357,-0.01357 0.03125,-0.03125 0.01768,-0.01768 0.01447,-0.01271 0.03125,-0.03125 0.01678,-0.01854 -0.01583,-0.0119 0,-0.03125 0.01583,-0.01935 0.0164,0.02011 0.03125,0 0.01485,-0.02011 -0.01383,-0.01042 0,-0.03125 0.01383,-0.02083 0.01848,-0.0098 0.03125,-0.03125 0.01277,-0.02149 -0.01169,-0.0091 0,-0.03125 0.01169,-0.0221 0.02068,-0.0086 0.03125,-0.03125 0.0094,-0.02316 -0.0083,-0.0077 0,-0.03125 0.0083,-0.0236 0.02417,-0.0073 0.03125,-0.03125 0.0071,-0.02398 -0.0059,-0.0069 0,-0.03125 0.0059,-0.0243 -0.0047,-0.0067 0,-0.03125 0.0047,-0.02456 -0.0034,-0.0065 0,-0.03125 0.0034,-0.02477 -0.0022,-0.0063 0,-0.03125 0.0022,-0.02491 -9.49e-4,-0.0063 0,-0.03125 9.49e-4,-0.02498 2.97e-4,-0.0063 0,-0.03125 l 0,-4.6875 c 0,-0.939277 0.779473,-1.71875 1.71875,-1.71875 l 13.375,0 c 0.939277,0 1.71875,0.779473 1.71875,1.71875 l 0,4.6875 c -2.97e-4,0.025 -9.49e-4,0.0063 0,0.03125 9.49e-4,0.02498 -0.0022,0.0063 0,0.03125 0.0022,0.02491 -0.0034,0.0065 0,0.03125 0.0034,0.02477 -0.0047,0.0067 0,0.03125 0.0047,0.02456 -0.0059,0.0069 0,0.03125 0.0059,0.0243 -0.0071,0.0073 0,0.03125 0.0071,0.02398 0.02298,0.0077 0.03125,0.03125 0.0083,0.0236 -0.0094,0.0081 0,0.03125 0.01057,0.02266 0.01956,0.0091 0.03125,0.03125 0.01169,0.0221 -0.01277,0.0098 0,0.03125 0.01277,0.02149 0.01742,0.01042 0.03125,0.03125 0.01383,0.02083 -0.01485,0.01114 0,0.03125 0.01485,0.02011 0.01542,-0.01935 0.03125,0 0.01583,0.01935 -0.01678,0.01271 0,0.03125 0.01678,0.01854 0.01357,0.01357 0.03125,0.03125 0.01768,0.01768 0.01271,0.01447 0.03125,0.03125 0.01854,0.01678 0.0119,-0.01583 0.03125,0 0.01935,0.01583 -0.02011,0.0164 0,0.03125 0.02011,0.01485 0.01042,-0.01383 0.03125,0 0.02083,0.01383 0.0098,0.01848 0.03125,0.03125 0.02149,0.01277 0.0091,-0.01169 0.03125,0 0.0221,0.01169 0.0086,0.02068 0.03125,0.03125 0.02316,0.0094 0.0077,-0.0083 0.03125,0 0.0236,0.0083 0.0073,0.02417 0.03125,0.03125 0.02398,0.0071 0.0069,-0.0059 0.03125,0 0.0243,0.0059 0.0067,-0.0047 0.03125,0 0.02456,0.0047 0.0065,-0.0034 0.03125,0 0.02477,0.0034 0.0063,-0.0022 0.03125,0 0.02491,0.0022 0.0063,-9.49e-4 0.03125,0 0.02498,9.49e-4 0.0063,2.97e-4 0.03125,0 l 11,0 c 0.025,2.97e-4 0.0063,9.49e-4 0.03125,0 0.02498,-9.49e-4 0.0063,0.0022 0.03125,0 0.02491,-0.0022 0.0065,0.0034 0.03125,0 0.02477,-0.0034 0.0067,0.0047 0.03125,0 0.02456,-0.0047 0.0069,0.0059 0.03125,0 0.0243,-0.0059 0.0073,0.0071 0.03125,0 0.02398,-0.0071 0.0077,-0.02298 0.03125,-0.03125 0.0236,-0.0083 0.0081,0.0094 0.03125,0 0.02266,-0.01057 0.0091,-0.01956 0.03125,-0.03125 0.0221,-0.01169 0.0098,0.01277 0.03125,0 0.02149,-0.01277 0.01042,-0.01742 0.03125,-0.03125 0.02083,-0.01383 0.01114,0.01485 0.03125,0 0.02011,-0.01485 -0.01935,-0.01542 0,-0.03125 0.01935,-0.01583 0.01271,0.01678 0.03125,0 0.01854,-0.01678 0.01357,-0.01357 0.03125,-0.03125 0.01768,-0.01768 0.01447,-0.01271 0.03125,-0.03125 0.01678,-0.01854 -0.01583,-0.0119 0,-0.03125 0.01583,-0.01935 0.0164,0.02011 0.03125,0 0.01485,-0.02011 -0.01383,-0.01042 0,-0.03125 0.01383,-0.02083 0.01848,-0.0098 0.03125,-0.03125 0.01277,-0.02149 -0.01169,-0.0091 0,-0.03125 0.01169,-0.0221 0.02068,-0.0086 0.03125,-0.03125 0.0094,-0.02316 -0.0083,-0.0077 0,-0.03125 0.0083,-0.0236 0.02417,-0.0073 0.03125,-0.03125 0.0071,-0.02398 -0.0059,-0.0069 0,-0.03125 0.0059,-0.0243 -0.0047,-0.0067 0,-0.03125 0.0047,-0.02456 -0.0034,-0.0065 0,-0.03125 0.0034,-0.02477 -0.0022,-0.0063 0,-0.03125 0.0022,-0.02491 -9.49e-4,-0.0063 0,-0.03125 9.49e-4,-0.02498 2.97e-4,-0.0063 0,-0.03125 l 0,-6.59375 c 0,-1.12235 -0.65287,-2.13754 -1.6875,-2.96875 -1.03945,-0.835075 -2.49644,-1.53067 -4.25,-2.125 C 35.1495,28.06154 30.38325,27.3438 25.0937,27.3438 l -2.1875,0 z" opacity=".4"/><path id="path26" stroke="url(#1)" d="m 22.9062,28.2812 c -5.20255,0 -9.8807,0.733055 -13.25,1.875 C 7.97089,30.727397 6.59872,31.39285 5.68745,32.12495 4.791132,32.845038 4.3437,33.60078 4.3437,34.3437 l 0,6.25 10.3125,0 0,-4.34375 c 0,-1.43453 1.22172,-2.65625 2.65625,-2.65625 l 13.375,0 c 1.43453,0 2.65625,1.22172 2.65625,2.65625 l 0,4.34375 10.3125,0 0,-6.25 c 0,-0.742915 -0.447432,-1.49866 -1.34375,-2.21875 -0.911265,-0.732096 -2.28344,-1.39755 -3.96875,-1.96875 -3.3693,-1.14194 -8.04745,-1.875 -13.25,-1.875 l -2.1875,0 z" opacity=".4"/></g><g id="g28" transform="matrix(0.64716,-0.76235,0.76235,0.64716,0,0)"><path id="path30" d="m -23.04,31.712 11,0 0,1 -11,0 z" opacity=".4"/><path id="path32" d="m 5.956,31.712 11,0 0,1 -11,0 z" opacity=".4"/><g id="g34" fill="#fff"><path id="path36" d="m -23.04,30.712 11,0 0,1 -11,0 z" opacity=".4"/><path id="path38" d="m 5.956,30.712 11,0 0,1 -11,0 z" opacity=".4"/></g></g></g><metadata id="metadata9999"/></svg>