<?xml version="1.0" encoding="UTF-8" standalone="no"?>
<svg xmlns:dc="http://purl.org/dc/elements/1.1/" xmlns:cc="http://creativecommons.org/ns#" xmlns:rdf="http://www.w3.org/1999/02/22-rdf-syntax-ns#" xmlns:svg="http://www.w3.org/2000/svg" xmlns="http://www.w3.org/2000/svg" xmlns:xlink="http://www.w3.org/1999/xlink" version="1.1" id="svg2" viewBox="0 0 48 48">
 <defs id="defs4">
  <linearGradient gradientUnits="userSpaceOnUse" x2="0" y2="44" y1="3" id="1">
   <stop id="stop7" stop-color="#dedede"/>
   <stop id="stop9" stop-color="#f4f4f4" offset="1"/>
  </linearGradient>
  <linearGradient gradientUnits="userSpaceOnUse" x2="7" y2="31" x1="40" y1="3" id="2">
   <stop id="stop12" stop-color="#fff"/>
   <stop id="stop14" stop-opacity="0" stop-color="#fff" offset="1"/>
  </linearGradient>
  <linearGradient gradientUnits="userSpaceOnUse" x2="0" y2="2" y1="44" id="3">
   <stop id="stop17" stop-color="#9ebce5"/>
   <stop id="stop19" stop-color="#5288d1" offset="1"/>
  </linearGradient>
 </defs>
 <rect id="rect21" ry="1.209" height="42" rx="1.209" y="3" opacity="0.1" x="6" width="34.951"/>
 <rect id="rect23" ry="1.209" height="42" rx="1.209" fill="url(#1)" y="2" x="5.986" width="34.951"/>
 <path id="path25" d="M 15 7 H 26.407407 V 9 H 15 z" fill="#fff" opacity="0.3"/>
 <rect id="rect27" ry="1.209" height="42" rx="1.209" fill="url(#3)" y="2" x="6" width="7.01"/>
 <path id="path29" d="M 7.1875 2.5 C 6.783721 2.5 6.5 2.799839 6.5 3.21875 V 42.78125 C 6.5 43.20016 6.783721 43.5 7.1875 43.5 H 39.71875 C 40.12253 43.5 40.4375 43.18503 40.4375 42.78125 V 3.21875 C 40.4375 2.814971 40.12253 2.5 39.71875 2.5 H 7.1875 z" stroke="#000" fill="none" opacity="0.4"/>
 <path id="path31" d="M 12,3 H13 V43 H12 z" opacity="0.4"/>
 <path id="path33" d="M 7.5312 3.5312 V 42.4687 H 39.4062 V 3.5312 H 7.5312 z" stroke="url(#2)" fill="none" opacity="0.78"/>
 <path id="path35" d="M 15 15 H 25.592593 V 17 H 15 z" fill="#fff" opacity="0.3"/>
 <path id="path37" d="M 15 6 H 26.407407 V 8 H 15 z" opacity="0.3"/>
 <path id="path39" d="M 15 19 H 37 V 21 H 15 z" fill="#fff" opacity="0.3"/>
 <path id="path41" d="M 15 10 H 24.777778 V 12 H 15 z" opacity="0.3"/>
 <path id="path43" d="M 15 23 H 28.851852 V 25 H 15 z" fill="#fff" opacity="0.3"/>
 <path id="path45" d="M 15 14 H 25.592593 V 16 H 15 z" opacity="0.3"/>
 <path id="path47" d="M 15 27 H 32.925926 V 29 H 15 z" fill="#fff" opacity="0.3"/>
 <path id="path49" d="M 15 18 H 37 V 20 H 15 z" opacity="0.3"/>
 <path id="path51" d="M 15 31 H 30.481481 V 33 H 15 z" fill="#fff" opacity="0.3"/>
 <path id="path53" d="M 15 22 H 28.851852 V 24 H 15 z" opacity="0.3"/>
 <path id="path55" d="M 15 35 H 32.925926 V 37 H 15 z" fill="#fff" opacity="0.3"/>
 <path id="path57" d="M 15 26 H 32.925926 V 28 H 15 z" opacity="0.3"/>
 <path id="path59" d="M 15 39 H 36.18518 V 41 H 15 z" fill="#fff" opacity="0.3"/>
 <path id="path61" d="M 15 30 H 30.481481 V 32 H 15 z" opacity="0.3"/>
 <path id="path63" d="M 15 34 H 32.925926 V 36 H 15 z" opacity="0.3"/>
 <path id="path65" d="M 15 38 H 36.18518 V 40 H 15 z" opacity="0.3"/>
 <path d="M 11 15.5 A 1.5 1.5 0 1 1 8 15.5 1.5 1.5 0 1 1 11 15.5 z" id="0" fill="#fff"/>
 <use id="use68" transform="matrix(1 0 0 1 0 15)" xlink:href="#0"/>
 <metadata id="metadata9999">
  <rdf:RDF>
   <cc:Work>
    <dc:format>image/svg+xml</dc:format>
    <dc:type rdf:resource="http://purl.org/dc/dcmitype/StillImage"/>
    <dc:title>Ivy icon theme</dc:title>
    <cc:license rdf:resource="http://creativecommons.org/licenses/by-sa/4.0/"/>
    <dc:creator>
     <cc:Agent>
      <dc:title>Sixsixfive (sixsixfive.deviantart.com)</dc:title>
     </cc:Agent>
    </dc:creator>
    <dc:publisher>
     <cc:Agent>
      <dc:title>Sixsixfive (sixsixfive.deviantart.com)</dc:title>
     </cc:Agent>
    </dc:publisher>
    <dc:source>https://github.com/sixsixfive</dc:source>
    <dc:subject>
     <rdf:Bag>
      <rdf:li>ivy</rdf:li>
     </rdf:Bag>
    </dc:subject>
    <dc:contributor>
     <cc:Agent>
      <dc:title>ssf</dc:title>
     </cc:Agent>
    </dc:contributor>
    <dc:rights>
     <cc:Agent>
      <dc:title>Sixsixfive (sixisixfive.deviantart.com)</dc:title>
     </cc:Agent>
    </dc:rights>
    <dc:description>A simple icon theme published under CC-BY-SA_V4(http://creativecommons.org/licenses/by-sa/4.0)</dc:description>
    <dc:identifier>SSF</dc:identifier>
   </cc:Work>
  </rdf:RDF>
 </metadata>
 <!--Part of the Ivy icon them published under the CC-BY-SA_V4: http://creativecommons.org/licenses/by-sa/4.0 -->
</svg>
