<svg xmlns="http://www.w3.org/2000/svg" xmlns:svg="http://www.w3.org/2000/svg" id="svg2" version="1.1" viewBox="0 0 48 48"><defs id="defs4"><linearGradient id="0" x2="0" y1="4.972" y2="44.03" gradientUnits="userSpaceOnUse"><stop id="stop7" stop-color="#fff"/><stop id="stop9" offset="1" stop-color="#fff" stop-opacity="0"/></linearGradient><linearGradient id="1" x1="44.15" x2="44.21" y1="4.101" y2="45.04" gradientUnits="userSpaceOnUse"><stop id="stop12" stop-color="#5288d1"/><stop id="stop14" offset="1" stop-color="#a4c1e7"/></linearGradient><radialGradient id="2" cx="41.09" cy="-2.1" r="14" gradientTransform="matrix(-1.42377 0.86859 -0.91413 -1.49843 80.59 -24.535)" gradientUnits="userSpaceOnUse"><stop id="stop17" stop-color="#dadada"/><stop id="stop19" offset="1" stop-color="#fff"/></radialGradient></defs><path id="path21" d="m 44.0691 25.4996 a 20.5 20.4985 0 1 1 -41 0 20.5 20.4985 0 1 1 41 0 z" opacity=".2"/><path id="path23" fill="url(#1)" d="m 44.0691 24.4998 a 20.5 20.4985 0 1 1 -41 0 20.5 20.4985 0 1 1 41 0 z"/><path id="path25" fill="url(#2)" d="m 39 24.505 a 15.5 15.5 0 0 1 -31 0 15.5 15.5 0 1 1 31 0 z"/><g id="g27" fill="none"><path id="path29" stroke="#000" d="m 24.1628,4.4998 a 20,19.9986 0 0 0 -20.5937,20 20,19.9986 0 0 0 40,0 20,19.9986 0 0 0 -19.4062,-20 z" opacity=".4"/><path id="path31" stroke="url(#0)" d="m 24.1338,5.4803 a 19.0244,19.023 0 0 0 -19.5892,19.0244 19.0244,19.023 0 0 0 38.0488,0 A 19.0244,19.023 0 0 0 24.1338,5.4803 Z" opacity=".4"/></g><g id="g33" fill="#171717"><path id="path35" d="m 15.5024,24 a 0.966667,0.966667 0 1 1 -1.93333,0 0.966667,0.966667 0 1 1 1.93333,0 z" opacity=".8"/><path id="path37" d="m 33.5691,24 a 0.966667,0.966667 0 1 1 -1.93333,0 0.966667,0.966667 0 1 1 1.93333,0 z" opacity=".8"/><path id="path39" d="m 23.5691,16 a 0.966667,0.966667 0 1 1 0,-1.93333 0.966667,0.966667 0 1 1 0,1.93333 z" opacity=".8"/><path id="path41" d="m 23.5691,34.9333 a 0.966667,0.966667 0 1 1 0,-1.93333 0.966667,0.966667 0 1 1 0,1.93333 z" opacity=".8"/></g><path id="path43" fill="#fff" d="M 23.9375 10 A 15.5 15.5 0 0 0 8 25.5 15.5 15.5 0 0 0 39 25.5 15.5 15.5 0 0 0 23.9375 10 z m -0.03125 1 A 14.5 14.5 0 0 1 38 25.5 14.5 14.5 0 0 1 9 25.5 14.5 14.5 0 0 1 23.90625 11 z" opacity=".379"/><path id="path45" fill="#171717" d="m 19.6197,17.457 -0.25,1.7188 2.25,4.5625 a 2.41667,2.41667 0 0 0 -0.40625,1.3125 2.41667,2.41667 0 0 0 0.875,1.875 l -1.4375,2.75 0.2188,1.6875 1.5,-0.8125 1.625,-3.125 a 2.41667,2.41667 0 0 0 2.0625,-2.375 2.41667,2.41667 0 0 0 -2.78125,-2.375 l -2.1562,-4.375 -1.5,-0.8438 z" opacity=".8"/><path id="path47" d="M 23.9375 9 A 15.5 15.5 0 0 0 8 24.5 15.5 15.5 0 0 0 39 24.5 15.5 15.5 0 0 0 23.9375 9 z m -0.03125 1 A 14.5 14.5 0 0 1 38 24.5 14.5 14.5 0 0 1 9 24.5 14.5 14.5 0 0 1 23.90625 10 z" opacity=".6"/><metadata id="metadata9999"/></svg>