<svg xmlns="http://www.w3.org/2000/svg" xmlns:svg="http://www.w3.org/2000/svg" xmlns:xlink="http://www.w3.org/1999/xlink" id="svg2" version="1.1" viewBox="0 0 48 48"><defs id="defs4"><linearGradient id="0" x1="19" x2="25" y1="25" y2="47" gradientUnits="userSpaceOnUse" xlink:href="#1"/><linearGradient id="1"><stop id="stop8" stop-color="#fff"/><stop id="stop10" offset="1" stop-color="#fff" stop-opacity="0"/></linearGradient><linearGradient id="2" x1="40" x2="26" y1="40" y2="15" gradientUnits="userSpaceOnUse"><stop id="stop13" stop-color="#ebebeb"/><stop id="stop15" offset="1" stop-color="#d7d7d7"/></linearGradient><linearGradient id="3" x1="42" x2="46" y1="6" y2="27" gradientUnits="userSpaceOnUse" xlink:href="#1"/><linearGradient id="4" x1="41" x2="36" y1="6" y2="27" gradientUnits="userSpaceOnUse" xlink:href="#1"/><radialGradient id="5" cx="34" cy="9.33" r="12.159" gradientTransform="matrix(1.06917 -1.06917 0.73365 0.73365 -9.197 38.506)" gradientUnits="userSpaceOnUse"><stop id="stop20" stop-color="#ebebeb"/><stop id="stop22" offset="1" stop-color="#b8b8b8"/></radialGradient></defs><g id="g24" color="#000"><path id="path26" d="m 16.0625,5.9379 c -0.374774,0.027007 -0.768496,0.082 -1.15625,0.15625 l -0.15625,0 -1.75,1.625 4.1875,3.9688 0.2188,2.8438 -2.625,2.4063 -3.125,-0.375 -3.8438,-3.5938 -1.75,1.7188 -0.0312,0.1562 c -0.314942,3.00744 1.10458,5.8539 3.40625,7.5 2.21014,1.58063 5.28452,2.00406 8.34375,0.46875 l 3.1562,3.25 c -1.2521,-0.196012 -2.9489,0.355436 -3.78125,1.5 -3.41566,4.71295 -9.02285,8.48433 -10.2812,8.9375 -2.40804,0.867167 -2.12438,4.42249 -0.53125,6.125 l 1.8438,2.0312 c 1.33889,1.50245 5.06951,2.19142 6.71875,-0.71875 0.719087,-1.26887 2.11424,-4.82133 8.40625,-10.5312 0.795525,-0.721108 1.63434,-2.15048 1.59375,-3.3125 l 11.625,11.875 c 0.514546,0.588053 1.38415,0.998258 2.40625,1.09375 1.0221,0.09549 2.19527,-0.172725 3.125,-1.0625 0.884252,-0.846255 1.25621,-1.91859 1.15625,-2.96875 -0.09869,-1.03679 -0.619829,-2.04542 -1.4375,-2.875 l -0.0312,-0.0312 -11.4062,-12.2188 C 33.1583,21.04551 35.87887,18.31209 36.0002,18.188 l 3.125,-0.25 5.2188,-7.25 -4.6875,-4.1875 -6.75,5.8125 0,3.125 -5.3125,5.5312 -3.875,-4.1562 c 1.02873,-3.15007 0.4636,-6.09897 -1.1875,-8.125 -1.27956,-1.57012 -3.19609,-2.59382 -5.375,-2.75 -0.363152,-0.026029 -0.718976,-0.027007 -1.09375,0 z" opacity=".24"/><path id="path28" fill="url(#2)" stroke="#888a85" d="m 17.9067,21.2157 18.9926,19.4317 c 0.768486,0.87827 3.20351,1.55706 4.83049,0 1.57113,-1.50361 1.20762,-3.62286 -0.329351,-5.15984 l -18.2241,-19.5415 c 2.25,-6.25 -2.30389,-11.4996 -8.17889,-10.3746 l -1.2625,1.1527 3.9522,3.7326 0.2196,3.2935 -2.9508,2.6936 -3.5264,-0.3881 -3.6229,-3.4033 c 0,0 -1.27012,1.2549 -1.27012,1.2549 -0.590764,5.64132 5.30773,10.6832 11.3702,7.30823 z"/><path id="path30" fill="none" stroke="url(#3)" d="m 18.1174,19.9401 19.2029,20.0276 c 0.594907,0.679893 2.47993,1.20537 3.73941,0 1.21625,-1.16399 0.934853,-2.80456 -0.25496,-3.99437 l -18.4915,-19.6212 c 1.5,-6.5 -1.85879,-10.0046 -6.85879,-9.87964 l -0.2701,0.2734 3.6029,3.2363 0.1302,4.1818 -3.6139,3.2985 -4.2423,-0.4582 -3.1766,-2.9915 -0.3526,0.4301 c -0.3125,5.96875 6.49172,8.68476 10.5855,5.49726 z"/><path id="path32" fill="url(#5)" stroke="#000" stroke-opacity=".502" d="M 22.4988,30.1254 C 23.332341,29.410937 35.7826,16.6769 35.7826,16.6769 l 3.0739,-0.2196 4.8305,-6.6968 -4.0243,-3.5852 -6.2577,5.3794 0,3.07395 -12.7349,13.2289 c -0.60381,0.60381 1.06017,2.92649 1.82865,2.26779 z"/><path id="path34" fill="none" stroke="url(#4)" d="M 22.402,29.0855 C 23.048773,28.531123 35.4264,15.8557 35.4264,15.8557 l 2.9286,-0.248 4.2139,-5.6621 -2.8897,-2.549 -5.4766,4.7175 0.1553,2.851 -12.6761,13.2923 c -0.468518,0.468518 0.123961,1.33922 0.720256,0.82811 z"/><path id="path36" fill="#5288d1" d="m 8.1868,43.662 c 1.33889,1.50245 5.05795,2.18222 6.70719,-0.727948 0.719087,-1.26887 2.12942,-4.82226 8.42143,-10.5322 1.05675,-0.957899 2.17617,-3.14915 1.22719,-4.33116 l -2.4562,-2.4766 c -1.00479,-1.12572 -3.79769,-0.600628 -4.94354,0.975029 -3.41566,4.71295 -8.99595,8.46457 -10.2544,8.91774 -2.40804,0.867167 -2.13701,4.44629 -0.543885,6.14881 l 1.8421,2.0263 z"/><g id="g38" fill="none"><path id="path40" stroke="#000" d="m 20.9375,25.5625 c -0.341154,-0.0683 -0.762961,-0.05107 -1.1875,0.03125 -0.850833,0.16498 -1.68245,0.629731 -2.15625,1.28125 -1.749,2.41327 -4.04979,4.54632 -6.0625,6.15625 -1.00635,0.804966 -1.94628,1.49838 -2.71875,2 C 8.04003,35.532873 7.47884,35.850071 7.0625,36 6.080439,36.35365 5.65222,37.18564 5.625,38.25 c -0.027223,1.06436 0.411439,2.27084 1.09375,3 a 0.526444,0.526444 0 0 1 0,0.03125 l 1.8438,2.0312 a 0.526444,0.526444 0 0 1 0.03125,0 c 0.534476,0.599766 1.68574,1.1283 2.84375,1.125 1.15801,-0.0033 2.26811,-0.458537 3,-1.75 0.327647,-0.57815 0.907273,-1.86158 2.15625,-3.65625 1.24898,-1.79467 3.2031,-4.12154 6.375,-7 0.447553,-0.405687 0.960794,-1.15002 1.21875,-1.875 0.251507,-0.706852 0.257682,-1.32818 -0.03125,-1.71875 l -0.0312,-0.0312 -2.4062,-2.4375 A 0.526444,0.526444 0 0 1 21.68765,25.9375 c -0.15543,-0.174137 -0.408846,-0.306702 -0.75,-0.375 z" opacity=".613"/><path id="path42" stroke="url(#0)" d="m 19.9375,26.5312 c -0.629516,0.122066 -1.26342,0.509654 -1.5625,0.90625 -1.82403,2.51681 -4.1887,4.69495 -6.25,6.34375 -1.03065,0.824398 -1.97878,1.51014 -2.78125,2.03125 -0.802473,0.521108 -1.36697,0.87704 -1.96875,1.09375 -0.577477,0.207957 -0.760819,0.576187 -0.78125,1.375 -0.020431,0.798813 0.369701,1.83715 0.84375,2.34375 l 1.8438,2.0312 c 0.288451,0.323687 1.2683,0.81503 2.15625,0.8125 0.887945,-0.0025 1.62463,-0.256788 2.1875,-1.25 0.269505,-0.475556 0.895136,-1.86174 2.1875,-3.71875 1.29236,-1.85701 3.2809,-4.26621 6.5,-7.1875 0.30023,-0.272145 0.771418,-0.945404 0.96875,-1.5 0.197332,-0.554596 0.108781,-0.793778 0.09375,-0.8125 -1.21189,-1.53959 -1.9816,-2.36886 -3.4375,-2.46875 z" opacity=".35"/></g></g><metadata id="metadata9999"/></svg>