<svg xmlns="http://www.w3.org/2000/svg" xmlns:svg="http://www.w3.org/2000/svg" xmlns:xlink="http://www.w3.org/1999/xlink" id="svg2" version="1.1" viewBox="0 0 48 48"><defs id="defs4"><linearGradient id="0" x2="0" y1="10.765" y2="40.485" gradientUnits="userSpaceOnUse"><stop id="stop7" stop-color="#fff"/><stop id="stop9" offset="1" stop-color="#fff" stop-opacity="0"/></linearGradient><linearGradient id="1" x2="0" y1="9.966" y2="41.29" gradientUnits="userSpaceOnUse"><stop id="stop12" stop-color="#bababa"/><stop id="stop14" offset="1" stop-color="#ebebeb"/></linearGradient></defs><path id="path3368" d="m 44.002139,25.000198 a 20.00007,20.000037 0 1 1 -40.0000211,0 20.00007,20.000037 0 1 1 40.0000211,0 z" opacity=".1"/><path id="path23" fill="url(#1)" d="m 44.7458 25.6271 a 16.8814 15.661 0 1 1 -33.7627 0 16.8814 15.661 0 1 1 33.7627 0 z" transform="matrix(1.18474 0 0 1.27706 -9.01 -8.727)"/><g id="g25" fill="none" stroke-width=".813"><path id="path27" stroke="url(#0)" d="m 27.875,11.1562 c -8.7313,0 -15.7188,6.51002 -15.7188,14.4688 0,7.95873 6.98745,14.4688 15.7188,14.4688 8.7313,0 15.6875,-6.50717 15.6875,-14.4688 0,-7.96158 -6.9562,-14.4688 -15.6875,-14.4688 z" opacity=".7" transform="matrix(1.18474,0,0,1.27706,-9.01,-8.727)"/><path id="path29" stroke="#000" d="m 27.875,10.375 c -9.11523,0 -16.5,6.84339 -16.5,15.25 0,8.40661 7.38477,15.25 16.5,15.25 9.11523,0 16.4688,-6.84239 16.4688,-15.25 0,-8.40761 -7.35352,-15.25 -16.4688,-15.25 z" opacity=".4" transform="matrix(1.18474,0,0,1.27706,-9.01,-8.727)"/></g><g id="g31" fill="#fff"><path id="3" d="M 28.1844,23.8816 12.0272,32.5963 12.3465,14.5991 Z" transform="matrix(0.99984,-0.01774,0.01774,0.99984,5.396,2.622)"/></g><g id="g34" fill="#6a6a6a"><use id="use36" width="48" height="48" x="0" y="0" transform="translate(0,-1)" xlink:href="#3"/></g><metadata id="metadata9999"/></svg>