<svg xmlns="http://www.w3.org/2000/svg" xmlns:svg="http://www.w3.org/2000/svg" xmlns:xlink="http://www.w3.org/1999/xlink" id="svg2" version="1.1" viewBox="0 0 48 48"><defs id="defs4"><linearGradient id="0"><stop id="stop7" stop-color="#fff"/><stop id="stop9" offset="1" stop-color="#fff" stop-opacity="0"/></linearGradient><linearGradient id="1" x2="0" y1="12.554" y2="35.879" gradientTransform="matrix(1.0003 0 0 0.98351 -0.007 0.771)" gradientUnits="userSpaceOnUse" xlink:href="#0"/><linearGradient id="2" x2="0" y1="12.233" y2="36.917" gradientUnits="userSpaceOnUse" xlink:href="#0"/><radialGradient id="3" cx="17.354" cy="29.13" r="11.12" gradientTransform="matrix(0 -1.33675 1.43871 0 -17.916 55.774)" gradientUnits="userSpaceOnUse"><stop id="stop14" stop-color="#a4c1e7"/><stop id="stop16" offset="1" stop-color="#5288d1"/></radialGradient><radialGradient id="4" cx="18.87" cy="52.975" r="22.04" gradientTransform="matrix(0.6806 -0.8284 0.7437 0.61101 -27.24 30.1)" gradientUnits="userSpaceOnUse"><stop id="stop19" stop-color="#6a6a6a"/><stop id="stop21" offset="1" stop-color="#dfdfdf"/></radialGradient></defs><g id="g23" fill-rule="evenodd"><path id="path25" d="M 46.3724,25.5765 C 44.13516,32.28827 36.3495,39 24,39 11.6505,39 3.8648,32.28827 1.6276,25.5765 3.8648,18.86482 11.6505,12.153 24,12.153 c 12.3496,0 20.1352,6.71182 22.3724,13.4235 z" opacity=".1"/><path id="path27" fill="url(#4)" d="M 46.3724,24.5765 C 44.13516,31.28827 36.3495,38 24,38 11.6505,38 3.8648,31.28827 1.6276,24.5765 3.8648,17.86482 11.6505,11.153 24,11.153 c 12.3496,0 20.1352,6.71182 22.3724,13.4235 z"/></g><g id="g29" fill="none"><path id="path31" stroke="#000" d="M 24,11.6702 C 11.94,11.6702 4.4101,18.16368 2.1875,24.5764 4.4101,30.98926 11.94,37.4826 24,37.4826 c 12.0601,0 19.5899,-6.49338 21.8125,-12.9062 C 43.58986,18.16362 36.06005,11.6702 24,11.6702 Z" opacity=".4"/><path id="path33" stroke="url(#2)" d="m 24,12.7327 c -11.4416,0 -18.3794,6.02737 -20.5938,11.8438 2.21435,5.81646 9.15212,11.8437 20.5938,11.8437 11.4417,0 18.3794,-6.02727 20.5938,-11.8438 C 42.37941,18.76 35.44172,12.7327 24,12.7327 Z"/></g><path id="path35" fill="url(#3)" d="m 38.2275 24.5765 a 14.2275 12.4271 0 1 1 -28.455 0 14.2275 12.4271 0 1 1 28.455 0 z"/><path id="path37" fill="#171717" d="m 27.5 24.5765 a 3.5 3.5 0 0 1 -7 0 3.5 3.5 0 1 1 7 0 z"/><g id="g39" fill="none"><g id="g41" stroke-width=".992"><path id="path43" stroke="#000" d="m 23.7187,12.6349 c -0.244288,0.0046 -0.475236,0.01563 -0.718962,0.03073 -0.243726,0.01511 -0.413878,0.0052 -0.656444,0.03073 -0.242567,0.02555 -0.446891,0.05627 -0.687704,0.0922 -0.240813,0.03594 -0.449234,0.0767 -0.687703,0.122939 -0.238469,0.04623 -0.420902,0.09724 -0.656444,0.153673 -0.235542,0.05643 -0.424411,0.08718 -0.656444,0.153673 -0.232034,0.0665 -0.428489,0.13875 -0.656444,0.215143 -0.227956,0.07639 -0.401869,0.129026 -0.625185,0.215143 -0.223316,0.08612 -0.40706,0.180975 -0.625185,0.276612 -0.218124,0.09564 -0.412793,0.17168 -0.625185,0.276612 -0.212391,0.104933 -0.356534,0.193367 -0.562666,0.307347 -0.206132,0.11398 -0.394567,0.215325 -0.593926,0.338082 -0.199358,0.122756 -0.339321,0.20684 -0.531407,0.338081 -0.192085,0.131242 -0.347077,0.260137 -0.531407,0.399551 -0.184329,0.139415 -0.32404,0.252298 -0.500148,0.399551 -0.176107,0.147253 -0.301451,0.244812 -0.468888,0.399551 -0.167438,0.154738 -0.31055,0.29917 -0.468889,0.46102 -0.158339,0.16185 -0.288796,0.292451 -0.437629,0.46102 -0.148833,0.16857 -0.23617,0.286143 -0.375111,0.461021 -0.138941,0.174877 -0.246425,0.310997 -0.375111,0.491754 -0.128686,0.180758 -0.22576,0.3363 -0.343852,0.52249 -0.118091,0.18619 -0.205407,0.331329 -0.312592,0.52249 -0.107185,0.191161 -0.185343,0.326837 -0.281333,0.522489 -0.09599,0.195653 -0.165537,0.353572 -0.250074,0.553225 -0.08454,0.199652 -0.145961,0.350078 -0.218815,0.553224 -0.07285,0.203146 -0.126585,0.347103 -0.187555,0.553224 -0.06097,0.206121 -0.107377,0.375391 -0.156296,0.583959 -0.04892,0.208568 -0.05705,0.342746 -0.09378,0.553224 -0.03673,0.210478 -0.06933,0.372116 -0.09378,0.583959 -0.02445,0.211843 -0.05044,0.3713 -0.06252,0.583959 -0.01208,0.21266 -3.03e-4,0.371036 0,0.583959 a 0.491704,0.483453 0 0 1 0,0.03073 c -0.0087,0.213572 -0.03502,0.370276 -0.03126,0.583959 0.0038,0.213683 0.01502,0.370724 0.03126,0.583959 0.01624,0.213235 0.03385,0.37173 0.06252,0.583959 0.02867,0.212229 0.05277,0.37329 0.09378,0.583959 0.04101,0.210669 0.103049,0.344664 0.156296,0.553224 0.05325,0.20856 0.09097,0.378049 0.156296,0.583959 0.06533,0.205911 0.110319,0.350494 0.187556,0.553224 0.07723,0.202731 0.129885,0.354193 0.218814,0.553225 0.08893,0.199032 0.180956,0.3584 0.281334,0.553224 0.100377,0.194824 0.169778,0.332364 0.281333,0.52249 0.111555,0.190125 0.19016,0.337541 0.312592,0.522489 0.122432,0.184948 0.242129,0.312447 0.375111,0.491755 0.132982,0.179309 0.23193,0.318531 0.375111,0.491755 0.143181,0.173224 0.253366,0.325042 0.40637,0.491755 0.153004,0.166713 0.275201,0.270493 0.437629,0.430286 0.162428,0.159792 0.297457,0.308537 0.468889,0.46102 0.171432,0.152482 0.320153,0.254748 0.500148,0.399551 0.179995,0.144803 0.312049,0.262778 0.500148,0.399551 0.188098,0.136772 0.335684,0.240401 0.531407,0.368816 0.195723,0.128415 0.359813,0.218333 0.562666,0.338081 0.202853,0.119748 0.384453,0.227286 0.593926,0.338082 0.209473,0.110795 0.378359,0.175034 0.593925,0.276612 0.215567,0.101578 0.372805,0.184494 0.593926,0.276612 0.221121,0.09212 0.430319,0.163437 0.656444,0.245878 0.226125,0.08244 0.394619,0.142574 0.625185,0.215142 0.230566,0.07257 0.422009,0.15262 0.656444,0.215143 0.234435,0.06252 0.41872,0.101344 0.656444,0.153674 0.237724,0.05233 0.447278,0.08092 0.687703,0.122938 0.240425,0.04202 0.445172,0.09134 0.687703,0.122939 0.242532,0.0316 0.443664,0.04036 0.687704,0.06147 0.24404,0.02111 0.442757,0.02017 0.687703,0.03073 0.244946,0.01056 0.442455,0.03073 0.687703,0.03073 0.245249,0 0.442757,-0.02017 0.687704,-0.03073 0.244946,-0.01056 0.443663,-0.0096 0.687703,-0.03073 0.24404,-0.02111 0.445172,-0.02987 0.687703,-0.06147 0.242532,-0.0316 0.447278,-0.08092 0.687704,-0.122939 0.240425,-0.04201 0.449979,-0.07061 0.687703,-0.122938 0.237724,-0.05233 0.422009,-0.09115 0.656444,-0.153674 0.234435,-0.06252 0.425878,-0.142574 0.656444,-0.215143 0.230566,-0.07257 0.39906,-0.132702 0.625185,-0.215142 0.226125,-0.08244 0.435322,-0.153759 0.656444,-0.245878 0.221121,-0.09211 0.378359,-0.175034 0.593925,-0.276612 0.215567,-0.101578 0.384453,-0.165817 0.593926,-0.276612 0.209473,-0.110796 0.391073,-0.218334 0.593925,-0.338082 0.202853,-0.119748 0.366944,-0.209666 0.562667,-0.338081 0.195723,-0.128415 0.343308,-0.232044 0.531407,-0.368816 0.188099,-0.136773 0.320153,-0.254748 0.500148,-0.399551 0.179995,-0.144803 0.328716,-0.247069 0.500148,-0.399551 0.171431,-0.152483 0.30646,-0.301228 0.468888,-0.46102 0.162428,-0.159793 0.284625,-0.263573 0.43763,-0.430286 0.153004,-0.166713 0.263188,-0.318531 0.40637,-0.491755 0.143181,-0.173224 0.242128,-0.312446 0.375111,-0.491755 0.132982,-0.179308 0.252678,-0.306807 0.37511,-0.491755 0.122433,-0.184948 0.201038,-0.332364 0.312593,-0.522489 0.111555,-0.190126 0.180955,-0.327666 0.281333,-0.52249 0.100378,-0.194824 0.192404,-0.354192 0.281333,-0.553224 0.08893,-0.199032 0.141578,-0.350494 0.218815,-0.553225 0.07723,-0.20273 0.122223,-0.347313 0.187555,-0.553224 0.06533,-0.20591 0.10305,-0.375399 0.156297,-0.583959 0.05324,-0.20856 0.115283,-0.342555 0.156296,-0.553224 0.04101,-0.210669 0.06511,-0.37173 0.09378,-0.583959 0.02867,-0.212229 0.04628,-0.370724 0.06252,-0.583959 0.01624,-0.213235 0.0275,-0.370276 0.03126,-0.583959 0.0038,-0.213683 -0.02254,-0.370387 -0.03126,-0.583959 a 0.491704,0.483453 0 0 1 0,-0.03073 c 3.01e-4,-0.205326 0.01122,-0.348133 0,-0.553224 -0.01122,-0.205091 -0.0398,-0.379598 -0.06252,-0.583959 -0.02272,-0.204361 -0.02837,-0.350088 -0.06252,-0.553224 -0.03415,-0.203136 -0.07954,-0.351801 -0.125037,-0.553225 -0.04549,-0.201423 -0.06831,-0.353996 -0.125037,-0.553224 -0.05673,-0.199227 -0.119747,-0.325932 -0.187555,-0.522489 -0.06781,-0.196558 -0.108837,-0.359806 -0.187556,-0.553225 -0.07872,-0.193419 -0.160644,-0.332664 -0.250074,-0.522489 -0.08943,-0.189826 -0.150158,-0.336704 -0.250074,-0.52249 -0.09992,-0.185786 -0.17118,-0.310442 -0.281333,-0.491755 -0.110152,-0.181313 -0.192476,-0.315335 -0.312592,-0.491755 -0.120117,-0.17642 -0.214067,-0.320633 -0.343852,-0.491755 -0.129785,-0.171122 -0.235973,-0.295588 -0.375111,-0.46102 -0.139138,-0.165432 -0.258217,-0.301654 -0.40637,-0.46102 C 34.605058,16.901315 34.472394,16.783334 34.31558,16.630395 34.15877,16.477457 34.04305,16.346278 33.877952,16.20011 33.712856,16.05395 33.582056,15.939643 33.409065,15.800573 33.23607,15.661503 33.08939,15.563418 32.908917,15.431757 32.72844,15.300095 32.596308,15.186902 32.408769,15.06294 32.22123,14.938979 32.07152,14.840845 31.877362,14.724859 31.6832,14.608873 31.515031,14.525267 31.3147,14.417512 31.11436,14.309757 30.958073,14.240186 30.752029,14.1409 30.545985,14.04161 30.369379,13.954888 30.1581,13.864288 29.946828,13.773688 29.7802,13.700124 29.564178,13.61841 29.348156,13.5367 29.15927,13.475917 28.938993,13.403268 c -0.220272,-0.07265 -0.401167,-0.120982 -0.625184,-0.184409 -0.224018,-0.06343 -0.397936,-0.09961 -0.625185,-0.153673 -0.227249,-0.05406 -0.426481,-0.109089 -0.656444,-0.153673 -0.229963,-0.04458 -0.424293,-0.08793 -0.656444,-0.122939 -0.232152,-0.03501 -0.422632,-0.03612 -0.656444,-0.06147 -0.233813,-0.02535 -0.421506,-0.04582 -0.656444,-0.06147 -0.234939,-0.01565 -0.420913,-0.02483 -0.656445,-0.03073 -0.244253,-0.0059 -0.443415,-0.0046 -0.687703,0 z" opacity=".4"/><path id="path45" stroke="url(#1)" d="m 23.7499,13.6184 c -0.225722,0.0042 -0.453247,0.0162 -0.687703,0.03073 -0.300939,0.01866 -0.45995,0.01333 -0.625185,0.03073 -0.217048,0.02287 -0.383761,0.05618 -0.625185,0.0922 -0.21425,0.03197 -0.417019,0.07652 -0.656444,0.122938 -0.19605,0.03801 -0.33891,0.06184 -0.593925,0.122939 -0.274212,0.0657 -0.454212,0.104681 -0.625185,0.153674 -0.190318,0.05453 -0.380859,0.133263 -0.625185,0.215142 -0.242356,0.08122 -0.375081,0.11207 -0.562666,0.184408 -0.163902,0.06321 -0.341595,0.165978 -0.593926,0.276613 -0.240406,0.105406 -0.396613,0.163839 -0.562666,0.245877 -0.17276,0.08535 -0.306057,0.152005 -0.531407,0.276612 -0.212404,0.117448 -0.394033,0.20351 -0.562666,0.307347 -0.203753,0.125462 -0.330868,0.222422 -0.500148,0.338082 -0.146658,0.100203 -0.262959,0.213064 -0.468889,0.368816 -0.170974,0.129314 -0.299553,0.227225 -0.468888,0.368816 -0.188573,0.157676 -0.299129,0.24082 -0.43763,0.368816 -0.148166,0.136928 -0.281964,0.240434 -0.437629,0.399551 -0.162304,0.165903 -0.279789,0.286918 -0.40637,0.430286 -0.12464,0.141168 -0.196114,0.244335 -0.343852,0.430285 -0.13798,0.173668 -0.230082,0.301216 -0.343852,0.46102 -0.109419,0.153694 -0.19236,0.271455 -0.312592,0.461021 -0.111669,0.176063 -0.181764,0.314176 -0.281333,0.491755 -0.109859,0.195929 -0.167917,0.293563 -0.250074,0.46102 -0.08653,0.176363 -0.137191,0.298982 -0.218815,0.491755 -0.08207,0.193828 -0.153172,0.339451 -0.218815,0.522489 -0.07488,0.208806 -0.104551,0.316823 -0.156296,0.491755 -0.05794,0.195875 -0.08066,0.333292 -0.125037,0.52249 -0.0331,0.141121 -0.04914,0.235977 -0.09378,0.491755 -0.039,0.223487 -0.07419,0.383451 -0.09378,0.553224 -0.02709,0.234726 -0.05337,0.361415 -0.06252,0.52249 -0.0085,0.149297 -3.53e-4,0.274211 0,0.522489 a 1.01063,0.993666 0 0 1 0,0.06147 1.01063,0.993666 0 0 1 0,0.122938 c -8.32e-4,0.01251 8.42e-4,0.01897 0,0.03073 a 1.01063,0.993666 0 0 1 -0.03126,0.0922 c -0.0071,0.08855 -0.0012,0.210569 0,0.276612 0.0033,0.187786 0.01519,0.342086 0.03126,0.553225 0.01496,0.196419 0.03538,0.321584 0.06252,0.522489 0.02772,0.205214 0.0569,0.333072 0.09378,0.52249 0.02052,0.105372 0.05154,0.203913 0.125037,0.491755 0.05729,0.224385 0.104984,0.360766 0.156296,0.522489 0.06611,0.208353 0.08921,0.346396 0.156296,0.52249 0.08231,0.216068 0.146744,0.330455 0.218815,0.491755 0.06557,0.146751 0.137571,0.273398 0.250074,0.491755 0.102166,0.198296 0.153279,0.326786 0.250074,0.491755 0.121862,0.20769 0.184949,0.315422 0.281333,0.46102 0.074,0.11178 0.175148,0.233547 0.343851,0.46102 0.1391,0.187558 0.224098,0.316139 0.343852,0.46102 0.165408,0.200115 0.264873,0.310172 0.375111,0.430286 0.113463,0.12363 0.219452,0.215665 0.40637,0.399551 0.186132,0.183112 0.312883,0.319328 0.437629,0.430285 0.122505,0.108964 0.226967,0.199342 0.43763,0.368817 0.200712,0.161469 0.322355,0.262266 0.468888,0.368816 0.181121,0.131699 0.318119,0.218651 0.500148,0.338081 0.159975,0.104961 0.313766,0.178869 0.531407,0.307347 0.203568,0.12017 0.347594,0.240858 0.531407,0.338082 0.153423,0.08115 0.311337,0.127448 0.562667,0.245877 0.236134,0.11127 0.38366,0.171304 0.562666,0.245878 0.182824,0.07616 0.355434,0.158928 0.593926,0.245877 0.222887,0.08126 0.381591,0.117579 0.593925,0.184408 0.281389,0.08857 0.435673,0.172938 0.593926,0.215143 0.207302,0.05528 0.382787,0.06958 0.625185,0.122939 0.190767,0.042 0.3942,0.07712 0.656444,0.122938 0.277283,0.04846 0.445005,0.09947 0.625184,0.122939 0.194539,0.02535 0.388455,0.03829 0.656444,0.06147 0.193741,0.01676 0.353716,0.01902 0.625185,0.03073 0.277439,0.01197 0.467543,0.03073 0.656444,0.03073 0.188901,0 0.379005,-0.01877 0.656444,-0.03073 0.27147,-0.01171 0.431445,-0.01398 0.625185,-0.03073 0.267989,-0.02318 0.461906,-0.03612 0.656444,-0.06147 0.18018,-0.02348 0.347902,-0.07448 0.625185,-0.122939 0.262244,-0.04582 0.465677,-0.08094 0.656444,-0.122938 0.242398,-0.05336 0.417883,-0.06766 0.625185,-0.122939 0.158253,-0.0422 0.312536,-0.126579 0.593926,-0.215143 0.212333,-0.06683 0.371037,-0.103147 0.593925,-0.184408 0.238492,-0.08695 0.411102,-0.169713 0.593926,-0.245877 0.179006,-0.07457 0.326532,-0.134608 0.562666,-0.245878 0.251329,-0.118429 0.409244,-0.164729 0.562666,-0.245877 0.183814,-0.09722 0.327839,-0.217912 0.531407,-0.338082 0.217642,-0.128478 0.371432,-0.202386 0.531407,-0.307347 0.182029,-0.11943 0.319028,-0.206382 0.500148,-0.338081 0.146534,-0.10655 0.268177,-0.207347 0.468889,-0.368816 0.210662,-0.169475 0.315125,-0.259853 0.437629,-0.368817 0.124746,-0.110957 0.251498,-0.247173 0.43763,-0.430285 0.186918,-0.183886 0.292906,-0.275921 0.40637,-0.399551 0.110237,-0.120114 0.209703,-0.230171 0.375111,-0.430286 0.119754,-0.144881 0.204751,-0.273462 0.343851,-0.46102 0.168703,-0.227473 0.269855,-0.34924 0.343852,-0.46102 0.09639,-0.145598 0.159471,-0.25333 0.281333,-0.46102 0.0968,-0.164969 0.147908,-0.293459 0.250074,-0.491755 0.112502,-0.218357 0.184504,-0.345004 0.250074,-0.491755 0.07207,-0.1613 0.136496,-0.275687 0.218815,-0.491755 0.06709,-0.176094 0.09019,-0.314137 0.156296,-0.52249 0.05132,-0.161723 0.09901,-0.298104 0.156296,-0.522489 0.07349,-0.287842 0.104523,-0.386383 0.125037,-0.491755 0.03687,-0.189418 0.06606,-0.317276 0.09378,-0.52249 0.02714,-0.200905 0.04756,-0.32607 0.06252,-0.522489 0.01608,-0.211139 0.02796,-0.365439 0.03126,-0.553225 0.0012,-0.06604 0.0071,-0.188058 0,-0.276612 -0.0032,-0.03994 -0.02788,-0.07218 -0.03126,-0.122939 a 1.01063,0.993666 0 0 1 0,-0.122938 1.01063,0.993666 0 0 1 0,-0.06147 c 3.51e-4,-0.239302 0.008,-0.3459 0,-0.491755 -0.0079,-0.144918 -0.03661,-0.289381 -0.06252,-0.522489 -0.02639,-0.237375 -0.03812,-0.377381 -0.06252,-0.52249 -0.02359,-0.140331 -0.07151,-0.254804 -0.125037,-0.491755 -0.05341,-0.236457 -0.0542,-0.352736 -0.09378,-0.491755 -0.03433,-0.120565 -0.101,-0.240852 -0.187556,-0.491755 -0.08265,-0.23958 -0.105445,-0.366811 -0.156296,-0.491755 -0.05103,-0.125369 -0.109672,-0.229352 -0.218815,-0.46102 -0.09966,-0.211528 -0.173943,-0.350195 -0.250074,-0.491755 -0.09442,-0.175553 -0.146089,-0.259124 -0.250074,-0.430285 -0.108908,-0.179265 -0.17409,-0.303509 -0.281333,-0.46102 -0.126229,-0.185399 -0.205748,-0.320146 -0.312592,-0.461021 -0.112257,-0.14801 -0.202434,-0.231409 -0.343852,-0.399551 -0.132306,-0.157309 -0.238505,-0.28334 -0.375111,-0.430285 -0.113037,-0.121593 -0.231722,-0.229218 -0.40637,-0.399551 -0.185455,-0.180873 -0.290199,-0.296699 -0.40637,-0.399551 -0.16256,-0.143921 -0.250213,-0.243279 -0.40637,-0.368816 -0.136542,-0.109769 -0.27087,-0.193623 -0.468889,-0.338082 -0.213508,-0.155738 -0.335337,-0.249784 -0.468883,-0.338058 -0.185824,-0.122829 -0.325158,-0.202814 -0.500148,-0.307347 -0.157039,-0.09381 -0.315256,-0.191084 -0.531407,-0.307347 -0.166867,-0.08975 -0.280285,-0.139932 -0.500148,-0.245877 -0.209956,-0.101172 -0.378846,-0.167051 -0.562666,-0.245878 -0.216544,-0.09286 -0.373807,-0.174438 -0.562667,-0.245877 -0.188501,-0.07131 -0.338363,-0.110429 -0.562666,-0.184408 -0.190235,-0.06275 -0.362076,-0.118764 -0.593926,-0.184408 -0.188571,-0.0534 -0.352296,-0.09619 -0.593925,-0.153674 -0.24836,-0.05909 -0.410104,-0.0873 -0.593926,-0.122939 -0.245917,-0.04768 -0.433056,-0.09396 -0.625185,-0.122938 -0.153436,-0.02314 -0.335118,-0.03002 -0.625184,-0.06147 -0.234149,-0.02539 -0.382073,-0.04736 -0.593926,-0.06147 -0.225676,-0.01503 -0.402809,-0.02516 -0.625185,-0.03073 -0.227396,-0.0054 -0.388014,-0.0045 -0.625185,0 z" opacity=".56"/></g><path id="path47" stroke="#000" stroke-width="1.016" d="m 26.992,24.5765 a 2.991975,2.991975 0 1 1 -5.98395,0 2.991975,2.991975 0 1 1 5.98395,0 z"/></g><metadata id="metadata9999"/></svg>