<svg xmlns="http://www.w3.org/2000/svg" xmlns:svg="http://www.w3.org/2000/svg" xmlns:xlink="http://www.w3.org/1999/xlink" id="svg2" version="1.1" viewBox="0 0 48 48"><defs id="defs4"><linearGradient id="0" x2="0" y1="1025.36" y2="1042.36" gradientUnits="userSpaceOnUse" xlink:href="#4"/><linearGradient id="1" x1="27.803" x2="34.36" y1="1.821" y2="30.774" gradientUnits="userSpaceOnUse"><stop id="stop8" stop-color="#ffd506"/><stop id="stop10" offset="1" stop-color="#ff8b36"/></linearGradient><linearGradient id="2" x2="0" y1="1024.36" y2="1043.36" gradientUnits="userSpaceOnUse"><stop id="stop13" stop-color="#fff"/><stop id="stop15" offset="1" stop-color="#fff"/></linearGradient><linearGradient id="3" x1="26.18" x2="29.605" y1="2.096" y2="22.392" gradientUnits="userSpaceOnUse" xlink:href="#4"/><linearGradient id="4"><stop id="stop19" stop-color="#fff"/><stop id="stop21" offset="1" stop-color="#fff" stop-opacity="0"/></linearGradient><radialGradient id="5" cx="23.403" cy="1056.14" r="19" gradientTransform="matrix(1.74057 -0.60542 0.42105 1.21053 -461.43 -219.96)" gradientUnits="userSpaceOnUse"><stop id="stop24" stop-color="#5288d1"/><stop id="stop26" offset="1" stop-color="#ebebeb"/></radialGradient></defs><g id="g28" transform="translate(0,-1004.36)"><path id="path30" d="m 19.6562,1009.3622 -2.7188,1.0313 -2.7188,-1 -2.0625,2.0312 -2.875,0.1875 -1.0625,2.7188 -2.5625,1.3437 0.125,2.9063 -1.8125,2.2812 1.3125,2.5938 -0.7188,2.8125 2.25,1.8125 0.5,2.875 2.8125,0.75 0.9375,1.4375 c -0.0754,0.08 -0.182435,0.137 -0.25,0.2187 -3.21319,0 -5.8125,2.453 -5.8125,5.5 0,3.047 2.59931,5.5 5.8125,5.5 l 26.375,0 c 3.21319,0 5.8125,-2.453 5.8125,-5.5 0,-3.047 -2.59931,-5.5 -5.8125,-5.5 -1.1394,-1.3784 -3.4077,-2.5122 -6.34375,-3.2187 -0.34013,-1.2466 -1.20805,-2.3242 -2.40625,-3.1563 l 1,-0.8125 -0.7188,-2.8125 1.2812,-2.625 -1.8125,-2.25 0.125,-2.9062 -2.5938,-1.3125 -1.0625,-2.7188 -2.9062,-0.1562 -2.0938,-2.0313 z" opacity=".1"/><path id="path32" fill="url(#1)" d="m 22.6,23 -1.7665,1.6131 -2.2053,-0.927 -2.2699,0.7552 L 14.7207,22.6975 12.3399,22.4641 11.5531,20.205 9.473,19.0234 9.6731,16.6396 8.2535,14.7141 9.4059,12.6177 8.8922,10.2813 10.7976,8.8349 11.2786,6.4915 13.6076,5.9452 15.0001,4 17.35,4.4482 l 2.0633,-1.2106 1.9644,1.3652 2.3773,-0.2667 1.2393,2.0462 2.2803,0.7233 0.2999,2.3734 1.7889,1.5882 -0.6914,2.2902 0.9883,2.1785 -1.5631,1.811 0.0167,2.3922 -2.1645,1.0186 -0.9577,2.1922 z" transform="matrix(1.19762,0.20217,-0.20217,1.19762,-2.929,1000.56)"/><path id="path34" fill="none" stroke="#000" d="m 19.375,3.8125 -1.7812,1.0312 a 0.484892,0.484892 0 0 1 -0.34375,0.0625 l -2.0312,-0.375 -1.2188,1.6875 A 0.484892,0.484892 0 0 1 13.7188,6.4062 l -2.0312,0.5 -0.4062,2.0312 a 0.484892,0.484892 0 0 1 -0.1875,0.28125 l -1.6562,1.25 0.4375,2.0625 A 0.484892,0.484892 0 0 1 9.84395,12.8749 l -1,1.8438 1.2188,1.625 a 0.484892,0.484892 0 0 1 0.09375,0.3125 L 9.969,18.75 l 1.8438,1.0625 a 0.484892,0.484892 0 0 1 0.21875,0.25 l 0.6875,1.9688 2.0312,0.1875 a 0.484892,0.484892 0 0 1 0.3125,0.125 l 1.4062,1.5312 2,-0.6562 a 0.484892,0.484892 0 0 1 0.34375,0.03125 l 1.9375,0.8125 1.5,-1.4062 a 0.484892,0.484892 0 0 1 0.34375,-0.15625 l 2.0938,-0.0625 0.8125,-1.875 a 0.484892,0.484892 0 0 1 0.25,-0.25 l 1.875,-0.8438 -0.0312,-2.125 a 0.484892,0.484892 0 0 1 0.125,-0.3125 l 1.375,-1.5938 -0.8438,-1.9062 A 0.484892,0.484892 0 0 1 28.219,13.2188 l 0.5938,-2 -1.5625,-1.375 A 0.484892,0.484892 0 0 1 27.09405,9.5313 l -0.25,-2.0625 -2,-0.625 a 0.484892,0.484892 0 0 1 -0.25,-0.21875 l -1.0938,-1.7812 -2.0625,0.2188 A 0.484892,0.484892 0 0 1 21.094,5.00015 l -1.7188,-1.1875 z" opacity=".2" transform="matrix(1.19762,0.20217,-0.20217,1.19762,-2.929,1000.56)"/><path id="path36" fill="url(#2)" d="m 23,1024.375 c -4.15591,0 -7.57773,2.3663 -7.96875,5.4062 -1.90572,0.6827 -3.37275,1.5703 -4.21875,2.5938 -3.21319,0 -5.8125,2.453 -5.8125,5.5 0,3.047 2.59931,5.5 5.8125,5.5 l 26.375,0 c 3.21319,0 5.8125,-2.453 5.8125,-5.5 0,-3.047 -2.59931,-5.5 -5.8125,-5.5 -1.1394,-1.3784 -3.4077,-2.5123 -6.34375,-3.2188 -0.74597,-2.734 -3.97776,-4.7812 -7.84375,-4.7812 z"/><path id="path38" fill="url(#5)" d="m 23,1024.375 c -4.15591,0 -7.57773,2.3663 -7.96875,5.4062 -1.90572,0.6827 -3.37275,1.5703 -4.21875,2.5938 -3.21319,0 -5.8125,2.453 -5.8125,5.5 0,3.047 2.59931,5.5 5.8125,5.5 l 26.375,0 c 3.21319,0 5.8125,-2.453 5.8125,-5.5 0,-3.047 -2.59931,-5.5 -5.8125,-5.5 -1.1394,-1.3784 -3.4077,-2.5123 -6.34375,-3.2188 -0.74597,-2.734 -3.97776,-4.7812 -7.84375,-4.7812 z" opacity=".328"/><g id="g40" fill="none"><path id="path42" stroke="#000" d="m 23,1024.9062 c -3.94853,0 -7.09336,2.2621 -7.4375,4.9376 a 0.546382,0.546382 0 0 1 -0.34375,0.4374 c -1.84802,0.6622 -3.25279,1.5336 -4,2.4376 a 0.546382,0.546382 0 0 1 -0.40625,0.1874 c -2.93514,0 -5.28125,2.2325 -5.28125,4.9688 0,2.7363 2.34611,4.9688 5.28125,4.9688 l 26.375,0 c 2.93514,0 5.28125,-2.2325 5.28125,-4.9688 0,-2.7363 -2.34611,-4.9688 -5.28125,-4.9688 a 0.546382,0.546382 0 0 1 -0.40625,-0.1874 c -1.00628,-1.2174 -3.1935,-2.3409 -6.0625,-3.0313 a 0.546382,0.546382 0 0 1 -0.40625,-0.375 c -0.658721,-2.4141 -3.63939,-4.4063 -7.3125,-4.4063 z" opacity=".4"/><path id="path44" stroke="url(#0)" stroke-miterlimit="6.3" d="m 23,1025.9062 c -2.46918,0 -5.31311,1.0725 -6.30475,3.5049 -0.709052,0.9642 0.34176,0.6718 -1.25769,1.4669 0.02164,0.9227 -2.11105,0.9241 -2.71499,1.8005 -0.846973,0.3974 -1.18181,0.3413 -2.15616,0.9505 -0.86245,0.1971 -1.59413,0.1029 -2.17483,0.9627 -1.92426,1.1048 -2.48607,3.9418 -1.02801,5.6454 1.02073,1.3656 2.79355,1.7171 4.40243,1.6067 8.54907,0 17.0983,0.01 25.6473,-0.01 2.38672,0 4.55859,-2.3533 3.97105,-4.7551 -0.388283,-1.9014 -2.29879,-3.2243 -4.19681,-3.1773 -1.1993,-0.44 -0.121965,0.06 -1.1875,-0.5624 -1.5323,-1.5962 -3.76993,-2.1663 -5.80595,-2.8079 -0.668886,-0.1555 -0.137427,-1.3654 -0.8503,-0.9734 -0.853343,-2.521 -3.89646,-3.6556 -6.34375,-3.6563 z"/><path id="path46" stroke="url(#3)" d="m 19.375,4.9062 -1.3125,0.75 a 1.41073,1.41073 0 0 1 -0.96875,0.15625 l -1.4375,-0.2812 -0.9062,1.25 a 1.41073,1.41073 0 0 1 -0.8125,0.53125 l -1.4688,0.3438 -0.2812,1.4688 A 1.41073,1.41073 0 0 1 11.6563,9.96885 l -1.1875,0.9062 0.3125,1.4688 a 1.41073,1.41073 0 0 1 -0.125,0.96875 l -0.7188,1.3125 0.875,1.1562 a 1.41073,1.41073 0 0 1 0.28125,0.96875 l -0.125,1.5312 1.2812,0.7188 a 1.41073,1.41073 0 0 1 0.65625,0.75 l 0.5,1.4062 1.4375,0.125 a 1.41073,1.41073 0 0 1 0.90625,0.4375 l 1,1.0938 1.4375,-0.4688 a 1.41073,1.41073 0 0 1 1,0.03125 l 1.375,0.5938 1.0625,-1 a 1.41073,1.41073 0 0 1 0.9375,-0.375 l 1.5,-0.0312 0.5938,-1.375 a 1.41073,1.41073 0 0 1 0.6875,-0.71875 l 1.375,-0.625 -0.0312,-1.4688 a 1.41073,1.41073 0 0 1 0.34375,-0.9375 l 1,-1.1562 -0.625,-1.375 A 1.41073,1.41073 0 0 1 27.3438,12.9376 l 0.4375,-1.4062 -1.1562,-1 A 1.41073,1.41073 0 0 1 26.15635,9.62515 l -0.1875,-1.4688 -1.4062,-0.4375 a 1.41073,1.41073 0 0 1 -0.75,-0.59375 l -0.7812,-1.2812 -1.5,0.1562 a 1.41073,1.41073 0 0 1 -0.9375,-0.25 l -1.2188,-0.8438 z" opacity=".4" transform="matrix(1.19762,0.20217,-0.20217,1.19762,-2.929,1000.56)"/></g></g><metadata id="metadata9999"/></svg>