<svg xmlns="http://www.w3.org/2000/svg" xmlns:svg="http://www.w3.org/2000/svg" id="svg2" version="1.1" viewBox="0 0 48 48"><defs id="defs4"><linearGradient id="0" x2="0" y1="10.765" y2="40.485" gradientUnits="userSpaceOnUse"><stop id="stop7" stop-color="#fff"/><stop id="stop9" offset="1" stop-color="#fff" stop-opacity="0"/></linearGradient><linearGradient id="1" x1="44.631" x2="44.746" y1="9.86" y2="41.08" gradientUnits="userSpaceOnUse"><stop id="stop12" stop-color="#a868d4"/><stop id="stop14" offset="1" stop-color="#c8a1e4"/></linearGradient></defs><path id="path16" d="m 44.006 25 a 20 20 0 1 1 -40 0 20 20 0 1 1 40 0 z" opacity=".2"/><path id="path18" fill="url(#1)" d="m 44.7458 25.6271 a 16.8814 15.661 0 1 1 -33.7627 0 16.8814 15.661 0 1 1 33.7627 0 z" transform="matrix(1.18474 0 0 1.27706 -9.01 -8.727)"/><g id="g20" fill="none" stroke-width=".813" transform="matrix(1.18474,0,0,1.27706,-9.01,-8.727)"><path id="path22" stroke="#000" d="m 27.875,10.375 c -9.11523,0 -16.5,6.84339 -16.5,15.25 0,8.40661 7.38477,15.25 16.5,15.25 9.11523,0 16.4688,-6.84239 16.4688,-15.25 0,-8.40761 -7.35352,-15.25 -16.4688,-15.25 z" opacity=".5"/><path id="path24" stroke="url(#0)" d="m 27.875,11.1562 c -8.7313,0 -15.7188,6.51002 -15.7188,14.4688 0,7.95873 6.98745,14.4688 15.7188,14.4688 8.7313,0 15.6875,-6.50717 15.6875,-14.4688 0,-7.96158 -6.9562,-14.4688 -15.6875,-14.4688 z" opacity=".44"/></g><g id="g26" transform="translate(-0.005,-0.502)"><path id="path28" d="m 24.6875,9.7188 c -3.44603,0 -7.23919,1.38989 -9.84375,3.59375 -3.04533,2.60456 -4.8125,6.46653 -4.8125,10.5938 0,0.169802 0.02541,0.331662 0.03125,0.5 -0.0059,0.167605 -0.03125,0.331393 -0.03125,0.5 0,7.97395 6.48195,14.375 14.6562,14.375 5.64988,0 10.1863,-2.74603 13.0312,-7.875 0.04238,-1.00326 -0.08619,-0.08452 0,-1 l -2.8125,0 c -2.40421,3.4861 -5.7309,5.15625 -10.2188,5.15625 -6.59811,0 -11.4724,-4.71863 -11.7188,-11.1875 0.248307,-6.31475 5.15968,-10.9375 11.7188,-10.9375 5.75207,0 10.1397,3.91064 10.3438,9.09375 -0.147885,2.05693 -0.999101,3.6854 -2.5625,4.8125 -0.681192,0.480841 -1.27798,0.75 -1.71875,0.75 -0.390683,0 -0.757865,-0.253099 -0.90625,-0.625 -0.0037,-0.0093 0.0035,-0.02181 0,-0.03125 0.02885,-0.167333 0.04486,-0.349299 0.125,-0.75 l 1.5625,-8.4688 -0.1875,0 0.1875,-1 -3.75,0 -0.2188,1 c -0.921612,-0.801402 -2.24019,-1.25 -3.5625,-1.25 -4.24743,0 -7.875,3.8559 -7.875,8.34375 0,0.205359 -0.01658,0.395943 0,0.59375 0.0017,0.02032 -0.0019,0.04227 0,0.0625 -0.0047,0.113236 0,0.229633 0,0.34375 0,3.28575 2.15099,5.625 5.15625,5.625 1.68294,0 3.28429,-0.740187 4.40625,-2.0625 0.360631,1.36238 1.49574,2.0625 3.21875,2.0625 1.28224,0 2.99498,-0.533528 4.4375,-1.375 2.96519,-1.76308 4.65625,-4.71022 4.65625,-8.15625 0,-0.190078 -0.02124,-0.373492 -0.03125,-0.5625 0.0061,-0.145121 0.03125,-0.290432 0.03125,-0.4375 0,-3.12547 -1.37704,-6.1351 -3.78125,-8.21875 C 31.77432,11.06383 28.05324,9.7188 24.68735,9.7188 Z m 0.0312,10.5625 c 0.591623,0 1.24543,0.214828 2.03125,0.71875 -0.603037,2.87376 -1.00822,4.20288 -1.625,5.21875 -0.801402,1.44252 -1.68575,2.125 -2.6875,2.125 -0.981717,0 -1.63553,-0.705375 -1.78125,-1.875 0.164442,-3.29311 1.99762,-6.1875 4.0625,-6.1875 z" opacity=".4"/><path id="path30" fill="#fff" d="m 27.7726,18.2081 -0.2004,1.0018 c -0.921612,-0.801402 -2.24393,-1.24217 -3.56624,-1.24217 -4.24743,0 -7.89382,3.84674 -7.89382,8.33459 0,3.28575 2.16379,5.64989 5.16905,5.64989 1.68294,0 3.28575,-0.761334 4.40771,-2.08365 0.360631,1.36238 1.4826,2.08365 3.20561,2.08365 1.28224,0 3.00526,-0.560983 4.44778,-1.40245 2.96519,-1.76308 4.64814,-4.68821 4.64814,-8.13424 0,-3.12547 -1.36239,-6.13073 -3.76659,-8.21438 -2.44428,-2.12371 -6.1708,-3.4861 -9.53669,-3.4861 -3.44603,0 -7.2527,1.40246 -9.85725,3.60631 -3.04533,2.60456 -4.80842,6.4513 -4.80842,10.5785 0,7.97395 6.49137,14.3852 14.6657,14.3852 5.64988,0 10.1778,-2.76484 13.0228,-7.89382 l -2.80491,0 c -2.4042,3.4861 -5.73003,5.16905 -10.2179,5.16905 -6.77184,0 -11.7405,-4.9687 -11.7405,-11.7005 0,-6.57149 5.00877,-11.42 11.7405,-11.42 5.8903,0 10.3782,4.08716 10.3782,9.45655 0,2.36414 -0.881545,4.20736 -2.60456,5.44954 -0.681191,0.480841 -1.28224,0.761333 -1.72302,0.761333 -0.520912,0 -0.961684,-0.480843 -0.961684,-1.04182 0,-0.360631 1e-6,-0.360632 0.200351,-1.36238 l 1.5627,-8.4949 -3.76659,0 m -0.8415,2.9251 c -0.721262,3.56624 -1.12196,4.9687 -1.80316,6.09066 -0.801402,1.44252 -1.68295,2.12372 -2.6847,2.12372 -1.12196,0 -1.80316,-0.921614 -1.80316,-2.40421 0,-3.4861 1.92337,-6.65164 4.08715,-6.65164 0.641121,0 1.32231,0.240422 2.20386,0.841473"/></g><metadata id="metadata9999"/></svg>