<svg xmlns="http://www.w3.org/2000/svg" xmlns:svg="http://www.w3.org/2000/svg" xmlns:xlink="http://www.w3.org/1999/xlink" id="Capa_1" x="0" y="0" version="1.1" viewBox="0 0 48 48"><defs id="defs39"><linearGradient id="linearGradient4195"><stop id="stop4197" stop-color="#fff" stop-opacity="1"/><stop id="stop4199" offset="1" stop-color="#afafaf" stop-opacity="0"/></linearGradient><linearGradient id="linearGradient4181"><stop id="stop4183" stop-color="#d02604" stop-opacity="1"/><stop id="stop4185" offset="1" stop-color="#e92c03" stop-opacity="1"/></linearGradient><linearGradient id="linearGradient4165"><stop id="stop4167" stop-color="#fff" stop-opacity="1"/><stop id="stop4169" offset="1" stop-color="#fff" stop-opacity="0"/></linearGradient><linearGradient id="linearGradient4171" x1="84.388" x2="84.388" y1="2.221" y2="95.491" gradientUnits="userSpaceOnUse" xlink:href="#linearGradient4165"/><linearGradient id="linearGradient4193" x1="66.622" x2="66.622" y1="0" y2="75.505" gradientUnits="userSpaceOnUse" xlink:href="#linearGradient4181"/><radialGradient id="radialGradient4205" cx="22.017" cy="24.983" r="9.914" fx="22.017" fy="24.983" gradientTransform="matrix(1.0086686,-1.0086684,1.0086683,1.0086683,-23.407417,24.008667)" gradientUnits="userSpaceOnUse" xlink:href="#linearGradient4195"/></defs><g id="g3" fill="#d02604" transform="matrix(0.45030293,0,0,0.45030293,1.9997749,2.0000001)"><path id="path4207" fill="#000" fill-opacity="1" stroke="none" d="m 48.8565,2.220726 c -20.81446,0 -37.752364,16.138047 -37.752364,35.974048 0,5.173999 1.109864,10.111955 3.300032,14.681956 9.438602,19.681001 27.536487,40.46302 32.859212,46.36202 0.398784,0.441001 0.981299,0.693977 1.59312,0.693977 0.61182,0 1.194334,-0.252976 1.59312,-0.693977 C 55.770247,93.340749 73.86708,72.559729 83.308831,52.87673 85.50005,48.306729 86.608864,43.368773 86.608864,38.194774 86.606764,18.358773 69.672011,2.220726 48.8565,2.220726 Z" opacity=".1"/><path id="path5" fill="url(#linearGradient4193)" fill-opacity="1" stroke="none" d="M 48.8565,-2e-7 C 28.04204,-2e-7 11.104136,16.138047 11.104136,35.974048 c 0,5.173999 1.109864,10.111955 3.300032,14.681956 9.438602,19.681001 27.536487,40.46302 32.859212,46.36202 0.398784,0.441001 0.981299,0.693977 1.59312,0.693977 0.61182,0 1.194334,-0.252976 1.59312,-0.693977 5.320627,-5.898001 23.41746,-26.679021 32.859211,-46.36202 2.191219,-4.570001 3.300033,-9.507957 3.300033,-14.681956 C 86.606764,16.138047 69.672011,-2e-7 48.8565,-2e-7 Z"/></g><ellipse id="path3355" cx="24" cy="19" fill="#ebebeb" fill-opacity="1" stroke="none" stroke-dasharray="none" stroke-linecap="butt" stroke-linejoin="miter" stroke-miterlimit="13.9" stroke-opacity="1" stroke-width="1.167" opacity="1" rx="9" ry="9"/><g id="g3357" fill="none" stroke="#000" stroke-dasharray="none" stroke-miterlimit="4" stroke-width="2.221" transform="matrix(0.45030293,0,0,0.45030293,1.9997749,2.0000001)"><path id="path4161" fill="none" stroke="#000" stroke-dasharray="none" stroke-miterlimit="4" stroke-width="2.221" d="m 48.857422,1.1171875 c -20.237015,0 -36.636719,15.6574175 -36.636719,34.8574215 0,5.014137 1.073162,9.779293 3.191406,14.199219 9.330421,19.455426 27.389366,40.23045 32.681641,46.095703 0.178802,0.196599 0.462347,0.326172 0.763672,0.326172 0.302254,0 0.583746,-0.129152 0.763672,-0.328125 5.291876,-5.866243 23.346778,-26.637652 32.679687,-46.09375 2.119156,-4.419705 3.191407,-9.184931 3.191407,-14.199219 C 85.490155,16.774349 69.095517,1.1171875 48.857422,1.1171875 Z" opacity=".5"/><path id="path4163" fill="none" stroke="url(#linearGradient4171)" stroke-dasharray="none" stroke-miterlimit="4" stroke-width="2.221" d="m 48.857422,3.328125 c -19.093731,0 -34.425781,14.705691 -34.425781,32.646484 0,4.697625 0.998765,9.119395 2.974609,13.242188 8.781066,18.309934 25.534734,37.933206 31.449219,44.556641 C 54.768477,87.150472 71.522431,67.529035 80.306641,49.216797 82.283117,45.094662 83.28125,40.672685 83.28125,35.974609 83.279351,18.033053 67.952291,3.328125 48.857422,3.328125 Z" opacity=".4"/></g><path id="path4191" fill="url(#radialGradient4205)" fill-opacity="1" stroke="#000" stroke-dasharray="none" stroke-linecap="butt" stroke-linejoin="miter" stroke-miterlimit="13.9" stroke-opacity="1" stroke-width="1" d="m 24,9.5859375 c -2.464495,0 -4.913589,1.0151515 -6.65625,2.7578125 -1.742661,1.742661 -2.757813,4.191755 -2.757812,6.65625 -1e-6,2.464495 1.015151,4.913589 2.757812,6.65625 1.742661,1.742661 4.191755,2.757813 6.65625,2.757812 2.464495,10e-7 4.913589,-1.015151 6.65625,-2.757812 C 32.398911,23.913589 33.414063,21.464495 33.414062,19 33.414063,16.535505 32.398911,14.086411 30.65625,12.34375 28.913589,10.601089 26.464495,9.5859375 24,9.5859375 Z" opacity=".4"/><metadata id="metadata9999"/></svg>