<?xml version="1.0" encoding="UTF-8" standalone="no"?>
<svg xmlns:dc="http://purl.org/dc/elements/1.1/" xmlns:cc="http://creativecommons.org/ns#" xmlns:rdf="http://www.w3.org/1999/02/22-rdf-syntax-ns#" xmlns:svg="http://www.w3.org/2000/svg" xmlns="http://www.w3.org/2000/svg" xmlns:xlink="http://www.w3.org/1999/xlink" viewBox="0 0 48 48" id="svg2" version="1.1">
 <defs id="defs4">
  <linearGradient id="0" y1="37.438" x1="-8.303" y2="44.5" x2="-8.185" gradientUnits="userSpaceOnUse">
   <stop stop-color="#ebebeb" id="stop7"/>
   <stop offset="1" stop-color="#b7b7b7" id="stop9"/>
  </linearGradient>
  <linearGradient id="1" y1="3" y2="44" x2="0" gradientUnits="userSpaceOnUse">
   <stop stop-color="#dedede" id="stop12"/>
   <stop offset="1" stop-color="#f4f4f4" id="stop14"/>
  </linearGradient>
  <linearGradient id="2" xlink:href="#4" y1="3" x1="40" y2="42.969" x2="39.906" gradientUnits="userSpaceOnUse"/>
  <linearGradient id="3" xlink:href="#4" y1="1.837" y2="43.3" x2="0" gradientUnits="userSpaceOnUse"/>
  <linearGradient id="4">
   <stop stop-color="#fff" id="stop19"/>
   <stop offset="1" stop-color="#fff" stop-opacity="0" id="stop21"/>
  </linearGradient>
  <radialGradient cx="-36.514" cy="26.712" r="5.533" id="5" gradientUnits="userSpaceOnUse" gradientTransform="matrix(0.80584 -0.99328 0.99403 0.80645 44.37 -17.348)">
   <stop stop-color="#f1d6a5" id="stop24"/>
   <stop offset="1" stop-color="#d49320" id="stop26"/>
  </radialGradient>
  <radialGradient cx="0.704" cy="16.184" r="14.5" id="6" gradientUnits="userSpaceOnUse" gradientTransform="matrix(-0.55181 -0.46428 0.26293 -0.3125 -5.985 45.822)">
   <stop stop-color="#f28099" id="stop29"/>
   <stop offset="1" stop-color="#ed4c70" id="stop31"/>
  </radialGradient>
 </defs>
 <rect width="34.951" x="6" opacity="0.1" y="3" rx="1.209" height="42" ry="1.209" id="rect33"/>
 <rect width="34.951" x="5.986" y="2" fill="url(#1)" rx="1.209" height="42" ry="1.209" id="rect35"/>
 <path opacity="0.3" fill="#fff" d="M 10,7 H35 V9 H10 z" id="path37"/>
 <path opacity="0.4" fill="none" stroke="#000" d="M 7.1875 2.5 C 6.783721 2.5 6.5 2.799839 6.5 3.21875 v 39.5625 C 6.5 43.20016 6.783721 43.5 7.1875 43.5 h 32.53125 c 0.40378 0 0.71875 -0.31497 0.71875 -0.71875 v -39.5625 C 40.4375 2.814971 40.12253 2.5 39.71875 2.5 H 7.1875 z" id="path39"/>
 <path opacity="0.3" fill="#fff" d="M 10,11 H25 V13 H10 z" id="path41"/>
 <path opacity="0.78" fill="none" stroke="url(#2)" d="m 7.5312 3.5312 v 38.9375 h 31.875 v -38.9375 H 7.5312 z" id="path43"/>
 <path opacity="0.3" fill="#fff" d="M 10,15 H29 V17 H10 z" id="path45"/>
 <path opacity="0.3" d="M 10,6 H35 V8 H10 z" id="path47"/>
 <path opacity="0.3" fill="#fff" d="M 10,19 H31 V21 H10 z" id="path49"/>
 <path opacity="0.3" d="M 10,10 H25 V12 H10 z" id="path51"/>
 <path opacity="0.3" fill="#fff" d="M 10,23 H29 V25 H10 z" id="path53"/>
 <path opacity="0.3" d="M 10,14 H29 V16 H10 z" id="path55"/>
 <path opacity="0.3" fill="#fff" d="M 10,27 H24 V29 H10 z" id="path57"/>
 <path opacity="0.3" d="M 10,18 H31 V20 H10 z" id="path59"/>
 <path opacity="0.3" fill="#fff" d="M 10,31 H29 V33 H10 z" id="path61"/>
 <path opacity="0.3" d="M 10,22 H29 V24 H10 z" id="path63"/>
 <path opacity="0.3" fill="#fff" d="M 10,35 H32 V37 H10 z" id="path65"/>
 <path opacity="0.3" d="M 10,26 H24 V28 H10 z" id="path67"/>
 <path opacity="0.3" fill="#fff" d="M 10,39 H27 V41 H10 z" id="path69"/>
 <path opacity="0.3" d="M 10,30 H29 V32 H10 z" id="path71"/>
 <path opacity="0.3" d="M 10,34 H32 V36 H10 z" id="path73"/>
 <path opacity="0.3" d="M 10,38 H27 V40 H10 z" id="path75"/>
 <path opacity="0.88" fill="#fff" d="m 36.031,34.8995 a 0.0525022,0.0525022 0 0 1 0.03125,0 l 2.1875,6 1.7812,4.8125 1.7188,-4.8125 2.125,-6 a 0.0525022,0.0525022 0 0 1 0.03125,0 v -0.03125 -28.9375 -2.25 c 0,-1.4912 -1.1963,-2.6875 -2.6875,-2.6875 h -2.5 c -1.4912,0 -2.6875,1.1963 -2.6875,2.6875 v 2.25 28.9375 0.03125 z" id="path77"/>
 <g transform="matrix(0,-1,1,0,0,0)" id="g79">
  <path d="m -34.931,36.969 29,0 0,8 -29,0 z" id="path81" opacity="0.67" fill="#eed45a"/>
  <path d="m -27.188,36.969002 23.5140002,0 c 1.519622,0 2.74300004,1.223378 2.74300004,2.743 l 0,2.514 c 0,1.519622 -1.22337804,2.743 -2.74300004,2.743 l -23.5140002,0 c -1.519622,0 -2.743,-1.223378 -2.743,-2.743 l 0,-2.514 c 0,-1.519622 1.223378,-2.743 2.743,-2.743 z" id="rect83" fill="url(#6)"/>
 </g>
 <path fill="url(#5)" d="m 36.9688,34.8648 8,0 -3.9222,11.066 c -4.07777,-11.066 0,0 -4.07777,-11.066 z" id="path85"/>
 <g transform="matrix(0,-1,1,0,0,0)" id="g87">
  <path d="m -34.931,42.969 29,0 0,2 -29,0 z" id="path89" fill="#a07018"/>
  <path d="m -34.931,39.969 29,0 0,3 -29,0 z" id="path91" fill="#e4ae4e"/>
  <path d="m -34.931,36.969 29,0 0,3 -29,0 z" id="path93" fill="#eecd92"/>
  <path d="m -9.931,36.969 4,0 0,8 -4,0 z" id="path95" fill="url(#0)"/>
 </g>
 <path fill="#6a6a6a" d="m 39.1875,40.9309 1.8438,5 1.7812,-5 -3.625,0 z" id="path97"/>
 <g id="g99" fill="none">
  <path d="m 37.4375,34.7746 2.1875,6 1.4062,3.7812 1.3438,-3.7812 2.125,-6 0,-0.0312 0,-28.8125 0,-2.25 c 0,-1.26728 -1.01397,-2.28125 -2.28125,-2.28125 l -2.5,0 c -1.26728,0 -2.28125,1.01397 -2.28125,2.28125 l 0,2.25 0,28.8438 z" id="path101" opacity="0.48" stroke="#000"/>
  <path d="m 38.4375,34.5871 2.125,5.8438 0.4375,1.1875 0.4375,-1.1875 2.0625,-5.8438 0,-28.6563 0,-2.25 c 0,-0.729114 -0.552135,-1.28125 -1.28125,-1.28125 l -2.5,0 c -0.729115,0 -1.28125,0.552136 -1.28125,1.28125 l 0,2.25 0,28.6563 z" id="path103" opacity="0.4" stroke="url(#3)"/>
 </g>
 <path opacity="0.06" d="M 38,35 H44 V36 H38 z" id="path105"/>
 <metadata id="metadata9999">
  <rdf:RDF>
   <cc:Work>
    <dc:format>image/svg+xml</dc:format>
    <dc:type rdf:resource="http://purl.org/dc/dcmitype/StillImage"/>
    <dc:title>Ivy icon theme</dc:title>
    <cc:license rdf:resource="http://creativecommons.org/licenses/by-sa/4.0/"/>
    <dc:creator>
     <cc:Agent>
      <dc:title>Sixsixfive (sixsixfive.deviantart.com)</dc:title>
     </cc:Agent>
    </dc:creator>
    <dc:publisher>
     <cc:Agent>
      <dc:title>Sixsixfive (sixsixfive.deviantart.com)</dc:title>
     </cc:Agent>
    </dc:publisher>
    <dc:source>https://github.com/sixsixfive</dc:source>
    <dc:subject>
     <rdf:Bag>
      <rdf:li>ivy</rdf:li>
     </rdf:Bag>
    </dc:subject>
    <dc:contributor>
     <cc:Agent>
      <dc:title>ssf</dc:title>
     </cc:Agent>
    </dc:contributor>
    <dc:rights>
     <cc:Agent>
      <dc:title>Sixsixfive (sixisixfive.deviantart.com)</dc:title>
     </cc:Agent>
    </dc:rights>
    <dc:description>A simple icon theme published under CC-BY-SA_V4(http://creativecommons.org/licenses/by-sa/4.0)</dc:description>
    <dc:identifier>SSF</dc:identifier>
   </cc:Work>
  </rdf:RDF>
 </metadata>
 <!--Part of the Ivy icon them published under the CC-BY-SA_V4: http://creativecommons.org/licenses/by-sa/4.0 -->
</svg>
