<svg xmlns="http://www.w3.org/2000/svg" xmlns:svg="http://www.w3.org/2000/svg" id="svg2" version="1.1" viewBox="0 0 48 48"><defs id="defs4"><linearGradient id="0" x1="43" x2="44" y1="4" y2="25" gradientUnits="userSpaceOnUse"><stop id="stop7" stop-color="#fff"/><stop id="stop9" offset="1" stop-color="#fff" stop-opacity="0"/></linearGradient><radialGradient id="1" cx="24" cy="19.235" r="20" gradientTransform="matrix(1 0 0 1.7 0 -14.7)" gradientUnits="userSpaceOnUse"><stop id="stop12" stop-color="#fb3d17"/><stop id="stop14" offset="1" stop-color="#d02604"/></radialGradient><radialGradient id="2" cx="24" cy="28.331" r="20" gradientUnits="userSpaceOnUse"><stop id="stop17" stop-opacity=".5"/><stop id="stop19" offset="1" stop-color="#fff"/></radialGradient><radialGradient id="3" cx="24" cy="24" r="20" gradientUnits="userSpaceOnUse"><stop id="stop22" stop-color="#d8d8d8"/><stop id="stop24" offset=".789" stop-color="#ebebeb"/><stop id="stop26" offset="1" stop-color="#fff"/></radialGradient></defs><path id="path28" d="M 24 5 C 12.9543 5 4 13.9543 4 25 4 36.0457 12.9543 45 24 45 35.0457 45 44 36.0457 44 25 44 13.9543 35.0457 5 24 5 z m 0 10 c 5.52285 0 10 4.47715 10 10 0 5.52285 -4.47715 10 -10 10 -5.52285 0 -10 -4.47715 -10 -10 0 -5.52285 4.47715 -10 10 -10 z" opacity=".2"/><g id="g30" fill="none" stroke="#6a6a6a" stroke-width="1.5"><path id="path32" d="M 8.0087,18.7917 C -2.0758,12.18671 8.112992,0.4522 19.0011,8.1134"/><path id="path34" d="M 39.9913,18.7917 C 50.0758,12.18671 39.887008,0.4522 28.9989,8.1134"/><path id="path36" d="M 39.9913,29.2083 C 50.0758,35.81329 39.887008,47.5478 28.9989,39.8866"/><path id="path38" d="M 8.0087,29.2083 C -2.0758,35.81329 8.112992,47.5478 19.0011,39.8866"/></g><path id="path40" fill="url(#3)" d="M 24 4 C 12.9543 4 4 12.9543 4 24 4 35.0457 12.9543 44 24 44 35.0457 44 44 35.0457 44 24 44 12.9543 35.0457 4 24 4 z m 0 10 c 5.52285 0 10 4.47715 10 10 0 5.52285 -4.47715 10 -10 10 -5.52285 0 -10 -4.47715 -10 -10 0 -5.52285 4.47715 -10 10 -10 z"/><path id="path42" fill="url(#1)" d="m 24 4 c -1.731184 0 -3.397984 0.242763 -5 0.65625 v 10.6875 C 20.468434 14.496741 22.183 14 24 14 c 1.816999 0 3.531566 0.496741 5 1.34375 V 4.65625 C 27.397984 4.242763 25.731184 4 24 4 z M 4.65625 19 C 4.242763 20.602016 4 22.268816 4 24 c 0 1.731184 0.242763 3.397984 0.65625 5 h 10.6875 C 14.496741 27.531566 14 25.816999 14 24 c 0 -1.816999 0.496741 -3.531566 1.34375 -5 h -10.6875 z m 28 0 C 33.503259 20.468434 34 22.183 34 24 c 0 1.816999 -0.496741 3.531566 -1.34375 5 h 10.6875 C 43.757237 27.397984 44 25.731184 44 24 44 22.268816 43.757237 20.602016 43.34375 19 h -10.6875 z M 19 32.65625 V 43.34375 C 20.602016 43.757237 22.268816 44 24 44 c 1.731184 0 3.397984 -0.242763 5 -0.65625 v -10.6875 C 27.531566 33.503259 25.816999 34 24 34 22.183 34 20.468434 33.503259 19 32.65625 z"/><g id="g44" fill="none"><path id="path46" stroke="#000" d="M 24,4.4688 C 13.2039,4.4688 4.4688,13.20395 4.4688,24 4.4688,34.7961 13.20395,43.5312 24,43.5312 34.7961,43.5312 43.5312,34.79605 43.5312,24 43.5312,13.2039 34.79605,4.4688 24,4.4688 Z m 0,9.0625 c 5.77244,0 10.4688,4.69631 10.4688,10.4688 0,5.77244 -4.69631,10.4688 -10.4688,10.4688 -5.77244,0 -10.4688,-4.69631 -10.4688,-10.4688 0,-5.77244 4.69631,-10.4688 10.4688,-10.4688 z" opacity=".4"/><path id="path48" stroke="url(#0)" d="M 24,5.5 C 13.773,5.5 5.5,13.77302 5.5,24 5.5,34.227 13.77302,42.5 24,42.5 34.227,42.5 42.5,34.22698 42.5,24 42.5,13.773 34.22698,5.5 24,5.5 Z m 0,7 c 6.34156,0 11.5,5.15844 11.5,11.5 0,6.34156 -5.15844,11.5 -11.5,11.5 -6.34156,0 -11.5,-5.15844 -11.5,-11.5 0,-6.34156 5.15844,-11.5 11.5,-11.5 z" opacity=".944"/></g><path id="path50" fill="url(#2)" d="M 24 4 C 12.9543 4 4 12.9543 4 24 4 35.0457 12.9543 44 24 44 35.0457 44 44 35.0457 44 24 44 12.9543 35.0457 4 24 4 z m 0 10 c 5.52285 0 10 4.47715 10 10 0 5.52285 -4.47715 10 -10 10 -5.52285 0 -10 -4.47715 -10 -10 0 -5.52285 4.47715 -10 10 -10 z" opacity=".2"/><metadata id="metadata9999"/></svg>