<svg xmlns="http://www.w3.org/2000/svg" xmlns:svg="http://www.w3.org/2000/svg" xmlns:xlink="http://www.w3.org/1999/xlink" id="svg2" version="1.1" viewBox="0 0 32 32"><defs id="defs4"><linearGradient id="1" x2="0" y1="5" y2="43" gradientTransform="matrix(0.7 0 0 0.68421 -0.8 -0.421)" gradientUnits="userSpaceOnUse"><stop id="stop7" stop-color="#ebebeb"/><stop id="stop9" offset="1" stop-color="#f3f3f3"/></linearGradient><linearGradient id="2" x2="0" y1="5" y2="15" gradientTransform="matrix(0.7 0 0 0.69176 -0.8 -0.459)" gradientUnits="userSpaceOnUse"><stop id="stop12" stop-color="#5288d1"/><stop id="stop14" offset="1" stop-color="#89aee0"/></linearGradient><linearGradient id="3" x1="29" x2="28.969" y1="4" y2="27.969" gradientUnits="userSpaceOnUse"><stop id="stop17" stop-color="#fff"/><stop id="stop19" offset="1" stop-color="#fff" stop-opacity="0"/></linearGradient></defs><path id="path21" d="M 2,4 H30 V30 H2 z" opacity=".1"/><path id="path23" fill="url(#1)" d="M 2,3 H30 V29 H2 z"/><path id="path25" fill="#fff" d="m 18 13 v 2 v 2 h 2 v -2 h 1 v 8.999998 l -3 -0.05263 V 26 H 22.846154 C 24.23077 26 24.615385 26 26 26 v -2.052632 c -1.333629 -0.01255 -1.666771 0.0258 -3 0.05263 v -9 v -2 h -1.538462 z"/><path id="path27" fill="url(#2)" d="M 2,3 H30 V10 H2 z"/><path id="path29" fill="#6a6a6a" d="m 18 12 v 2 v 2 h 2 v -2 h 1 v 8.999998 l -3 -0.05263 V 25 H 22.846154 C 24.23077 25 24.615385 25 26 25 v -2.052632 c -1.333629 -0.01255 -1.666771 0.0258 -3 0.05263 v -9 v -2 h -1.538462 z"/><path id="path31" fill="#fff" d="M 6 13 V 15.05263 V 17 h 2 v -1.947368 h 4 V 18 h -3 v 2 h 3 v 3.947368 h -4 V 22 H 6 V 23.947368 V 26 H 14 V 23.947368 V 15.05263 V 13 H 12 H 8 z"/><path id="path33" fill="#6a6a6a" d="M 6 12 V 14.05263 V 16 h 2 v -1.947368 h 4 V 17 h -3 v 2 h 3 v 3.947368 h -4 V 21 H 6 V 22.947368 V 25 H 14 V 22.947368 V 14.05263 V 12 H 12 H 8 z"/><path id="path35" fill="#171717" d="M 3,9 H29 V10 H3 z" opacity=".5"/><path id="path37" fill="none" stroke="#000" d="m 2.53125 3.53125 v 24.9375 h 26.9375 v -24.9375 h -26.9375 z" opacity=".4"/><rect id="rect39" width="6" height="7.01" x="7" y="1.985" fill="#fff" opacity=".2" rx="3" ry="2.175"/><path id="path41" fill="none" stroke="url(#3)" d="m 3.53125 4.53125 v 22.9375 h 24.9375 v -22.9375 h -24.9375 z" opacity=".4"/><rect id="rect43" width="4" height="7.01" x="8" y=".985" fill="#ddd" rx="2" ry="2.175"/><path id="path45" fill="#fff" d="M 4,10 H28 V11 H4 z" opacity=".8"/><path id="0" fill="none" stroke="#000" d="M 10 1.5 C 9.186539 1.5 8.5 2.205334 8.5 3.15625 v 2.65625 C 8.5 6.763416 9.196213 7.5 10 7.5 c 0.803787 0 1.5 -0.736584 1.5 -1.6875 v -2.65625 C 11.5 2.205334 10.813461 1.5 10 1.5 z" opacity=".4"/><g id="g48" fill="#fff"><path id="rect50" d="m 10,2 c 0.554,0 1,0.223 1,0.5 C 11,2.777 10.554,3 10,3 9.446,3 9,2.777 9,2.5 9,2.223 9.446,2 10,2 Z" opacity=".852"/><path id="rect52" d="m 22,1.985 c 1.662,0 3,0.97005 3,2.175 l 0,2.6600003 c 0,1.20495 -1.338,2.1749999 -3,2.1749999 -1.662,0 -3,-0.9700499 -3,-2.1749999 L 19,4.16 c 0,-1.20495 1.338,-2.175 3,-2.175 z" opacity=".2"/></g><rect id="rect54" width="4" height="7.01" x="20" y=".985" fill="#ddd" rx="2" ry="2.175"/><use id="use56" transform="matrix(1 0 0 1 12 0)" xlink:href="#0"/><rect id="rect58" width="2" height="1" x="21" y="2" fill="#fff" opacity=".852" rx="1" ry=".5"/><metadata id="metadata9999"/></svg>