<?xml version="1.0" encoding="UTF-8" standalone="no"?>
<svg xmlns:dc="http://purl.org/dc/elements/1.1/" xmlns:cc="http://creativecommons.org/ns#" xmlns:rdf="http://www.w3.org/1999/02/22-rdf-syntax-ns#" xmlns:svg="http://www.w3.org/2000/svg" xmlns="http://www.w3.org/2000/svg" xmlns:xlink="http://www.w3.org/1999/xlink" viewBox="0 0 48 48" id="svg2" version="1.1">
 <defs id="defs4">
  <linearGradient id="0">
   <stop stop-color="#fff" id="stop7"/>
   <stop offset="1" stop-color="#fff" stop-opacity="0" id="stop9"/>
  </linearGradient>
  <linearGradient id="1" xlink:href="#0" y1="10.999" x1="39.33" y2="35" x2="28.419" gradientUnits="userSpaceOnUse" gradientTransform="matrix(1.0084 0 0 0.9999 -0.658 0.002)"/>
  <linearGradient id="2" y1="3" y2="45" x2="0" gradientUnits="userSpaceOnUse">
   <stop stop-color="#5288d1" id="stop13"/>
   <stop offset="1" stop-color="#90b2e1" id="stop15"/>
  </linearGradient>
  <radialGradient cx="14" cy="32.2" r="16.449" id="3" gradientUnits="userSpaceOnUse" gradientTransform="matrix(1 0 0 1.21741 0 -5.206)">
   <stop stop-color="#90b2e1" stop-opacity="0" id="stop18"/>
   <stop offset="1" stop-color="#90b2e1" stop-opacity="0" id="stop20"/>
  </radialGradient>
  <radialGradient cx="6.332" cy="31.994" r="16.449" id="4" xlink:href="#0" gradientUnits="userSpaceOnUse" gradientTransform="matrix(-0.30397 0.42556 -0.99065 -0.70761 44.619 48.944)"/>
 </defs>
 <g id="g23" fill-rule="evenodd">
  <path d="M 23.6555,4.0041 C 22.753944,4.060149 22.072,4.208955 22.06889,4.710453 l 0,26.7772 c -1.51601,-0.554751 -3.25505,-0.866884 -5.08363,-0.866884 -6.05741,0 -10.9444,3.42768 -10.9444,7.67355 0,4.24589 4.88696,7.70567 10.9444,7.70567 5.78536,0 10.5303,-3.14661 10.9444,-7.12773 l 0.03242,0 0,-18.6541 c 0.09201,-0.05423 0.163974,-0.1 0.259042,-0.160542 4.37664,1.0141 8.60123,2.46153 9.00159,13.8702 10.4262,-9.4752 -2.60681,-19.7416 -13.5672,-29.9237 z" id="path25" opacity="0.1"/>
  <path d="M 23.6555,3.0021 C 22.753944,3.058149 22.072,3.206955 22.06889,3.708453 l 0,26.7772 c -1.51601,-0.554751 -3.25505,-0.866884 -5.08363,-0.866884 -6.05741,0 -10.9444,3.42768 -10.9444,7.67355 0,4.24589 4.88696,7.70567 10.9444,7.70567 5.78536,0 10.5303,-3.14661 10.9444,-7.12773 l 0.03242,0 0,-18.6541 c 0.09201,-0.05423 0.163974,-0.1 0.259042,-0.160542 4.37664,1.0141 8.60123,2.46153 9.00159,13.8702 10.4262,-9.4752 -2.60681,-19.7416 -13.5672,-29.9237 z" id="path27" fill="url(#2)"/>
 </g>
 <g id="g29" fill="none">
  <path d="m 23.4806,3.5958 c -0.303987,0.031243 -0.613663,0.070652 -0.7563,0.124988 -0.06443,0.024544 -0.07776,0.019417 -0.09454,0.031247 l 0,26.7474 a 0.560948,0.556221 0 0 1 -0.7563,0.531198 c -1.45183,-0.531265 -3.12188,-0.843667 -4.88443,-0.843667 -2.92257,0 -5.53926,0.81888 -7.40543,2.12479 -1.86617,1.30591 -2.96217,3.05649 -2.96217,4.96826 0,1.91178 1.09538,3.67841 2.96217,4.99951 1.86679,1.3211 4.48481,2.15604 7.40543,2.15604 2.79024,0 5.33089,-0.753805 7.18484,-1.96856 1.85396,-1.21475 2.99658,-2.86559 3.18276,-4.65579 a 0.560948,0.556221 0 0 1 0.03151,-0.06249 0.560948,0.556221 0 0 1 0,-0.03125 l 0,-18.4982 a 0.560948,0.556221 0 0 1 0.283612,-0.468704 c 0.08387,-0.04943 0.125408,-0.09562 0.220587,-0.156235 a 0.560948,0.556221 0 0 1 0.441175,-0.06249 c 2.20699,0.511378 4.52882,1.16677 6.3025,3.21843 1.6305,1.88604 2.6971,4.95167 3.0252,9.90527 1.88787,-1.99895 2.77513,-3.96249 2.83612,-5.96816 0.0698,-2.29535 -0.866059,-4.69828 -2.48949,-7.15555 -3.20824,-4.85609 -9.08946,-9.89415 -14.5272,-14.936 z" id="path31" opacity="0.4" stroke="#000"/>
  <path d="m 23.6067,5.0644 0,25.435 a 1.55044,1.53737 0 0 1 -2.07982,1.43736 c -1.33861,-0.489833 -2.89172,-0.781173 -4.5378,-0.781173 -2.73536,0 -5.16671,0.798876 -6.83821,1.96856 -1.6715,1.16968 -2.55251,2.61656 -2.55251,4.15584 0,1.53928 0.879294,3.00298 2.55251,4.18709 1.67322,1.18411 4.10823,1.9998 6.83821,1.9998 2.60954,0 4.94856,-0.718722 6.61762,-1.81232 1.66906,-1.0936 2.62368,-2.50033 2.7731,-3.93711 a 1.55044,1.53737 0 0 1 0.03151,-0.156234 l 0,-18.3419 a 1.55044,1.53737 0 0 1 0.756299,-1.31237 c 0.06951,-0.04098 0.0937,-0.06424 0.189075,-0.124988 a 1.55044,1.53737 0 0 1 1.19747,-0.218728 c 2.23993,0.519011 4.85699,1.23917 6.83821,3.5309 1.4796,1.7115 2.34791,4.5444 2.86764,8.1242 0.741348,-1.20525 1.19295,-2.37714 1.22899,-3.56215 0.06123,-2.01365 -0.773727,-4.23457 -2.33192,-6.5931 -2.9247,-4.42692 -8.3394,-9.19385 -13.5504,-13.9986 z" id="path33" opacity="0.52" stroke="url(#1)"/>
 </g>
 <path opacity="0.52" fill="url(#3)" stroke="url(#4)" d="m 23.6067 5.0644 v 25.435 a 1.55044 1.53737 0 0 1 -2.07982 1.43736 c -1.33861 -0.489833 -2.89172 -0.781173 -4.5378 -0.781173 -2.73536 0 -5.16671 0.798876 -6.83821 1.96856 -1.6715 1.16968 -2.55251 2.61656 -2.55251 4.15584 0 1.53928 0.879294 3.00298 2.55251 4.18709 1.67322 1.18411 4.10823 1.9998 6.83821 1.9998 2.60954 0 4.94856 -0.718722 6.61762 -1.81232 1.66906 -1.0936 2.62368 -2.50033 2.7731 -3.93711 a 1.55044 1.53737 0 0 1 0.03151 -0.156234 v -18.3419 a 1.55044 1.53737 0 0 1 0.756299 -1.31237 c 0.06951 -0.04098 0.0937 -0.06424 0.189075 -0.124988 a 1.55044 1.53737 0 0 1 1.19747 -0.218728 c 2.23993 0.519011 4.85699 1.23917 6.83821 3.5309 1.4796 1.7115 2.34791 4.5444 2.86764 8.1242 0.741348 -1.20525 1.19295 -2.37714 1.22899 -3.56215 0.06123 -2.01365 -0.773727 -4.23457 -2.33192 -6.5931 -2.9247 -4.42692 -8.3394 -9.19385 -13.5504 -13.9986 z" id="path35"/>
 <metadata id="metadata9999">
  <rdf:RDF>
   <cc:Work>
    <dc:format>image/svg+xml</dc:format>
    <dc:type rdf:resource="http://purl.org/dc/dcmitype/StillImage"/>
    <dc:title>Ivy icon theme</dc:title>
    <cc:license rdf:resource="http://creativecommons.org/licenses/by-sa/4.0/"/>
    <dc:creator>
     <cc:Agent>
      <dc:title>Sixsixfive (sixsixfive.deviantart.com)</dc:title>
     </cc:Agent>
    </dc:creator>
    <dc:publisher>
     <cc:Agent>
      <dc:title>Sixsixfive (sixsixfive.deviantart.com)</dc:title>
     </cc:Agent>
    </dc:publisher>
    <dc:source>https://github.com/sixsixfive</dc:source>
    <dc:subject>
     <rdf:Bag>
      <rdf:li>ivy</rdf:li>
     </rdf:Bag>
    </dc:subject>
    <dc:contributor>
     <cc:Agent>
      <dc:title>ssf</dc:title>
     </cc:Agent>
    </dc:contributor>
    <dc:rights>
     <cc:Agent>
      <dc:title>Sixsixfive (sixisixfive.deviantart.com)</dc:title>
     </cc:Agent>
    </dc:rights>
    <dc:description>A simple icon theme published under CC-BY-SA_V4(http://creativecommons.org/licenses/by-sa/4.0)</dc:description>
    <dc:identifier>SSF</dc:identifier>
   </cc:Work>
  </rdf:RDF>
 </metadata>
 <!--Part of the Ivy icon them published under the CC-BY-SA_V4: http://creativecommons.org/licenses/by-sa/4.0 -->
</svg>
